<svg xmlns="http://www.w3.org/2000/svg" viewBox="0 0 600 600"><defs><style>.cls-1{fill:#fff;}</style></defs><g id="Calque_2" data-name="Calque 2"><g id="DivineSword"><path class="cls-1" d="M600,600c-120-1.33-243-8.67-363-10-16.21,1.33-29.41,8.67-45.62,10H0c2.33-33.67,10.67-64.33,13-98C10.67,386.52,2.33,268.05,0,152.57c2.67-31.52,15.33-61,18-92.57C15.33,40.67,2.67,19.33,0,0L132,7,498.79,0c8.07,4.33,8.14,21.67,16.21,26,25.67-4.33,59.33-21.67,85-26l-6,321,6,33.91V452q-2.5,14-5,28Q597.5,540,600,600Z"/><path d="M352.7,415.38l1.19,5.94c57.95,5.1,99.11,18,99.11,33.18,0,19.61-68.95,35.5-154,35.5s-154-15.89-154-35.5c0-15.44,42.75-28.57,102.45-33.46l1.26-5.79C177.09,421.7,125,441.31,125,464.5c0,28.44,78.35,51.5,175,51.5s175-23.06,175-51.5C475,441.46,423.6,422,352.7,415.38Z"/><path d="M304.72,202.92,317,423.26,300.5,443l-16-20,10.81-220.08h-12.1c-3.63,47.53-18.1,220.59-18.1,220.59L300.22,472l34.88-48.93s-14.38-172-18.07-220.15Z"/><path d="M315.46,173.43l-4.83-52.93-10,.11H289.91l-5.16,53.26H237.5v12s10.75,6.9,40.93,7.66l45.53-.5c28.52-1,38.75-7.6,38.75-7.6v-12Z"/><path d="M423,188.49l7.79,139.77-10.47,12.52L410.18,328.1,417,188.49h-7.68c-2.3,30.15-11.48,139.93-11.48,139.93l22.27,30.76,22.13-31S433.15,219,430.82,188.49Z"/><path d="M429.82,169.78l-3.06-33.58-6.34.07h-6.81l-3.27,33.79h-30v7.63s6.82,4.38,26,4.86l28.88-.32c18.09-.65,24.58-4.82,24.58-4.82v-7.63Z"/><path d="M387.48,323.18c-17.15,1.54-32.54,4.28-45,7.88l.26,3.07c11.3-3.3,26.49-5.85,44-7.28Z"/><path d="M453.45,323.26l.75,3.77c36.76,3.24,62.87,11.44,62.87,21.05,0,12.43-43.74,22.52-97.69,22.52-29.67,0-56.25-3.05-74.17-7.87l1.42,16.2c19.56,5.08,45.25,8.16,73.38,8.16,61.31,0,111-14.63,111-32.67C531,339.81,498.42,327.44,453.45,323.26Z"/><path d="M176.72,188.22,168.93,328l10.47,12.52,10.15-12.69-6.86-139.61h7.68c2.3,30.15,11.48,139.94,11.48,139.94l-22.27,30.76-22.13-31s9.13-109.12,11.46-139.66Z"/><path d="M169.91,169.52,173,135.94l6.34.07h6.81l3.27,33.79h30v7.63s-6.82,4.37-26,4.86L164.52,182c-18.09-.66-24.58-4.82-24.58-4.82v-7.63Z"/><path d="M211.25,322.92c17.15,1.54,32.54,4.28,45,7.87l-.26,3.07c-11.3-3.29-26.49-5.84-44-7.27Z"/><path d="M145.28,323l-.75,3.77c-36.76,3.23-62.87,11.44-62.87,21,0,12.44,43.74,22.52,97.69,22.52,29.67,0,56.25-3.05,74.17-7.86l-1.42,16.2c-19.56,5.08-45.25,8.16-73.38,8.16-61.31,0-111-14.63-111-32.67C67.71,339.54,100.31,327.17,145.28,323Z"/></g></g></svg>