<svg xmlns="http://www.w3.org/2000/svg" viewBox="0 0 600 600"><defs><style>.cls-1{fill:#fff;opacity:0.1;}</style></defs><g id="Calque_2" data-name="Calque 2"><g id="DivineSword"><polygon points="600 600 192.66 600 160.09 581.89 132.09 599.89 0 600 10.09 181.89 0 74.85 0 0 428.57 0 500.08 13.89 600 0 600 293.92 600 326.08 600 473.15 572.09 514.89 600 600"/></g><g id="Shield"><path class="cls-1" d="M384.25,418.29c-1.28,1.72-2.6,3.42-4,5.13,47.68,6,80,17.71,80,31.14,0,19.6-68.95,35.5-154,35.5s-154-15.9-154-35.5c0-12.36,27.41-23.25,69-29.6-1.24-1.54-2.46-3.09-3.65-4.63-51.1,9-85.32,25.43-85.32,44.23,0,28.44,78.35,51.5,175,51.5s175-23.06,175-51.5C482.3,444.24,442.32,426.68,384.25,418.29Z"/><path class="cls-1" d="M452.4,130.89c-36.46,0-38.16-39.86-38.16-39.86s-1.69,39.86-38.15,39.86h.68c36.46,0,38.16,39.85,38.16,39.85s1.69-39.85,38.16-39.85Z"/><path class="cls-1" d="M392.78,86.89c-16.28,0-17-17.79-17-17.79s-.76,17.79-17,17.79H359c16.28,0,17,17.8,17,17.8s.75-17.8,17-17.8Z"/><path class="cls-1" d="M186.59,210.06v98.51s13,105,113,154v-.18c100-49,113-154,113-154v-98.5a11.81,11.81,0,0,0-8.06-11.2l-104.94-35.3-105,35.47A11.82,11.82,0,0,0,186.59,210.06Zm112.5-21.19,84.59,28.91a9.65,9.65,0,0,1,6.49,9.17v80.67s-10.48,86-91.08,126.13Z"/></g></g></svg>