<svg xmlns="http://www.w3.org/2000/svg" viewBox="0 0 600 600"><defs><style>.cls-1,.cls-3{opacity:0.1;}.cls-2,.cls-3{fill:#fff;}</style></defs><g id="Calque_2" data-name="Calque 2"><g id="DivineSword"><polygon points="600 600 481.07 591.5 413.61 600 0 600 0 540.16 18.07 358.5 0 296.58 0 0 93.07 18.5 233.61 0 313.27 0 511.07 12.5 600 0 600 224.59 582.07 395.5 600 459.73 600 508.75 600 600"/></g><g id="trow"><g class="cls-1"><path class="cls-2" d="M295.14,414.44,280.53,152.28l19.63-23.49,19,23.8L306.34,414.44h14.39C325.05,357.89,342.26,152,342.26,152L300.49,94.29,259,152.5s17.11,204.66,21.5,261.94Z"/><path class="cls-2" d="M282.36,449.52l5.74,63,11.88-.13h12.78L318.89,449h56.22V434.68s-12.79-8.2-48.69-9.11l-54.18.6c-33.92,1.23-46.1,9-46.1,9v14.31Z"/><path class="cls-3" d="M295.14,414.44,280.53,152.28l19.63-23.49,19,23.8L306.34,414.44h14.39C325.05,357.89,342.26,152,342.26,152L300.49,94.29,259,152.5s17.11,204.66,21.5,261.94Z"/><path class="cls-3" d="M282.36,449.52l5.74,63,11.88-.13h12.78L318.89,449h56.22V434.68s-12.79-8.2-48.69-9.11l-54.18.6c-33.92,1.23-46.1,9-46.1,9v14.31Z"/></g><polygon class="cls-3" points="355.07 160.5 351.07 216.5 499.07 370.5 355.07 160.5"/><polygon class="cls-3" points="350.07 236.5 345.07 291.5 445.07 329.5 350.07 236.5"/><polygon class="cls-3" points="247.29 161.16 251.29 217.16 103.29 371.16 247.29 161.16"/><polygon class="cls-3" points="252.29 237.16 257.29 292.16 157.29 330.16 252.29 237.16"/></g></g></svg>