# This file uses centimeters as units for non-parametric coordinates.

g default
v 0.000008 -0.000008 2.601318
v 10.613197 15.196766 25.497974
v 0.000008 -0.000008 -2.640625
v 9.956436 14.119186 -28.015793
v 23.158089 31.227781 25.497997
v 22.347069 30.387238 -28.015850
v 80.867020 57.847137 -18.112312
v 85.909256 56.994736 14.142506
v 102.726837 54.846283 -1.241318
v 7.918411 16.130367 -0.201407
v 20.756073 32.751640 -0.695547
v 84.015144 60.176479 -1.072048
v 50.015152 49.250999 20.217302
v 47.692089 51.471691 -0.870684
v 47.123611 48.432804 -23.410379
vt 0.231172 0.000000
vt 0.404051 0.136791
vt 0.191593 0.000000
vt 0.000000 0.127293
vt 0.404051 0.290316
vt 0.000000 0.281524
vt 0.074775 0.781184
vt 0.318312 0.820293
vt 0.202158 0.950274
vt 0.210010 0.132230
vt 0.206279 0.286013
vt 0.203436 0.801846
vt 0.364179 0.536775
vt 0.204957 0.525894
vt 0.034773 0.513885
vn -0.199840 0.973008 -0.115405
vn -0.131783 0.990935 0.026094
vn 0.273872 0.961722 -0.009208
vn -0.677439 0.728588 -0.101174
vn -0.667225 0.744842 0.004648
vn -0.411296 0.911332 0.017603
vn -0.445192 0.889264 -0.104949
vn -0.806292 0.583029 -0.099851
vn -0.822965 0.568091 0.000709
vn -0.890139 0.448857 -0.078611
vn -0.888358 0.451032 0.085965
vn -0.801145 0.588880 0.106706
vn -0.659018 0.743171 0.115723
vn -0.407403 0.901909 0.143467
vn -0.151469 0.973909 0.168990
s 1
g leafy_branch_3
f 7/7/1 12/12/2 9/9/3
f 6/6/4 11/11/5 14/14/6 15/15/7
f 4/4/8 10/10/9 11/11/5 6/6/4
f 10/10/9 3/3/10 1/1/11
f 10/10/9 1/1/11 2/2/12
f 4/4/8 3/3/10 10/10/9
f 11/11/5 10/10/9 2/2/12 5/5/13
f 14/14/6 11/11/5 5/5/13 13/13/14
f 9/9/3 12/12/2 8/8/15
f 12/12/2 14/14/6 13/13/14 8/8/15
f 15/15/7 14/14/6 12/12/2 7/7/1
