# This file uses centimeters as units for non-parametric coordinates.

g default
v 16.205948 0.133392 -9.012489
v -16.048889 -1.057831 -3.971605
v -0.665009 -2.306702 13.422459
v -0.834290 2.214233 -5.708952
v -16.866089 -0.905487 -9.011663
v -0.855652 2.306702 -9.617006
v 16.866104 0.195068 -13.422451
vt 0.074775 0.781184
vt 0.318312 0.820293
vt 0.202158 0.950274
vt 0.203436 0.801846
vt 0.324483 0.782153
vt 0.203597 0.772573
vt 0.069791 0.747877
vn 0.143447 0.981768 0.124719
vn -0.004937 0.984985 0.172571
vn -0.008491 0.973145 0.230039
vn -0.189300 0.970516 0.149210
vn -0.026029 0.998990 0.036619
vn -0.199839 0.978771 0.045506
vn 0.125333 0.991719 0.028003
s 1
g leafy_branch_2
f 1/1/1 4/4/2 3/3/3
f 3/3/3 4/4/2 2/2/4
f 4/4/2 6/6/5 5/5/6 2/2/4
f 1/1/1 7/7/7 6/6/5 4/4/2
