# This file uses centimeters as units for non-parametric coordinates.

g default
v -2.601341 -0.000008 0.000000
v -25.497993 -2.784828 18.117050
v 2.640587 -0.000008 0.000000
v 28.015762 -2.784832 16.859024
v -25.497993 -2.784836 38.450272
v 28.015762 -2.784807 37.285965
v 18.112324 -3.710197 103.442345
v -14.142509 -4.901428 108.483200
v 1.241360 -6.150299 125.877266
v 0.201355 0.000008 17.512909
v 0.695511 -0.000011 37.880341
v 1.072083 -1.629360 106.745850
vt 0.231172 0.000000
vt 0.404051 0.136791
vt 0.191593 0.000000
vt 0.000000 0.127293
vt 0.404051 0.290316
vt 0.000000 0.281524
vt 0.074775 0.781184
vt 0.318312 0.820293
vt 0.202158 0.950274
vt 0.210010 0.132230
vt 0.206279 0.286013
vt 0.203436 0.801846
vn 0.113564 0.992903 0.035307
vn -0.022096 0.998338 0.053235
vn -0.008491 0.973144 0.230039
vn 0.108068 0.993975 0.018294
vn -0.009247 0.999671 0.023912
vn 0.100403 0.994946 0.000975
vn -0.000222 0.999991 0.004343
vn 0.080688 0.996676 0.011237
vn -0.084689 0.996315 0.013552
vn -0.106782 0.994276 0.003631
vn -0.132453 0.990789 0.028175
vn -0.144914 0.988173 0.050147
s 1
g leafy_branch_1
f 7/7/1 12/12/2 9/9/3
f 6/6/4 11/11/5 12/12/2 7/7/1
f 4/4/6 10/10/7 11/11/5 6/6/4
f 10/10/7 3/3/8 1/1/9
f 10/10/7 1/1/9 2/2/10
f 4/4/6 3/3/8 10/10/7
f 11/11/5 10/10/7 2/2/10 5/5/11
f 12/12/2 11/11/5 5/5/11 8/8/12
f 9/9/3 12/12/2 8/8/12
