<svg xmlns="http://www.w3.org/2000/svg" viewBox="0 0 601 601"><defs><style>.cls-1{fill:#fff;}</style></defs><g id="Calque_2" data-name="Calque 2"><g id="Calque_10" data-name="Calque 10"><rect class="cls-1" x="1" width="600" height="600"/><rect class="cls-1" width="601" height="601"/></g><g id="DivineSword"><path d="M353.7,415.38l1.19,5.94c57.95,5.1,99.11,18,99.11,33.18,0,19.61-68.95,35.5-154,35.5s-154-15.89-154-35.5c0-15.44,42.75-28.57,102.45-33.46l1.26-5.79C178.09,421.7,126,441.31,126,464.5c0,28.44,78.35,51.5,175,51.5s175-23.06,175-51.5C476,441.46,424.6,422,353.7,415.38Z"/><path d="M305.72,202.92,318,423.26,301.5,443l-16-20,10.81-220.08h-12.1c-3.63,47.53-18.1,220.59-18.1,220.59L301.22,472l34.88-48.93s-14.38-172-18.07-220.15Z"/><path d="M316.46,173.43l-4.83-52.93-10,.11H290.91l-5.16,53.26H238.5v12s10.75,6.9,40.93,7.66l45.53-.5c28.52-1,38.75-7.6,38.75-7.6v-12Z"/><path d="M424,188.49l7.79,139.77-10.47,12.52L411.18,328.1,418,188.49h-7.68c-2.3,30.15-11.48,139.93-11.48,139.93l22.27,30.76,22.13-31S434.15,219,431.82,188.49Z"/><path d="M430.82,169.78l-3.06-33.58-6.34.07h-6.81l-3.27,33.79h-30v7.63s6.82,4.38,26,4.86l28.88-.32c18.09-.65,24.58-4.82,24.58-4.82v-7.63Z"/><path d="M388.48,323.18c-17.15,1.54-32.54,4.28-45,7.88l.26,3.07c11.3-3.3,26.49-5.85,44-7.28Z"/><path d="M454.45,323.26l.75,3.77c36.76,3.24,62.87,11.44,62.87,21.05,0,12.43-43.74,22.52-97.69,22.52-29.67,0-56.25-3.05-74.17-7.87l1.42,16.2c19.56,5.08,45.25,8.16,73.38,8.16,61.31,0,111-14.63,111-32.67C532,339.81,499.42,327.44,454.45,323.26Z"/><path d="M177.72,188.22,169.93,328l10.47,12.52,10.15-12.69-6.86-139.61h7.68c2.3,30.15,11.48,139.94,11.48,139.94l-22.27,30.76-22.13-31s9.13-109.12,11.46-139.66Z"/><path d="M170.91,169.52,174,135.94l6.34.07h6.81l3.27,33.79h30v7.63s-6.82,4.37-26,4.86L165.52,182c-18.09-.66-24.58-4.82-24.58-4.82v-7.63Z"/><path d="M212.25,322.92c17.15,1.54,32.54,4.28,45,7.87l-.26,3.07c-11.3-3.29-26.49-5.84-44-7.27Z"/><path d="M146.28,323l-.75,3.77c-36.76,3.23-62.87,11.44-62.87,21,0,12.44,43.74,22.52,97.69,22.52,29.67,0,56.25-3.05,74.17-7.86l-1.42,16.2c-19.56,5.08-45.25,8.16-73.38,8.16-61.31,0-111-14.63-111-32.67C68.71,339.54,101.31,327.17,146.28,323Z"/></g></g></svg>