<svg xmlns="http://www.w3.org/2000/svg" viewBox="0 0 600 600"><defs><style>.cls-1{fill:#fff;}</style></defs><g id="Calque_2" data-name="Calque 2"><g id="DivineSword"><rect class="cls-1" width="600" height="600"/></g><g id="trow"><path d="M295.06,414.94,280.45,152.78l19.63-23.49,19,23.8L306.26,414.94h14.39c4.32-56.55,21.54-262.46,21.54-262.46L300.42,94.79,258.92,153S276,357.66,280.42,414.94Z"/><path d="M282.29,450,288,513l11.88-.13h12.78l6.13-63.37H375V435.18s-12.79-8.2-48.69-9.11l-54.18.6c-33.93,1.23-46.1,9-46.1,9V450Z"/><path d="M295.06,414.94,280.45,152.78l19.63-23.49,19,23.8L306.26,414.94h14.39c4.32-56.55,21.54-262.46,21.54-262.46L300.42,94.79,258.92,153S276,357.66,280.42,414.94Z"/><path d="M282.29,450,288,513l11.88-.13h12.78l6.13-63.37H375V435.18s-12.79-8.2-48.69-9.11l-54.18.6c-33.93,1.23-46.1,9-46.1,9V450Z"/><polygon points="355 161 351 217 499 371 355 161"/><polygon points="350 237 345 292 445 330 350 237"/><polygon points="247.21 161.66 251.21 217.66 103.21 371.66 247.21 161.66"/><polygon points="252.21 237.66 257.21 292.66 157.21 330.66 252.21 237.66"/></g></g></svg>