<svg xmlns="http://www.w3.org/2000/svg" viewBox="0 0 600 600"><defs><style>.cls-1{fill:#fff;opacity:0.1;}</style></defs><g id="Calque_2" data-name="Calque 2"><g id="DivineSword"><rect width="600" height="600"/></g><g id="Shield"><path class="cls-1" d="M384.17,418.4q-1.94,2.57-4,5.13c47.68,6,80,17.71,80,31.13,0,19.61-68.95,35.5-154,35.5s-154-15.89-154-35.5c0-12.36,27.41-23.24,69-29.6q-1.87-2.31-3.66-4.63c-51.1,9-85.32,25.44-85.32,44.23,0,28.45,78.35,51.5,175,51.5s175-23,175-51.5C482.21,444.35,442.23,426.78,384.17,418.4Z"/><path class="cls-1" d="M452.31,131c-36.46,0-38.15-39.85-38.15-39.85S412.46,131,376,131h.69c36.46,0,38.15,39.86,38.15,39.86S416.54,131,453,131Z"/><path class="cls-1" d="M392.69,87c-16.28,0-17-17.8-17-17.8s-.76,17.8-17,17.8h.3c16.28,0,17,17.8,17,17.8S376.72,87,393,87Z"/><path class="cls-1" d="M186.5,210.16v98.52s13,105,113,154v-.18c100-49,113-154,113-154V210a11.83,11.83,0,0,0-8.05-11.21L299.5,163.5,194.54,199A11.8,11.8,0,0,0,186.5,210.16ZM299,189l84.59,28.9a9.67,9.67,0,0,1,6.49,9.18v80.67s-10.47,86-91.08,126.12Z"/></g></g></svg>