# This file uses centimeters as units for non-parametric coordinates.

g default
v -6.015774 -6.201263 1.664612
v -8.530918 16.978470 3.236053
v -6.288441 21.105774 4.938927
v 0.498283 -5.818268 -5.033688
v -4.948055 20.947098 1.686554
v -5.346058 18.089645 -0.249840
v -4.049427 13.473007 -2.278137
v -0.192631 10.393585 -5.014004
v -3.917889 18.994324 0.142883
v -1.550571 26.053146 5.151764
v 0.827465 28.845428 6.614227
v 3.314003 28.832825 6.493683
v 3.840317 23.445587 0.680054
v 5.766174 18.005157 -1.306976
v 4.274624 13.399277 -3.116814
v 7.049088 15.737549 -2.279213
v 10.803493 14.179779 1.047150
v 9.845707 20.263016 1.790016
v 10.349743 17.476135 2.492760
v 0.009907 13.839569 -3.801025
v 0.760242 19.084320 -1.839386
v 0.707912 25.480667 2.223694
v 2.064938 29.470947 6.234100
v 2.111416 11.922287 -4.122196
v 5.345089 -6.095505 -3.749660
v 6.285141 -4.377365 -3.433189
v 10.680943 7.299988 -1.476082
v 10.849140 -3.946091 -1.050255
v 14.624630 19.486404 0.902191
v 12.065388 23.704147 1.692169
v 8.916714 -5.818268 5.629669
v 12.132603 22.378311 4.953678
v 13.150471 19.102600 5.507530
v 12.579029 13.976120 6.215431
v 10.011974 9.821564 9.042572
v 11.724216 19.942535 6.029663
v 7.852428 27.972916 5.008453
v 5.208668 30.842758 5.612701
v 2.979885 30.550995 6.682739
v 4.595318 23.555527 10.081482
v 3.396381 17.605408 10.725067
v 5.290630 12.829697 10.160492
v 2.514645 15.032471 11.304375
v -2.319324 14.271454 9.396332
v -1.481686 20.332825 10.412689
v -2.342442 17.885223 9.077423
v 9.487423 13.437790 9.229408
v 8.238125 18.935944 9.587242
v 6.931843 26.272659 8.212189
v 4.254337 31.189606 6.630585
v 7.610645 11.324875 9.686371
v 3.953976 -6.136230 6.327667
v 3.039585 -4.507339 6.995819
v -1.489445 6.991791 9.220482
v -2.550201 -6.206161 -5.650976
v -1.071095 16.841904 -13.765230
v -0.081326 21.637985 -12.774719
v 6.830330 -5.818268 -4.158289
v 3.174091 20.416534 -13.331600
v 3.770527 16.998276 -13.512999
v 5.085163 12.277115 -11.754916
v 8.842983 9.110611 -8.980987
v 4.545750 18.228256 -12.565090
v 3.748035 27.016571 -10.937286
v 4.708652 30.544601 -9.447083
v 6.318726 30.937668 -7.589478
v 9.867119 23.845551 -8.046112
v 11.353512 18.518585 -5.463564
v 10.798721 13.387558 -5.744873
v 12.376236 16.327209 -4.090609
v 11.802742 16.971497 1.090427
v 11.995590 22.543884 -1.627350
v 11.154896 20.427505 0.197144
v 8.806396 12.725510 -9.545135
v 8.933441 18.354980 -10.004915
v 7.227486 25.724167 -10.462616
v 5.892593 31.175369 -8.929873
v 9.912777 11.261948 -7.347561
v 8.759193 -4.659973 0.331139
v 9.473282 -2.821976 0.549436
v 12.125351 9.764511 2.382106
v -8.765102 -7.098755 5.669100
v -14.483273 16.210510 7.037197
v -13.164639 21.010956 6.612885
v -7.138577 -5.818268 -4.032557
v -14.096523 20.309219 3.290409
v -14.624630 17.033508 2.258945
v -13.401241 12.428818 0.159265
v -11.238430 9.629639 -4.237269
v -13.641323 18.286789 1.569920
v -11.192287 26.726288 3.385803
v -9.485744 30.233643 2.771942
v -7.742336 30.711395 1.060337
v -9.111172 24.249191 -3.351437
v -7.136593 19.009308 -5.780453
v -7.816830 13.887024 -5.897674
v -6.050442 16.888947 -7.214840
v -0.803219 17.056244 -7.054745
v -3.031246 22.786926 -6.236088
v -1.334316 20.442230 -5.865360
v -11.480160 13.234665 -3.660647
v -11.456264 18.843582 -2.983974
v -11.125118 25.909241 -0.265228
v -9.016445 30.985703 1.640041
v -9.519009 11.782944 -5.157872
v -2.742580 -4.736618 -6.205658
v -2.425381 -2.837341 -6.683143
v -0.176510 9.891922 -8.466460
v 4.238743 -7.165115 8.261573
v 6.355625 15.849823 12.613678
v 5.607533 20.731476 11.856724
v -5.699947 -5.818268 6.039495
v 2.546482 19.841354 13.352533
v 1.688602 16.499664 13.765228
v -0.543804 11.954605 12.553919
v -5.240093 9.214569 11.044126
v 0.799900 17.811615 13.057226
v 1.969517 26.489609 11.096378
v 0.977863 30.111984 9.877529
v -1.052303 30.685455 8.555788
v -5.009289 23.986099 10.155268
v -7.704052 18.864243 8.216095
v -7.608517 13.700806 8.426083
v -9.293880 16.802185 7.239651
v -10.179806 17.437698 2.101719
v -9.020245 22.972855 4.649748
v -8.958782 20.800751 2.702236
v -4.680218 12.801117 11.502684
v -4.104504 18.409393 11.869022
v -1.609875 25.562164 11.670628
v -0.235607 30.864975 9.711395
v -6.514996 11.479980 9.746638
v -8.717175 -4.424347 2.275082
v -9.276028 -2.521194 2.235956
v -11.581951 10.314285 1.099611
vt 0.965303 0.701047
vt 0.965303 0.863339
vt 0.956542 0.907301
vt 0.890561 0.701047
vt 0.934829 0.891648
vt 0.933058 0.862072
vt 0.922251 0.821076
vt 0.895380 0.790513
vt 0.924805 0.872028
vt 0.917887 0.947774
vt 0.898305 0.973023
vt 0.872459 0.973023
vt 0.869988 0.908242
vt 0.856947 0.862252
vt 0.867166 0.820949
vt 0.849425 0.841229
vt 0.815820 0.839250
vt 0.824221 0.889079
vt 0.815820 0.872140
vt 0.894708 0.821013
vt 0.890876 0.867140
vt 0.893938 0.928008
vt 0.885382 0.973023
vt 0.881273 0.805731
vt 0.854229 0.701047
vt 0.847573 0.715631
vt 0.820075 0.774358
vt 0.956542 0.907301
vt 0.934829 0.891648
vt 0.933058 0.862072
vt 0.965303 0.863339
vt 0.872459 0.973023
vt 0.869988 0.908242
vt 0.893938 0.928008
vt 0.885382 0.973023
vt 0.922251 0.821076
vt 0.965303 0.701047
vt 0.895380 0.790513
vt 0.890561 0.701047
vt 0.890876 0.867140
vt 0.856947 0.862252
vt 0.894708 0.821013
vt 0.867166 0.820949
vt 0.881273 0.805731
vt 0.815820 0.839250
vt 0.849425 0.841229
vt 0.824221 0.889079
vt 0.815820 0.872140
vt 0.924805 0.872028
vt 0.917887 0.947774
vt 0.898305 0.973023
vt 0.847573 0.715631
vt 0.854229 0.701047
vt 0.820075 0.774358
vt 0.956542 0.907301
vt 0.934829 0.891648
vt 0.933058 0.862072
vt 0.965303 0.863339
vt 0.872459 0.973023
vt 0.869988 0.908242
vt 0.893938 0.928008
vt 0.885382 0.973023
vt 0.922251 0.821076
vt 0.965303 0.701047
vt 0.895380 0.790513
vt 0.890561 0.701047
vt 0.890876 0.867140
vt 0.856947 0.862252
vt 0.894708 0.821013
vt 0.867166 0.820949
vt 0.881273 0.805731
vt 0.815820 0.839250
vt 0.849425 0.841229
vt 0.824221 0.889079
vt 0.815820 0.872140
vt 0.924805 0.872028
vt 0.917887 0.947774
vt 0.898305 0.973023
vt 0.847573 0.715631
vt 0.854229 0.701047
vt 0.820075 0.774358
vt 0.956542 0.907301
vt 0.934829 0.891648
vt 0.933058 0.862072
vt 0.965303 0.863339
vt 0.872459 0.973023
vt 0.869988 0.908242
vt 0.893938 0.928008
vt 0.885382 0.973023
vt 0.922251 0.821076
vt 0.965303 0.701047
vt 0.895380 0.790513
vt 0.890561 0.701047
vt 0.890876 0.867140
vt 0.856947 0.862252
vt 0.894708 0.821013
vt 0.867166 0.820949
vt 0.881273 0.805731
vt 0.815820 0.839250
vt 0.849425 0.841229
vt 0.824221 0.889079
vt 0.815820 0.872140
vt 0.924805 0.872028
vt 0.917887 0.947774
vt 0.898305 0.973023
vt 0.847573 0.715631
vt 0.854229 0.701047
vt 0.820075 0.774358
vt 0.956542 0.907301
vt 0.934829 0.891648
vt 0.933058 0.862072
vt 0.965303 0.863339
vt 0.872459 0.973023
vt 0.869988 0.908242
vt 0.893938 0.928008
vt 0.885382 0.973023
vt 0.922251 0.821076
vt 0.965303 0.701047
vt 0.895380 0.790513
vt 0.890561 0.701047
vt 0.890876 0.867140
vt 0.856947 0.862252
vt 0.894708 0.821013
vt 0.867166 0.820949
vt 0.881273 0.805731
vt 0.815820 0.839250
vt 0.849425 0.841229
vt 0.824221 0.889079
vt 0.815820 0.872140
vt 0.924805 0.872028
vt 0.917887 0.947774
vt 0.898305 0.973023
vt 0.847573 0.715631
vt 0.854229 0.701047
vt 0.820075 0.774358
vn -0.747192 0.506603 -0.430183
vn -0.747192 0.506603 -0.430183
vn -0.793934 0.042773 -0.606498
vn -0.793945 0.042873 -0.606476
vn 0.224185 0.695405 -0.682754
vn 0.094829 0.506799 -0.856833
vn -0.232515 0.616328 -0.752381
vn -0.038741 0.743662 -0.667433
vn -0.711192 0.009803 -0.702930
vn -0.696567 -0.051565 -0.715636
vn -0.366387 -0.017856 -0.930291
vn -0.350308 -0.028501 -0.936201
vn -0.164222 0.451908 -0.876819
vn 0.128628 0.381900 -0.915209
vn -0.116983 0.359263 -0.925875
vn 0.333787 0.131108 -0.933486
vn 0.294440 0.069372 -0.953149
vn 0.608889 0.162419 -0.776450
vn 0.579035 0.156164 -0.800207
vn 0.771833 0.195410 -0.605052
vn 0.771833 0.195410 -0.605052
vn -0.418647 0.478348 -0.771957
vn -0.473492 0.599166 -0.645605
vn -0.500640 0.693617 -0.517933
vn 0.292456 0.030072 -0.955806
vn 0.284887 0.023942 -0.958262
vn 0.359473 0.070320 -0.930502
vn 0.877637 0.411191 0.246322
vn 0.877637 0.411191 0.246322
vn 0.972516 -0.078268 0.219289
vn 0.972880 -0.071189 0.220085
vn 0.097370 0.413559 0.905256
vn 0.277443 0.192461 0.941267
vn 0.539991 0.360967 0.760337
vn 0.334004 0.489435 0.805540
vn 0.939124 -0.130291 0.317917
vn 0.934435 -0.177951 0.308487
vn 0.701944 -0.217129 0.678328
vn 0.670030 -0.229538 0.705955
vn 0.520277 0.159450 0.838980
vn 0.264557 0.052763 0.962926
vn 0.492725 0.051826 0.868640
vn 0.044191 -0.149300 0.987804
vn 0.101161 -0.180677 0.978326
vn -0.239945 -0.155879 0.958190
vn -0.203375 -0.166520 0.964837
vn -0.456291 -0.085459 0.885718
vn -0.456291 -0.085459 0.885718
vn 0.712379 0.242761 0.658470
vn 0.717168 0.402522 0.568899
vn 0.694955 0.535187 0.480221
vn 0.134048 -0.213211 0.967767
vn 0.160047 -0.220720 0.962116
vn 0.005344 -0.184916 0.982740
vn -0.018547 0.142082 -0.989681
vn -0.018547 0.142082 -0.989681
vn 0.049697 -0.277484 -0.959444
vn 0.049508 -0.276317 -0.959790
vn 0.809290 0.385379 -0.443320
vn 0.820728 0.122130 -0.558113
vn 0.565297 0.202988 -0.799522
vn 0.647444 0.386864 -0.656622
vn 0.169625 -0.318581 -0.932595
vn 0.194037 -0.356485 -0.913930
vn 0.525588 -0.340846 -0.779475
vn 0.507017 -0.349854 -0.787741
vn 0.665296 0.017630 -0.746372
vn 0.858170 -0.007258 -0.513314
vn 0.711005 -0.076646 -0.698997
vn 0.955351 -0.139499 -0.260471
vn 0.936753 -0.181461 -0.299274
vn 0.998150 -0.059648 0.011796
vn 0.996549 -0.080360 -0.020811
vn 0.974940 0.069355 0.211382
vn 0.974940 0.069355 0.211382
vn 0.435823 0.037585 -0.899247
vn 0.332969 0.187149 -0.924179
vn 0.240238 0.318699 -0.916906
vn 0.920758 -0.220431 -0.321893
vn 0.909197 -0.234088 -0.344331
vn 0.963386 -0.162749 -0.213076
vn -0.968478 0.211574 0.131478
vn -0.968478 0.211574 0.131478
vn -0.982919 -0.184027 -0.002107
vn -0.982895 -0.184156 -0.002152
vn -0.474224 0.528436 -0.704178
vn -0.612088 0.278802 -0.740012
vn -0.823288 0.340382 -0.454244
vn -0.672279 0.522862 -0.524077
vn -0.964571 -0.220335 -0.145106
vn -0.944600 -0.266188 -0.192026
vn -0.824702 -0.228058 -0.517549
vn -0.831205 -0.238957 -0.501994
vn -0.795065 0.167654 -0.582893
vn -0.582035 0.153059 -0.798629
vn -0.760088 0.077549 -0.645176
vn -0.356080 -0.012612 -0.934371
vn -0.387381 -0.066546 -0.919515
vn -0.077067 0.081979 -0.993650
vn -0.111107 0.063744 -0.991762
vn 0.134249 0.191099 -0.972347
vn 0.134249 0.191099 -0.972347
vn -0.925866 0.166190 -0.339343
vn -0.928958 0.301074 -0.215385
vn -0.902500 0.417213 -0.106896
vn -0.396669 -0.105318 -0.911900
vn -0.411177 -0.116187 -0.904120
vn -0.313724 -0.049110 -0.948243
vn 0.317751 0.129360 0.939308
vn 0.317751 0.129360 0.939308
vn 0.140248 -0.170496 0.975326
vn 0.140581 -0.169979 0.975369
vn -0.603888 0.461032 0.650207
vn -0.607994 0.199155 0.768558
vn -0.286965 0.251186 0.924422
vn -0.388033 0.443897 0.807704
vn -0.054317 -0.223454 0.973200
vn -0.165000 -0.273424 0.947636
vn -0.445264 -0.248396 0.860255
vn -0.438196 -0.256099 0.861625
vn -0.416097 0.077493 0.906012
vn -0.669546 0.074700 0.739005
vn -0.482745 -0.011167 0.875690
vn -0.846375 -0.062987 0.528850
vn -0.823901 -0.113407 0.555271
vn -0.959743 0.042154 0.277700
vn -0.950874 0.021054 0.308860
vn -0.982371 0.170164 0.077406
vn -0.982371 0.170164 0.077406
vn -0.151456 0.072479 0.985803
vn -0.031345 0.210565 0.977077
vn 0.068022 0.332082 0.940795
vn -0.810525 -0.152957 0.565379
vn -0.797521 -0.165918 0.580027
vn -0.868884 -0.091445 0.486496
s 1
g grass_short_clump_2
f 3/3/1 5/5/2 6/6/3 2/2/4
f 12/12/5 13/13/6 22/22/7 23/23/8
f 2/2/4 6/6/3 7/7/9 1/1/10
f 1/1/10 7/7/9 8/8/11 4/4/12
f 21/21/13 22/22/7 13/13/6 14/14/14
f 20/20/15 21/21/13 14/14/14 15/15/16
f 8/8/11 20/20/15 15/15/16 24/24/17
f 17/17/18 16/16/19 18/18/20 19/19/21
f 7/7/9 20/20/15 8/8/11
f 9/9/22 21/21/13 20/20/15 7/7/9
f 10/10/23 22/22/7 21/21/13 9/9/22
f 23/23/8 22/22/7 10/10/23 11/11/24
f 26/26/25 25/25/26 4/4/12 8/8/11 24/24/17
f 27/27/27 26/26/25 24/24/17 15/15/16
f 17/17/18 27/27/27 15/15/16 16/16/19
s 4
f 30/28/28 32/29/29 33/30/30 29/31/31
f 39/32/32 40/33/33 49/34/34 50/35/35
f 29/31/31 33/30/30 34/36/36 28/37/37
f 28/37/37 34/36/36 35/38/38 31/39/39
f 48/40/40 49/34/34 40/33/33 41/41/41
f 47/42/42 48/40/40 41/41/41 42/43/43
f 35/38/38 47/42/42 42/43/43 51/44/44
f 44/45/45 43/46/46 45/47/47 46/48/48
f 34/36/36 47/42/42 35/38/38
f 36/49/49 48/40/40 47/42/42 34/36/36
f 37/50/50 49/34/34 48/40/40 36/49/49
f 50/35/35 49/34/34 37/50/50 38/51/51
f 53/52/52 52/53/53 31/39/39 35/38/38 51/44/44
f 54/54/54 53/52/52 51/44/44 42/43/43
f 44/45/45 54/54/54 42/43/43 43/46/46
s 7
f 57/55/55 59/56/56 60/57/57 56/58/58
f 66/59/59 67/60/60 76/61/61 77/62/62
f 56/58/58 60/57/57 61/63/63 55/64/64
f 55/64/64 61/63/63 62/65/65 58/66/66
f 75/67/67 76/61/61 67/60/60 68/68/68
f 74/69/69 75/67/67 68/68/68 69/70/70
f 62/65/65 74/69/69 69/70/70 78/71/71
f 71/72/72 70/73/73 72/74/74 73/75/75
f 61/63/63 74/69/69 62/65/65
f 63/76/76 75/67/67 74/69/69 61/63/63
f 64/77/77 76/61/61 75/67/67 63/76/76
f 77/62/62 76/61/61 64/77/77 65/78/78
f 80/79/79 79/80/80 58/66/66 62/65/65 78/71/71
f 81/81/81 80/79/79 78/71/71 69/70/70
f 71/72/72 81/81/81 69/70/70 70/73/73
s 10
f 84/82/82 86/83/83 87/84/84 83/85/85
f 93/86/86 94/87/87 103/88/88 104/89/89
f 83/85/85 87/84/84 88/90/90 82/91/91
f 82/91/91 88/90/90 89/92/92 85/93/93
f 102/94/94 103/88/88 94/87/87 95/95/95
f 101/96/96 102/94/94 95/95/95 96/97/97
f 89/92/92 101/96/96 96/97/97 105/98/98
f 98/99/99 97/100/100 99/101/101 100/102/102
f 88/90/90 101/96/96 89/92/92
f 90/103/103 102/94/94 101/96/96 88/90/90
f 91/104/104 103/88/88 102/94/94 90/103/103
f 104/89/89 103/88/88 91/104/104 92/105/105
f 107/106/106 106/107/107 85/93/93 89/92/92 105/98/98
f 108/108/108 107/106/106 105/98/98 96/97/97
f 98/99/99 108/108/108 96/97/97 97/100/100
s 13
f 111/109/109 113/110/110 114/111/111 110/112/112
f 120/113/113 121/114/114 130/115/115 131/116/116
f 110/112/112 114/111/111 115/117/117 109/118/118
f 109/118/118 115/117/117 116/119/119 112/120/120
f 129/121/121 130/115/115 121/114/114 122/122/122
f 128/123/123 129/121/121 122/122/122 123/124/124
f 116/119/119 128/123/123 123/124/124 132/125/125
f 125/126/126 124/127/127 126/128/128 127/129/129
f 115/117/117 128/123/123 116/119/119
f 117/130/130 129/121/121 128/123/123 115/117/117
f 118/131/131 130/115/115 129/121/121 117/130/130
f 131/116/116 130/115/115 118/131/131 119/132/132
f 134/133/133 133/134/134 112/120/120 116/119/119 132/125/125
f 135/135/135 134/133/133 132/125/125 123/124/124
f 125/126/126 135/135/135 123/124/124 124/127/127
