# This file uses centimeters as units for non-parametric coordinates.

g default
v -11.844425 -4.529999 9.876645
v 5.892170 -3.958435 5.986999
v 5.707027 24.237183 10.135256
v -3.286547 93.004105 46.968613
v -14.449516 92.721344 48.048569
v -8.560431 98.164490 57.336258
v -5.224373 98.166245 57.154518
v 2.216026 75.180267 32.235016
v 4.507221 52.421722 18.272034
v -11.673002 23.665527 12.590561
v -12.579731 51.851349 20.017101
v -13.498592 74.711960 33.568642
v -6.887083 98.919556 56.185028
v -8.548628 93.726883 46.085632
v -5.104959 75.878708 31.075218
v -3.459236 52.876358 17.384003
v -2.577072 24.656342 9.280609
v -2.732176 -3.684692 5.825159
v 0.182327 -3.597687 5.112881
v 15.717812 -3.969650 4.144166
v 17.318382 20.363892 6.354584
v 16.205177 80.773880 35.631432
v 6.454643 81.549866 33.572380
v 9.438305 86.466644 42.402191
v 12.412598 86.192062 43.109749
v 15.637753 65.398132 22.241249
v 16.085587 45.098114 11.527298
v 2.194782 20.800491 5.944662
v 1.029942 45.440826 10.671253
v 1.497334 65.890991 20.749435
v 11.309879 86.877197 41.884247
v 12.049568 81.755386 33.554665
v 9.371658 66.307800 20.096268
v 9.296474 45.793533 9.762276
v 10.401218 21.087509 4.549879
v 8.454876 -3.372604 2.995389
v -10.432180 -6.529572 11.130424
v 2.877422 -4.552704 8.876255
v 2.181641 18.068741 13.753038
v -10.418764 68.806946 45.900681
v -18.266142 68.031326 47.120537
v -13.165592 71.036430 54.897507
v -10.803619 71.202263 54.640602
v -7.769827 57.532425 31.344414
v -1.401306 39.494827 22.913708
v -10.296326 16.550507 15.049889
v -13.074951 38.117004 24.150200
v -19.173748 56.092621 33.220726
v -12.135962 71.834808 54.110107
v -14.284569 69.241920 45.613884
v -13.278784 57.748062 31.094383
v -6.934034 39.567978 22.426342
v -3.785971 18.119385 13.057930
v -3.577688 -4.836517 8.611458
v -13.533499 -7.850021 14.017801
v -0.042400 -3.029373 10.214710
v -6.211973 19.814743 15.558092
v -15.932625 70.813774 53.968849
v -23.404678 67.957146 55.871826
v -18.228436 72.729774 63.053429
v -15.948784 73.577354 62.601784
v -17.505234 58.129898 39.294548
v -14.333633 41.233154 25.220627
v -18.913136 15.194778 19.156204
v -26.176939 36.461243 29.359318
v -28.127556 53.647400 43.098640
v -17.535927 73.819214 62.118286
v -19.965115 70.195351 53.923882
v -23.143368 56.792892 39.857056
v -20.416779 39.611023 25.956360
v -12.730230 18.256790 15.766422
v -6.903467 -4.803116 10.506242
v 6.562859 -2.654984 3.415111
v 19.444305 -6.275436 9.823316
v 20.659328 14.296860 13.932131
v 22.618572 61.993240 38.200806
v 16.881535 65.618652 32.586700
v 16.653786 68.925949 41.491852
v 18.414303 67.698730 43.308083
v 23.858494 49.267151 25.996326
v 22.599724 35.821091 17.925816
v 9.376503 17.900162 7.612295
v 11.856476 39.727585 11.324383
v 14.528122 53.530518 18.996178
v 18.347252 68.635399 41.843727
v 20.979416 64.052185 34.902664
v 20.785816 51.663116 21.822716
v 18.701065 37.986679 13.932724
v 16.516312 16.343033 9.786091
v 14.476372 -4.273407 5.571056
vt 0.179770 0.122636
vt 0.045373 0.122636
vt 0.045373 0.327186
vt 0.045373 0.898789
vt 0.125736 0.898789
vt 0.099784 1.000000
vt 0.072579 1.000000
vt 0.059802 0.729643
vt 0.060064 0.537057
vt 0.160249 0.327186
vt 0.166569 0.537057
vt 0.163313 0.729643
vt 0.085212 1.000000
vt 0.082690 0.898789
vt 0.107868 0.729643
vt 0.109521 0.537057
vt 0.098717 0.327186
vt 0.107782 0.122636
vt 0.107782 0.122636
vt 0.179770 0.122636
vt 0.160249 0.327186
vt 0.098717 0.327186
vt 0.166569 0.537057
vt 0.109521 0.537057
vt 0.107868 0.729643
vt 0.163313 0.729643
vt 0.082690 0.898789
vt 0.125736 0.898789
vt 0.099784 1.000000
vt 0.085212 1.000000
vt 0.045373 0.898789
vt 0.072579 1.000000
vt 0.059802 0.729643
vt 0.060064 0.537057
vt 0.045373 0.327186
vt 0.045373 0.122636
vt 0.107782 0.122636
vt 0.179770 0.122636
vt 0.160249 0.327186
vt 0.098717 0.327186
vt 0.166569 0.537057
vt 0.109521 0.537057
vt 0.107868 0.729643
vt 0.163313 0.729643
vt 0.082690 0.898789
vt 0.125736 0.898789
vt 0.099784 1.000000
vt 0.085212 1.000000
vt 0.045373 0.898789
vt 0.072579 1.000000
vt 0.059802 0.729643
vt 0.060064 0.537057
vt 0.045373 0.327186
vt 0.045373 0.122636
vt 0.107782 0.122636
vt 0.179770 0.122636
vt 0.160249 0.327186
vt 0.098717 0.327186
vt 0.166569 0.537057
vt 0.109521 0.537057
vt 0.107868 0.729643
vt 0.163313 0.729643
vt 0.082690 0.898789
vt 0.125736 0.898789
vt 0.099784 1.000000
vt 0.085212 1.000000
vt 0.045373 0.898789
vt 0.072579 1.000000
vt 0.059802 0.729643
vt 0.060064 0.537057
vt 0.045373 0.327186
vt 0.045373 0.122636
vt 0.107782 0.122636
vt 0.179770 0.122636
vt 0.160249 0.327186
vt 0.098717 0.327186
vt 0.166569 0.537057
vt 0.109521 0.537057
vt 0.107868 0.729643
vt 0.163313 0.729643
vt 0.082690 0.898789
vt 0.125736 0.898789
vt 0.099784 1.000000
vt 0.085212 1.000000
vt 0.045373 0.898789
vt 0.072579 1.000000
vt 0.059802 0.729643
vt 0.060064 0.537057
vt 0.045373 0.327186
vt 0.045373 0.122636
vn -0.180599 0.119634 -0.976254
vn -0.381709 0.102442 -0.918588
vn -0.354774 0.171432 -0.919101
vn -0.148171 0.194847 -0.969577
vn -0.316272 0.355218 -0.879655
vn -0.109208 0.381622 -0.917844
vn -0.087479 0.562981 -0.821827
vn -0.311063 0.521212 -0.794719
vn -0.109274 0.697128 -0.708570
vn -0.332943 0.649068 -0.684003
vn -0.344697 0.873117 -0.344747
vn -0.037347 0.912093 -0.408279
vn 0.214299 0.700376 -0.680845
vn 0.296922 0.852134 -0.430935
vn 0.167696 0.573711 -0.801707
vn 0.133664 0.388938 -0.911516
vn 0.090397 0.203917 -0.974806
vn 0.064907 0.133044 -0.988982
vn -0.022037 0.064027 -0.997705
vn -0.209940 0.064658 -0.975574
vn -0.177385 0.126494 -0.975978
vn 0.024206 0.136304 -0.990371
vn -0.127398 0.312606 -0.941301
vn 0.060507 0.322675 -0.944574
vn 0.101399 0.533759 -0.839536
vn -0.092837 0.528531 -0.843822
vn 0.174481 0.686810 -0.705583
vn -0.074463 0.692202 -0.717852
vn -0.106583 0.864240 -0.491660
vn 0.186062 0.867317 -0.461673
vn 0.420606 0.633132 -0.649796
vn 0.488784 0.784026 -0.382614
vn 0.347494 0.503875 -0.790796
vn 0.287267 0.316578 -0.904022
vn 0.237662 0.133117 -0.962183
vn 0.208903 0.060129 -0.976086
vn -0.171266 0.186069 -0.967495
vn -0.351630 0.166844 -0.921151
vn -0.346500 0.244144 -0.905722
vn -0.140236 0.284783 -0.948279
vn -0.349230 0.319967 -0.880715
vn -0.144582 0.381802 -0.912865
vn -0.197314 0.557115 -0.806653
vn -0.399227 0.505774 -0.764729
vn -0.197082 0.816114 -0.543246
vn -0.424639 0.751996 -0.504167
vn -0.417514 0.900213 -0.123685
vn -0.097842 0.970441 -0.220615
vn 0.120191 0.826206 -0.550397
vn 0.236271 0.926662 -0.292357
vn 0.079963 0.588112 -0.804817
vn 0.087621 0.422551 -0.902094
vn 0.084247 0.298487 -0.950688
vn 0.071709 0.201258 -0.976910
vn -0.318781 0.135836 -0.938044
vn -0.499760 0.073185 -0.863067
vn -0.529758 0.130911 -0.837985
vn -0.341799 0.212639 -0.915401
vn -0.604905 0.303799 -0.736068
vn -0.431445 0.388647 -0.814131
vn -0.477815 0.588641 -0.652070
vn -0.655185 0.499779 -0.566528
vn -0.430396 0.747221 -0.506380
vn -0.665959 0.637812 -0.386904
vn -0.659222 0.747453 -0.082097
vn -0.362291 0.902146 -0.234263
vn -0.149933 0.799189 -0.582080
vn -0.029706 0.935905 -0.350998
vn -0.214340 0.660300 -0.719765
vn -0.194903 0.468487 -0.861703
vn -0.121706 0.279360 -0.952442
vn -0.086893 0.202603 -0.975398
vn 0.500486 0.128183 -0.856202
vn 0.303335 0.156298 -0.939978
vn 0.326279 0.143200 -0.934364
vn 0.510588 0.115637 -0.852014
vn 0.389841 0.234086 -0.890634
vn 0.556510 0.199077 -0.806638
vn 0.652848 0.426495 -0.626012
vn 0.474384 0.485366 -0.734424
vn 0.706011 0.560597 -0.432758
vn 0.496847 0.653343 -0.571214
vn 0.425708 0.838311 -0.340599
vn 0.663373 0.728230 -0.172097
vn 0.876965 0.412154 -0.247107
vn 0.847939 0.529293 0.029143
vn 0.844042 0.303412 -0.442193
vn 0.759502 0.127383 -0.637911
vn 0.709435 0.076034 -0.700657
vn 0.696158 0.088946 -0.712357
s 1
g grass_long_clump_2
f 18/18/1 1/1/2 10/10/3 17/17/4
f 17/17/4 10/10/3 11/11/5 16/16/6
f 15/15/7 16/16/6 11/11/5 12/12/8
f 14/14/9 15/15/7 12/12/8 5/5/10
f 14/14/9 5/5/10 6/6/11 13/13/12
f 4/4/13 14/14/9 13/13/12 7/7/14
f 4/4/13 8/8/15 15/15/7 14/14/9
f 8/8/15 9/9/16 16/16/6 15/15/7
f 3/3/17 17/17/4 16/16/6 9/9/16
f 2/2/18 18/18/1 17/17/4 3/3/17
s 2
f 36/19/19 19/20/20 28/21/21 35/22/22
f 35/22/22 28/21/21 29/23/23 34/24/24
f 33/25/25 34/24/24 29/23/23 30/26/26
f 32/27/27 33/25/25 30/26/26 23/28/28
f 32/27/27 23/28/28 24/29/29 31/30/30
f 22/31/31 32/27/27 31/30/30 25/32/32
f 22/31/31 26/33/33 33/25/25 32/27/27
f 26/33/33 27/34/34 34/24/24 33/25/25
f 21/35/35 35/22/22 34/24/24 27/34/34
f 20/36/36 36/19/19 35/22/22 21/35/35
s 3
f 54/37/37 37/38/38 46/39/39 53/40/40
f 53/40/40 46/39/39 47/41/41 52/42/42
f 51/43/43 52/42/42 47/41/41 48/44/44
f 50/45/45 51/43/43 48/44/44 41/46/46
f 50/45/45 41/46/46 42/47/47 49/48/48
f 40/49/49 50/45/45 49/48/48 43/50/50
f 40/49/49 44/51/51 51/43/43 50/45/45
f 44/51/51 45/52/52 52/42/42 51/43/43
f 39/53/53 53/40/40 52/42/42 45/52/52
f 38/54/54 54/37/37 53/40/40 39/53/53
s 4
f 72/55/55 55/56/56 64/57/57 71/58/58
f 71/58/58 64/57/57 65/59/59 70/60/60
f 69/61/61 70/60/60 65/59/59 66/62/62
f 68/63/63 69/61/61 66/62/62 59/64/64
f 68/63/63 59/64/64 60/65/65 67/66/66
f 58/67/67 68/63/63 67/66/66 61/68/68
f 58/67/67 62/69/69 69/61/61 68/63/63
f 62/69/69 63/70/70 70/60/60 69/61/61
f 57/71/71 71/58/58 70/60/60 63/70/70
f 56/72/72 72/55/55 71/58/58 57/71/71
s 5
f 90/73/73 73/74/74 82/75/75 89/76/76
f 89/76/76 82/75/75 83/77/77 88/78/78
f 87/79/79 88/78/78 83/77/77 84/80/80
f 86/81/81 87/79/79 84/80/80 77/82/82
f 86/81/81 77/82/82 78/83/83 85/84/84
f 76/85/85 86/81/81 85/84/84 79/86/86
f 76/85/85 80/87/87 87/79/79 86/81/81
f 80/87/87 81/88/88 88/78/78 87/79/79
f 75/89/89 89/76/76 88/78/78 81/88/88
f 74/90/90 90/73/73 89/76/76 75/89/89
