# This file uses centimeters as units for non-parametric coordinates.

g default
v -7.410812 -10.287018 5.971430
v 10.096710 -8.734039 2.404812
v 8.710617 24.383453 12.172640
v -10.839249 88.844086 47.604172
v -16.780807 90.122162 38.723228
v -22.728455 92.425537 49.279663
v -22.334778 89.338837 51.159149
v 3.045593 73.699127 31.878326
v 6.055511 46.781189 24.933102
v -6.416046 23.415924 14.505768
v -6.230682 53.500916 22.511600
v -7.570984 81.061768 26.985725
v -21.501526 91.275940 50.886116
v -12.897308 90.522888 43.126640
v -0.972549 78.146851 29.081558
v 0.876129 50.510010 22.851749
v 1.421143 24.588196 11.952871
v 1.677216 -8.871887 2.893021
v -1.285370 -10.287048 10.011225
v 9.392456 -8.733978 -4.314182
v 14.867676 24.383453 3.892731
v 40.077026 72.306671 34.404091
v 31.895721 69.261658 40.697205
v 41.093750 61.171753 40.686695
v 43.847473 62.138733 38.519669
v 33.945221 68.244659 23.196571
v 20.818878 50.413635 10.414928
v 5.143234 23.415924 15.711945
v 15.625412 49.851837 23.631454
v 23.143295 68.063782 31.807083
v 42.752991 62.738892 40.240959
v 36.430603 71.972137 38.104713
v 28.075882 68.817139 26.191887
v 17.356888 50.704651 16.158821
v 9.285873 24.588196 8.586111
v 3.439804 -8.871887 1.660110
v 1.728394 -10.287048 9.498713
v -3.850769 -8.734009 -7.475010
v 6.012024 24.383423 -7.234711
v 58.123352 76.221191 0.311333
v 55.940582 85.326355 5.615715
v 65.663269 79.434052 10.176483
v 66.389526 76.319641 8.447784
v 34.461395 63.054779 -3.772358
v 17.130066 45.171967 -6.158569
v 10.089081 23.415955 7.517853
v 16.039337 54.751221 4.282722
v 33.298035 71.363312 4.563759
v 66.258881 78.423492 8.168365
v 57.316193 81.180847 1.671738
v 33.539032 66.970947 -1.525421
v 16.303253 50.490814 -2.147705
v 6.641754 24.588196 0.030813
v -2.386353 -8.871857 0.830582
v 3.580017 -8.031860 -7.563925
v -8.471130 -9.007477 -0.515738
v -14.557678 25.667969 -2.923271
v -19.108887 79.995178 -42.467407
v -11.308014 85.728973 -37.769028
v -8.967377 83.365936 -49.558113
v -11.553284 81.374420 -51.159149
v -22.349228 70.113342 -23.722900
v -17.176605 52.520782 -5.500946
v -0.478485 26.703186 -8.915039
v -4.580292 55.004913 -11.594437
v -11.039764 77.820374 -21.839203
v -11.200073 83.236481 -50.195023
v -16.332458 83.665009 -40.033058
v -17.894943 74.777374 -22.255600
v -10.979401 54.339447 -7.331085
v -7.459290 26.510986 -4.382393
v -0.445374 -8.227600 -2.990591
v 11.524353 -8.493774 -1.178953
v -5.347015 -7.885315 -7.231573
v -2.970154 26.942444 -7.946045
v 11.521912 84.255859 -27.135567
v 20.293091 81.029968 -21.799988
v 18.807220 75.122986 -32.427780
v 15.817200 76.143097 -34.226089
v 3.298859 76.787720 -19.631348
v -2.358612 54.413940 -8.630051
v 11.168579 26.558014 -2.017784
v 11.728210 55.616730 -7.187958
v 14.599762 76.266449 -11.702110
v 17.673981 76.860596 -33.478699
v 16.127899 83.985016 -24.724236
v 7.748779 76.792603 -14.737740
v 4.034027 55.208130 -6.741867
v 3.056366 27.009735 -3.834671
v 2.048767 -7.950745 -3.176458
v -12.924973 -6.352966 9.257326
v 3.799698 -9.924072 3.855577
v 8.689667 24.570129 4.554672
v 12.920227 91.184845 36.244781
v 9.283493 99.871765 31.037430
v 4.130859 98.490509 42.064316
v 5.289841 95.528351 43.824425
v 13.540726 70.408630 18.415482
v 11.895035 47.682373 8.087158
v -5.808609 27.771851 8.394470
v 3.344513 58.125885 3.637970
v 6.822784 79.260712 14.367523
v 5.943405 97.379181 43.006691
v 12.456985 95.758514 33.801971
v 12.011124 74.143921 16.192139
v 8.893127 53.075256 5.447784
v 1.616547 26.320618 4.919693
v -4.322922 -8.020416 5.098635
v -7.098969 -7.760223 -7.087057
v 0.334656 -10.376709 9.023241
v -5.354034 23.355652 14.756058
v -36.336090 74.548584 31.563293
v -38.285614 73.703735 21.013672
v -43.979004 65.058014 27.562408
v -43.289764 65.275208 31.125053
v -24.352081 68.621948 30.581230
v -9.784363 49.575928 21.712772
v -10.996613 25.897522 0.724113
v -18.754883 52.435638 11.067768
v -26.586609 71.301514 17.214043
v -44.151154 66.337189 29.496857
v -37.817352 75.365387 26.639755
v -24.010956 70.352173 24.206367
v -13.017822 51.441711 16.133743
v -6.672424 25.084442 7.791840
v -1.962097 -8.661865 1.090364
vt 0.179770 0.122636
vt 0.045373 0.122636
vt 0.045373 0.327186
vt 0.045373 0.898789
vt 0.125736 0.898789
vt 0.099784 1.000000
vt 0.072579 1.000000
vt 0.059802 0.729643
vt 0.060064 0.537057
vt 0.160249 0.327186
vt 0.166569 0.537057
vt 0.163313 0.729643
vt 0.085212 1.000000
vt 0.082690 0.898789
vt 0.107868 0.729643
vt 0.109521 0.537057
vt 0.098717 0.327186
vt 0.107782 0.122636
vt 0.107782 0.122636
vt 0.179770 0.122636
vt 0.160249 0.327186
vt 0.098717 0.327186
vt 0.166569 0.537057
vt 0.109521 0.537057
vt 0.107868 0.729643
vt 0.163313 0.729643
vt 0.082690 0.898789
vt 0.125736 0.898789
vt 0.099784 1.000000
vt 0.085212 1.000000
vt 0.045373 0.898789
vt 0.072579 1.000000
vt 0.059802 0.729643
vt 0.060064 0.537057
vt 0.045373 0.327186
vt 0.045373 0.122636
vt 0.107782 0.122636
vt 0.179770 0.122636
vt 0.160249 0.327186
vt 0.098717 0.327186
vt 0.166569 0.537057
vt 0.109521 0.537057
vt 0.107868 0.729643
vt 0.163313 0.729643
vt 0.082690 0.898789
vt 0.125736 0.898789
vt 0.099784 1.000000
vt 0.085212 1.000000
vt 0.045373 0.898789
vt 0.072579 1.000000
vt 0.059802 0.729643
vt 0.060064 0.537057
vt 0.045373 0.327186
vt 0.045373 0.122636
vt 0.107782 0.122636
vt 0.179770 0.122636
vt 0.160249 0.327186
vt 0.098717 0.327186
vt 0.166569 0.537057
vt 0.109521 0.537057
vt 0.107868 0.729643
vt 0.163313 0.729643
vt 0.082690 0.898789
vt 0.125736 0.898789
vt 0.099784 1.000000
vt 0.085212 1.000000
vt 0.045373 0.898789
vt 0.072579 1.000000
vt 0.059802 0.729643
vt 0.060064 0.537057
vt 0.045373 0.327186
vt 0.045373 0.122636
vt 0.107782 0.122636
vt 0.179770 0.122636
vt 0.160249 0.327186
vt 0.098717 0.327186
vt 0.166569 0.537057
vt 0.109521 0.537057
vt 0.107868 0.729643
vt 0.163313 0.729643
vt 0.082690 0.898789
vt 0.125736 0.898789
vt 0.099784 1.000000
vt 0.085212 1.000000
vt 0.045373 0.898789
vt 0.072579 1.000000
vt 0.059802 0.729643
vt 0.060064 0.537057
vt 0.045373 0.327186
vt 0.045373 0.122636
vt 0.107782 0.122636
vt 0.179770 0.122636
vt 0.160249 0.327186
vt 0.098717 0.327186
vt 0.166569 0.537057
vt 0.109521 0.537057
vt 0.107868 0.729643
vt 0.163313 0.729643
vt 0.082690 0.898789
vt 0.125736 0.898789
vt 0.099784 1.000000
vt 0.085212 1.000000
vt 0.045373 0.898789
vt 0.072579 1.000000
vt 0.059802 0.729643
vt 0.060064 0.537057
vt 0.045373 0.327186
vt 0.045373 0.122636
vt 0.107782 0.122636
vt 0.179770 0.122636
vt 0.160249 0.327186
vt 0.098717 0.327186
vt 0.166569 0.537057
vt 0.109521 0.537057
vt 0.107868 0.729643
vt 0.163313 0.729643
vt 0.082690 0.898789
vt 0.125736 0.898789
vt 0.099784 1.000000
vt 0.085212 1.000000
vt 0.045373 0.898789
vt 0.072579 1.000000
vt 0.059802 0.729643
vt 0.060064 0.537057
vt 0.045373 0.327186
vt 0.045373 0.122636
vn -0.193429 0.259083 -0.946288
vn -0.339417 0.241860 -0.909011
vn -0.247736 0.273667 -0.929373
vn -0.081693 0.311486 -0.946733
vn 0.111452 0.251037 -0.961540
vn 0.241260 0.307875 -0.920330
vn 0.548897 0.512358 -0.660456
vn 0.379534 0.593596 -0.709646
vn 0.540369 0.836812 -0.088013
vn 0.373951 0.881386 -0.288652
vn 0.174433 0.984334 -0.025674
vn 0.265319 0.932415 0.245375
vn 0.665737 0.740093 0.095162
vn 0.337928 0.788863 0.513322
vn 0.702390 0.407331 -0.583721
vn 0.398050 0.380875 -0.834560
vn 0.098917 0.336761 -0.936380
vn -0.015286 0.271740 -0.962249
vn -0.774782 0.259083 -0.576705
vn -0.858798 0.241860 -0.451631
vn -0.868328 0.304416 -0.391583
vn -0.790618 0.313740 -0.525824
vn -0.827785 0.467492 -0.310198
vn -0.737738 0.495489 -0.458511
vn -0.522578 0.773627 -0.358349
vn -0.643835 0.737570 -0.203633
vn 0.002363 0.963255 0.268577
vn -0.187602 0.921745 0.339399
vn 0.230419 0.319241 0.919235
vn 0.459128 0.436225 0.773892
vn 0.113986 0.993481 0.001686
vn 0.656283 0.518147 0.548467
vn -0.358649 0.813643 -0.457556
vn -0.619606 0.490940 -0.612427
vn -0.672213 0.306237 -0.674054
vn -0.652585 0.271740 -0.707312
vn -0.917360 0.259084 0.302203
vn -0.863352 0.241860 0.442863
vn -0.904630 0.256331 0.340497
vn -0.938628 0.289049 0.188222
vn -0.816438 0.531813 -0.224955
vn -0.839924 0.464822 -0.280121
vn -0.396236 0.582055 -0.710077
vn -0.454289 0.675254 -0.581080
vn -0.082263 0.626025 -0.775451
vn -0.179592 0.744393 -0.643137
vn 0.574197 0.703319 -0.419094
vn 0.641797 0.479133 -0.598772
vn 0.079027 0.348000 -0.934158
vn 0.652517 0.198551 -0.731300
vn -0.271203 0.432394 -0.859933
vn -0.813350 0.437864 -0.383061
vn -0.948465 0.316426 0.016965
vn -0.953937 0.271741 0.127126
vn 0.445760 0.117249 0.887441
vn 0.629270 0.130539 0.766146
vn 0.587120 0.142480 0.796863
vn 0.411034 0.127744 0.902625
vn 0.348073 0.339951 0.873658
vn 0.181254 0.350645 0.918801
vn -0.346892 0.673120 0.653128
vn -0.146355 0.701779 0.697199
vn -0.606556 0.780164 0.153081
vn -0.402084 0.874486 0.271298
vn -0.211962 0.957835 -0.193970
vn -0.451326 0.834867 -0.315124
vn -0.782956 0.619909 0.051900
vn -0.660421 0.627239 -0.412813
vn -0.521485 0.611824 0.594747
vn 0.007880 0.314723 0.949151
vn 0.230284 0.108027 0.967109
vn 0.240628 0.098267 0.965630
vn -0.358163 0.032131 0.933106
vn -0.210660 0.022858 0.977292
vn -0.161125 0.070451 0.984416
vn -0.312754 0.065934 0.947543
vn -0.122161 0.216833 0.968535
vn -0.292643 0.230443 0.928039
vn -0.301235 0.560666 0.771305
vn -0.114465 0.534454 0.837411
vn 0.111540 0.978790 0.171839
vn 0.239690 0.915998 0.321707
vn 0.755511 0.544764 -0.363917
vn 0.534539 0.671867 -0.512702
vn -0.177664 0.973919 0.141130
vn 0.252143 0.742275 -0.620847
vn -0.448464 0.610861 0.652479
vn -0.471774 0.217337 0.854514
vn -0.487118 0.053429 0.871701
vn -0.519326 0.041974 0.853545
vn -0.270448 0.046277 -0.961622
vn -0.418560 0.066033 -0.905785
vn -0.317894 0.029264 -0.947675
vn -0.168666 0.026123 -0.985327
vn 0.284235 0.179649 -0.941773
vn 0.325193 0.099636 -0.940384
vn 0.787407 0.274985 -0.551700
vn 0.675322 0.365980 -0.640311
vn 0.872717 0.407476 -0.268939
vn 0.760339 0.509362 -0.403032
vn 0.564104 0.762737 0.316257
vn 0.702429 0.544302 0.458616
vn 0.984495 0.174175 -0.020794
vn 0.781764 0.263639 0.565102
vn 0.912445 0.150064 -0.380690
vn 0.422472 0.064339 -0.904090
vn 0.009715 0.025293 -0.999633
vn -0.099689 0.023200 -0.994748
vn 0.911547 0.202786 -0.357715
vn 0.840531 0.214459 -0.497508
vn 0.802594 0.287767 -0.522525
vn 0.881095 0.262960 -0.393094
vn 0.739850 0.455449 -0.495165
vn 0.828567 0.441691 -0.344074
vn 0.681807 0.715672 -0.151506
vn 0.601380 0.725718 -0.334179
vn -0.082250 0.995084 0.055162
vn -0.058067 0.986949 -0.150199
vn -0.853564 0.495976 -0.159490
vn -0.820447 0.557370 0.127300
vn 0.098596 0.955088 0.279437
vn -0.708559 0.569504 0.416665
vn 0.694418 0.718237 0.043812
vn 0.903475 0.392671 -0.171879
vn 0.951269 0.216834 -0.219251
vn 0.964124 0.183861 -0.191467
s 1
g grass_long_clump_1
f 18/18/1 1/1/2 10/10/3 17/17/4
f 17/17/4 10/10/3 11/11/5 16/16/6
f 15/15/7 16/16/6 11/11/5 12/12/8
f 14/14/9 15/15/7 12/12/8 5/5/10
f 14/14/9 5/5/10 6/6/11 13/13/12
f 4/4/13 14/14/9 13/13/12 7/7/14
f 4/4/13 8/8/15 15/15/7 14/14/9
f 8/8/15 9/9/16 16/16/6 15/15/7
f 3/3/17 17/17/4 16/16/6 9/9/16
f 2/2/18 18/18/1 17/17/4 3/3/17
s 2
f 36/19/19 19/20/20 28/21/21 35/22/22
f 35/22/22 28/21/21 29/23/23 34/24/24
f 33/25/25 34/24/24 29/23/23 30/26/26
f 32/27/27 33/25/25 30/26/26 23/28/28
f 32/27/27 23/28/28 24/29/29 31/30/30
f 22/31/31 32/27/27 31/30/30 25/32/32
f 22/31/31 26/33/33 33/25/25 32/27/27
f 26/33/33 27/34/34 34/24/24 33/25/25
f 21/35/35 35/22/22 34/24/24 27/34/34
f 20/36/36 36/19/19 35/22/22 21/35/35
s 3
f 54/37/37 37/38/38 46/39/39 53/40/40
f 53/40/40 46/39/39 47/41/41 52/42/42
f 51/43/43 52/42/42 47/41/41 48/44/44
f 50/45/45 51/43/43 48/44/44 41/46/46
f 50/45/45 41/46/46 42/47/47 49/48/48
f 40/49/49 50/45/45 49/48/48 43/50/50
f 40/49/49 44/51/51 51/43/43 50/45/45
f 44/51/51 45/52/52 52/42/42 51/43/43
f 39/53/53 53/40/40 52/42/42 45/52/52
f 38/54/54 54/37/37 53/40/40 39/53/53
s 4
f 72/55/55 55/56/56 64/57/57 71/58/58
f 71/58/58 64/57/57 65/59/59 70/60/60
f 69/61/61 70/60/60 65/59/59 66/62/62
f 68/63/63 69/61/61 66/62/62 59/64/64
f 68/63/63 59/64/64 60/65/65 67/66/66
f 58/67/67 68/63/63 67/66/66 61/68/68
f 58/67/67 62/69/69 69/61/61 68/63/63
f 62/69/69 63/70/70 70/60/60 69/61/61
f 57/71/71 71/58/58 70/60/60 63/70/70
f 56/72/72 72/55/55 71/58/58 57/71/71
s 5
f 90/73/73 73/74/74 82/75/75 89/76/76
f 89/76/76 82/75/75 83/77/77 88/78/78
f 87/79/79 88/78/78 83/77/77 84/80/80
f 86/81/81 87/79/79 84/80/80 77/82/82
f 86/81/81 77/82/82 78/83/83 85/84/84
f 76/85/85 86/81/81 85/84/84 79/86/86
f 76/85/85 80/87/87 87/79/79 86/81/81
f 80/87/87 81/88/88 88/78/78 87/79/79
f 75/89/89 89/76/76 88/78/78 81/88/88
f 74/90/90 90/73/73 89/76/76 75/89/89
s 6
f 108/91/91 91/92/92 100/93/93 107/94/94
f 107/94/94 100/93/93 101/95/95 106/96/96
f 105/97/97 106/96/96 101/95/95 102/98/98
f 104/99/99 105/97/97 102/98/98 95/100/100
f 104/99/99 95/100/100 96/101/101 103/102/102
f 94/103/103 104/99/99 103/102/102 97/104/104
f 94/103/103 98/105/105 105/97/97 104/99/99
f 98/105/105 99/106/106 106/96/96 105/97/97
f 93/107/107 107/94/94 106/96/96 99/106/106
f 92/108/108 108/91/91 107/94/94 93/107/107
s 7
f 126/109/109 109/110/110 118/111/111 125/112/112
f 125/112/112 118/111/111 119/113/113 124/114/114
f 123/115/115 124/114/114 119/113/113 120/116/116
f 122/117/117 123/115/115 120/116/116 113/118/118
f 122/117/117 113/118/118 114/119/119 121/120/120
f 112/121/121 122/117/117 121/120/120 115/122/122
f 112/121/121 116/123/123 123/115/115 122/117/117
f 116/123/123 117/124/124 124/114/114 123/115/115
f 111/125/125 125/112/112 124/114/114 117/124/124
f 110/126/126 126/109/109 125/112/112 111/125/125
