# This file uses centimeters as units for non-parametric coordinates.

g default
v -9.409400 -0.382996 4.104340
v -9.029199 17.683151 8.269730
v -6.786725 21.810440 9.972633
v 0.000001 0.000000 0.000004
v -5.446340 21.651764 6.720253
v -5.844344 18.794312 4.783836
v -4.547709 14.177689 2.755554
v -0.690915 11.098267 0.019703
v -4.416174 19.698990 5.176567
v -2.048857 26.757828 10.185471
v 0.329182 29.550095 11.647896
v 2.815721 29.537491 11.527367
v 3.342034 24.150253 5.713737
v 5.267892 18.709824 3.726692
v 3.776340 14.103943 1.916862
v 6.550805 16.442215 2.754463
v 10.305211 14.884460 6.080841
v 9.347425 20.967682 6.823692
v 9.851461 18.180801 7.526436
v -0.488376 14.544250 1.232666
v 0.261959 19.789001 3.194305
v 0.209630 26.185349 7.257385
v 1.566655 30.175613 11.267769
v 1.613132 12.626968 0.911495
v 4.846806 -0.277237 1.284031
v 5.786858 1.440887 1.600502
v 10.182660 8.004654 3.557610
vt 0.965303 0.701047
vt 0.965303 0.863339
vt 0.956542 0.907301
vt 0.890561 0.701047
vt 0.934829 0.891648
vt 0.933058 0.862072
vt 0.922251 0.821076
vt 0.895380 0.790513
vt 0.924805 0.872028
vt 0.917887 0.947774
vt 0.898305 0.973023
vt 0.872459 0.973023
vt 0.869988 0.908242
vt 0.856947 0.862252
vt 0.867166 0.820949
vt 0.849425 0.841229
vt 0.815820 0.839250
vt 0.824221 0.889079
vt 0.815820 0.872140
vt 0.894708 0.821013
vt 0.890876 0.867140
vt 0.893938 0.928008
vt 0.885382 0.973023
vt 0.881273 0.805731
vt 0.854229 0.701047
vt 0.847573 0.715631
vt 0.820075 0.774358
vn -0.747191 0.506606 -0.430182
vn -0.747191 0.506606 -0.430182
vn -0.729151 0.214271 -0.649944
vn -0.729380 0.215324 -0.649338
vn 0.224188 0.695404 -0.682754
vn 0.094829 0.506799 -0.856832
vn -0.232515 0.616328 -0.752381
vn -0.038738 0.743662 -0.667433
vn -0.581593 0.143064 -0.800801
vn -0.513792 0.055238 -0.856135
vn -0.209609 0.044800 -0.976758
vn -0.188146 0.031877 -0.981624
vn -0.164223 0.451908 -0.876818
vn 0.128626 0.381900 -0.915209
vn -0.116984 0.359262 -0.925876
vn 0.341301 0.159035 -0.926403
vn 0.292507 0.093344 -0.951697
vn 0.608890 0.162418 -0.776449
vn 0.579036 0.156163 -0.800207
vn 0.771834 0.195409 -0.605052
vn 0.771834 0.195409 -0.605052
vn -0.418648 0.478348 -0.771957
vn -0.473493 0.599166 -0.645604
vn -0.500641 0.693617 -0.517933
vn 0.296060 0.045932 -0.954064
vn 0.281111 0.033320 -0.959097
vn 0.384835 0.095033 -0.918080
s 1
g frass_short_single_3
f 3/3/1 5/5/2 6/6/3 2/2/4
f 12/12/5 13/13/6 22/22/7 23/23/8
f 2/2/4 6/6/3 7/7/9 1/1/10
f 1/1/10 7/7/9 8/8/11 4/4/12
f 21/21/13 22/22/7 13/13/6 14/14/14
f 20/20/15 21/21/13 14/14/14 15/15/16
f 8/8/11 20/20/15 15/15/16 24/24/17
f 17/17/18 16/16/19 18/18/20 19/19/21
f 7/7/9 20/20/15 8/8/11
f 9/9/22 21/21/13 20/20/15 7/7/9
f 10/10/23 22/22/7 21/21/13 9/9/22
f 23/23/8 22/22/7 10/10/23 11/11/24
f 26/26/25 25/25/26 4/4/12 8/8/11 24/24/17
f 27/27/27 26/26/25 24/24/17 15/15/16
f 17/17/18 27/27/27 15/15/16 16/16/19
