# This file uses centimeters as units for non-parametric coordinates.

g default
v 17.125923 -5.353577 3.106857
v -15.932106 -5.353577 8.799698
v 17.482277 6.405045 2.482182
v 8.781731 22.118607 5.562386
v 14.795128 14.211426 2.635471
v 12.099968 20.014572 4.801655
v 7.898094 22.118607 5.344215
v 3.775627 -5.353577 -0.708542
v 8.984245 18.461945 2.710529
v 7.888588 11.715866 -0.333954
v 6.332619 8.912659 -1.063086
v -6.042686 -5.353577 0.595764
v 5.776390 13.073502 -0.275725
v 3.849617 18.110870 1.761343
v -0.678368 13.286697 -0.186618
v -5.493843 8.144379 -0.231754
v -4.379936 22.118607 5.825539
v -5.125481 14.581360 1.146960
v -5.201103 22.118607 6.097176
v -16.405632 4.734375 8.303070
v -10.614235 16.885605 4.495018
v 7.625519 -5.353577 15.266420
v -17.331619 -5.353577 -5.526757
v 7.322159 3.408005 16.794914
v -2.933868 18.439766 15.813715
v 4.302040 11.093185 16.773233
v 0.051552 16.304863 17.409283
v -3.319298 18.590630 15.003103
v 2.199265 -5.353577 2.717824
v -0.053322 15.722931 13.391626
v 2.647324 10.241959 9.073704
v 2.671738 7.927063 6.738892
v -4.934662 -5.353577 -4.123425
v 1.069901 11.737259 7.815231
v -2.481598 16.175446 8.777821
v -3.065910 12.573441 2.925123
v -5.235191 8.166153 -2.125056
v -11.361206 19.706970 5.780136
v -7.068100 13.890686 0.584450
v -12.082169 19.714844 5.302366
v -17.482277 4.207825 -5.756480
v -13.420067 15.716171 -1.137647
v -8.059196 -5.353577 12.377858
v 8.744911 -5.353577 -11.120233
v -8.090729 3.047028 13.699942
v -6.486649 19.229782 8.138010
v -7.286926 11.051743 12.905173
v -7.662300 16.791626 11.085817
v -5.748749 19.396729 7.632006
v 6.098358 -5.353577 8.486809
v -3.770493 16.067673 10.179756
v 0.602875 10.114319 11.367294
v 2.755493 7.724091 10.686316
v 11.602463 -5.353577 0.352611
v 1.655197 11.749817 9.778040
v 0.362694 16.645844 7.022055
v 5.783150 12.918350 4.949808
v 10.085564 8.630600 1.380672
v 1.965294 21.175476 -1.765396
v 7.460358 14.648346 0.775420
v 2.308144 21.257568 -2.555218
v 8.394814 6.094421 -11.097803
v 5.089951 17.211212 -4.825544
v 15.785347 -5.353577 14.375534
v -9.020996 -5.353577 -10.143509
v 16.496319 6.405045 14.267216
v 8.680893 22.118599 9.357399
v 14.708237 14.211426 12.255482
v 11.336960 20.014572 11.486881
v 8.303482 22.118591 8.529152
v 10.490379 -5.353577 1.540009
v 11.042603 18.461945 7.746037
v 12.749573 11.715866 4.997284
v 12.355461 8.912659 3.324762
v 3.373566 -5.353577 -5.348495
v 11.392891 13.073502 3.377351
v 8.599785 18.110870 3.131063
v 7.316597 13.286697 -1.628207
v 4.363045 8.144379 -5.431812
v 0.305199 22.118591 -0.798729
v 3.510704 14.581360 -4.287229
v -0.417473 22.118591 -1.273949
v -8.925529 4.734375 -10.823029
v -2.521179 16.885605 -6.512611
v 2.350380 -5.353577 -17.405809
v -12.063530 -5.353577 8.170871
v 2.953438 9.124130 -17.409271
v 2.861938 20.431961 -6.970158
v 3.076073 15.579407 -13.866459
v 3.364189 19.541443 -10.839399
v 2.259743 20.294235 -6.301733
v -9.048637 -5.353577 -13.026304
v -0.191872 18.068039 -9.545305
v -4.599854 12.633652 -12.194100
v -6.484261 9.939606 -12.151978
v -12.520668 -5.353577 -4.167403
v -5.283936 13.356705 -9.888201
v -3.481956 16.842316 -5.664389
v -8.189903 11.994949 -4.283010
v -11.449326 6.165771 -2.039956
v -3.074791 17.230911 4.335033
v -8.878181 11.690414 0.477767
v -3.224831 16.947662 5.138388
v -11.825394 -2.220810 10.076276
v -8.125504 11.403671 7.259862
vt 0.719030 0.468204
vt 0.978552 0.468204
vt 0.719030 0.513105
vt 0.771167 0.647809
vt 0.735085 0.572116
vt 0.747170 0.624656
vt 0.778949 0.647809
vt 0.816364 0.468204
vt 0.775302 0.609339
vt 0.787707 0.552336
vt 0.799030 0.531261
vt 0.885466 0.468204
vt 0.802218 0.562953
vt 0.815085 0.606033
vt 0.847623 0.564650
vt 0.880230 0.525641
vt 0.885215 0.647809
vt 0.880389 0.575153
vt 0.892610 0.647809
vt 0.978552 0.501256
vt 0.926628 0.594868
vt 0.747170 0.624656
vt 0.775302 0.609339
vt 0.778949 0.647809
vt 0.771167 0.647809
vt 0.735085 0.572116
vt 0.787707 0.552336
vt 0.719030 0.468204
vt 0.816364 0.468204
vt 0.799030 0.531261
vt 0.719030 0.513105
vt 0.802218 0.562953
vt 0.847623 0.564650
vt 0.815085 0.606033
vt 0.885466 0.468204
vt 0.880230 0.525641
vt 0.885215 0.647809
vt 0.880389 0.575153
vt 0.926628 0.594868
vt 0.892610 0.647809
vt 0.978552 0.501256
vt 0.978552 0.468204
vt 0.747170 0.624656
vt 0.775302 0.609339
vt 0.778949 0.647809
vt 0.771167 0.647809
vt 0.735085 0.572116
vt 0.787707 0.552336
vt 0.719030 0.468204
vt 0.816364 0.468204
vt 0.799030 0.531261
vt 0.719030 0.513105
vt 0.802218 0.562953
vt 0.847623 0.564650
vt 0.815085 0.606033
vt 0.885466 0.468204
vt 0.880230 0.525641
vt 0.885215 0.647809
vt 0.880389 0.575153
vt 0.926628 0.594868
vt 0.892610 0.647809
vt 0.978552 0.501256
vt 0.978552 0.468204
vt 0.747170 0.624656
vt 0.775302 0.609339
vt 0.778949 0.647809
vt 0.771167 0.647809
vt 0.735085 0.572116
vt 0.787707 0.552336
vt 0.719030 0.468204
vt 0.816364 0.468204
vt 0.799030 0.531261
vt 0.719030 0.513105
vt 0.802218 0.562953
vt 0.847623 0.564650
vt 0.815085 0.606033
vt 0.885466 0.468204
vt 0.880230 0.525641
vt 0.885215 0.647809
vt 0.880389 0.575153
vt 0.926628 0.594868
vt 0.892610 0.647809
vt 0.978552 0.501256
vt 0.978552 0.468204
vt 0.747170 0.624656
vt 0.775302 0.609339
vt 0.778949 0.647809
vt 0.771167 0.647809
vt 0.735085 0.572116
vt 0.787707 0.552336
vt 0.719030 0.468204
vt 0.816364 0.468204
vt 0.799030 0.531261
vt 0.719030 0.513105
vt 0.802218 0.562953
vt 0.847623 0.564650
vt 0.815085 0.606033
vt 0.885466 0.468204
vt 0.880230 0.525641
vt 0.885215 0.647809
vt 0.880389 0.575153
vt 0.926628 0.594868
vt 0.892610 0.647809
vt 0.978552 0.501256
vt 0.978552 0.468204
vn 0.267558 0.439576 -0.857430
vn 0.272535 0.423562 -0.863898
vn 0.205965 0.608868 -0.766067
vn 0.205965 0.608868 -0.766067
vn 0.315843 0.240066 -0.917939
vn 0.326807 0.179746 -0.927841
vn 0.280737 -0.067451 -0.957412
vn 0.083468 -0.049436 -0.995283
vn 0.123765 -0.016196 -0.992179
vn 0.290086 -0.039787 -0.956173
vn -0.042019 0.171835 -0.984229
vn -0.046320 0.149832 -0.987626
vn -0.000421 0.374759 -0.927122
vn -0.390879 -0.038579 -0.919633
vn -0.394700 0.002830 -0.918806
vn -0.270055 0.526667 -0.806035
vn -0.551578 0.157293 -0.819159
vn -0.538695 0.179342 -0.823192
vn -0.270055 0.526667 -0.806035
vn -0.616043 -0.014190 -0.787585
vn -0.622197 -0.041901 -0.781739
vn 0.754036 0.631664 -0.180087
vn 0.764603 0.617669 -0.184031
vn 0.619137 0.774112 -0.131985
vn 0.619137 0.774112 -0.131985
vn 0.861753 0.453114 -0.228186
vn 0.885632 0.397160 -0.240667
vn 0.916205 0.091209 -0.390191
vn 0.810304 0.127212 -0.572036
vn 0.835611 0.181034 -0.518634
vn 0.919872 0.133933 -0.368642
vn 0.699475 0.442901 -0.560868
vn 0.702833 0.423276 -0.571720
vn 0.650000 0.616507 -0.444319
vn 0.468424 0.118681 -0.875496
vn 0.458354 0.201178 -0.865702
vn 0.365074 0.755251 -0.544349
vn 0.247935 0.428289 -0.868963
vn 0.257101 0.452083 -0.854120
vn 0.365074 0.755251 -0.544349
vn 0.196037 0.141023 -0.970403
vn 0.187395 0.078691 -0.979128
vn 0.249630 0.404301 0.879901
vn 0.244695 0.376594 0.893477
vn 0.287293 0.681422 0.673147
vn 0.287293 0.681422 0.673147
vn 0.234174 0.165817 0.957950
vn 0.231507 0.099436 0.967738
vn 0.283855 -0.111553 0.952356
vn 0.624442 -0.002028 0.781069
vn 0.555906 0.021150 0.830976
vn 0.275282 -0.086929 0.957425
vn 0.701972 0.325674 0.633382
vn 0.711991 0.305360 0.632316
vn 0.589662 0.508756 0.627268
vn 0.979136 0.083802 0.185124
vn 0.970431 0.170646 0.170717
vn 0.787356 0.616475 0.005342
vn 0.897659 0.398934 -0.187241
vn 0.886796 0.433647 -0.159821
vn 0.787356 0.616475 0.005342
vn 0.968927 0.148763 -0.197613
vn 0.977728 0.079794 -0.194118
vn 0.838341 0.439577 -0.322423
vn 0.846502 0.423563 -0.322535
vn 0.728477 0.608870 -0.314006
vn 0.728477 0.608870 -0.314006
vn 0.915754 0.240066 -0.322122
vn 0.930324 0.179745 -0.319671
vn 0.924913 -0.067451 -0.374147
vn 0.832163 -0.049436 -0.552323
vn 0.854741 -0.016197 -0.518802
vn 0.929745 -0.039787 -0.366048
vn 0.745607 0.171834 -0.643850
vn 0.745601 0.149831 -0.649331
vn 0.726651 0.374760 -0.575789
vn 0.545743 -0.040801 -0.836959
vn 0.533791 0.020968 -0.845357
vn 0.464354 0.526669 -0.712036
vn 0.373791 0.219084 -0.901267
vn 0.379754 0.235757 -0.894542
vn 0.464354 0.526669 -0.712036
vn 0.370902 -0.003491 -0.928665
vn 0.373667 -0.047150 -0.926364
vn -0.433593 0.677811 -0.593776
vn -0.428423 0.654756 -0.622694
vn -0.450662 0.856454 -0.251773
vn -0.450662 0.856454 -0.251773
vn -0.405170 0.507916 -0.760170
vn -0.393736 0.441004 -0.806528
vn -0.416432 0.070820 -0.906404
vn -0.702079 0.124678 -0.701099
vn -0.667766 0.182262 -0.721713
vn -0.414640 0.130046 -0.900645
vn -0.837195 0.469354 -0.280733
vn -0.846273 0.449319 -0.286244
vn -0.730318 0.646148 -0.221649
vn -0.962740 0.137838 -0.232663
vn -0.967832 0.212858 -0.134140
vn -0.723532 0.681678 0.108706
vn -0.917181 0.367078 0.155026
vn -0.910281 0.384619 0.153157
vn -0.723532 0.681678 0.108706
vn -0.985223 0.154947 0.072991
vn -0.996273 0.080528 0.030920
s 1
g grass_short_clump_1
f 6/6/1 9/9/2 7/7/3 4/4/4
f 5/5/5 10/10/6 9/9/2 6/6/1
f 1/1/7 8/8/8 11/11/9 3/3/10
f 13/13/11 15/15/12 14/14/13
f 12/12/14 16/16/15 11/11/9 8/8/8
f 11/11/9 16/16/15 15/15/12 13/13/11
f 3/3/10 11/11/9 10/10/6 5/5/5
f 17/17/16 18/18/17 21/21/18 19/19/19
f 21/21/18 18/18/17 16/16/15 20/20/20
f 20/20/20 16/16/15 12/12/14 2/2/21
s 5
f 27/22/22 30/23/23 28/24/24 25/25/25
f 26/26/26 31/27/27 30/23/23 27/22/22
f 22/28/28 29/29/29 32/30/30 24/31/31
f 34/32/32 36/33/33 35/34/34
f 33/35/35 37/36/36 32/30/30 29/29/29
f 32/30/30 37/36/36 36/33/33 34/32/32
f 24/31/31 32/30/30 31/27/27 26/26/26
f 38/37/37 39/38/38 42/39/39 40/40/40
f 42/39/39 39/38/38 37/36/36 41/41/41
f 41/41/41 37/36/36 33/35/35 23/42/42
s 9
f 48/43/43 51/44/44 49/45/45 46/46/46
f 47/47/47 52/48/48 51/44/44 48/43/43
f 43/49/49 50/50/50 53/51/51 45/52/52
f 55/53/53 57/54/54 56/55/55
f 54/56/56 58/57/57 53/51/51 50/50/50
f 53/51/51 58/57/57 57/54/54 55/53/53
f 45/52/52 53/51/51 52/48/48 47/47/47
f 59/58/58 60/59/59 63/60/60 61/61/61
f 63/60/60 60/59/59 58/57/57 62/62/62
f 62/62/62 58/57/57 54/56/56 44/63/63
s 13
f 69/64/64 72/65/65 70/66/66 67/67/67
f 68/68/68 73/69/69 72/65/65 69/64/64
f 64/70/70 71/71/71 74/72/72 66/73/73
f 76/74/74 78/75/75 77/76/76
f 75/77/77 79/78/78 74/72/72 71/71/71
f 74/72/72 79/78/78 78/75/75 76/74/74
f 66/73/73 74/72/72 73/69/69 68/68/68
f 80/79/79 81/80/80 84/81/81 82/82/82
f 84/81/81 81/80/80 79/78/78 83/83/83
f 83/83/83 79/78/78 75/77/77 65/84/84
s 17
f 90/85/85 93/86/86 91/87/87 88/88/88
f 89/89/89 94/90/90 93/86/86 90/85/85
f 85/91/91 92/92/92 95/93/93 87/94/94
f 97/95/95 99/96/96 98/97/97
f 96/98/98 100/99/99 95/93/93 92/92/92
f 95/93/93 100/99/99 99/96/96 97/95/95
f 87/94/94 95/93/93 94/90/90 89/89/89
f 101/100/100 102/101/101 105/102/102 103/103/103
f 105/102/102 102/101/101 100/99/99 104/104/104
f 104/104/104 100/99/99 96/98/98 86/105/105
