# This file uses centimeters as units for non-parametric coordinates.

g default
v 17.730530 0.000000 3.728821
v -16.890854 0.000000 7.959488
v 18.086884 6.405045 3.104146
v 9.386337 22.118591 6.184364
v 15.399734 14.211426 3.257435
v 12.704575 20.014572 5.423618
v 8.502701 22.118591 5.966194
v 4.380234 0.000000 -0.086578
v 9.588852 18.461945 3.332493
v 8.493195 11.715866 0.288010
v 6.937225 8.912659 -0.441122
v -5.438080 0.000000 1.217728
v 6.380997 13.073502 0.346238
v 4.454224 18.110870 2.383307
v -0.073761 13.286697 0.435346
v -4.889236 8.144379 0.390209
v -3.775330 22.118591 6.447517
v -4.520874 14.581360 1.768924
v -4.596497 22.118591 6.719154
v -17.364380 4.734375 7.462860
v -10.009628 16.885605 5.116966
vt 0.719030 0.468204
vt 0.978552 0.468204
vt 0.719030 0.513105
vt 0.771167 0.647809
vt 0.735085 0.572116
vt 0.747170 0.624656
vt 0.778949 0.647809
vt 0.816364 0.468204
vt 0.775302 0.609339
vt 0.787707 0.552336
vt 0.799030 0.531261
vt 0.885466 0.468204
vt 0.802218 0.562953
vt 0.815085 0.606033
vt 0.847623 0.564650
vt 0.880230 0.525641
vt 0.885215 0.647809
vt 0.880389 0.575153
vt 0.892610 0.647809
vt 0.978552 0.501256
vt 0.926628 0.594868
vn 0.267557 0.439577 -0.857430
vn 0.272535 0.423562 -0.863898
vn 0.205963 0.608872 -0.766064
vn 0.205963 0.608872 -0.766064
vn 0.315843 0.240066 -0.917939
vn 0.326807 0.179746 -0.927841
vn 0.275214 -0.113374 -0.954675
vn 0.066520 -0.079755 -0.994592
vn 0.131763 -0.025017 -0.990966
vn 0.291219 -0.060453 -0.954745
vn -0.042019 0.171835 -0.984229
vn -0.046320 0.149832 -0.987626
vn -0.000421 0.374759 -0.927122
vn -0.306997 -0.071110 -0.949050
vn -0.340904 0.030122 -0.939616
vn -0.270052 0.526670 -0.806034
vn -0.474632 0.219084 -0.852483
vn -0.465657 0.235757 -0.852984
vn -0.270052 0.526670 -0.806034
vn -0.496765 -0.004849 -0.867871
vn -0.488858 -0.086393 -0.868075
s 1
g frass_short_single_2
f 6/6/1 9/9/2 7/7/3 4/4/4
f 5/5/5 10/10/6 9/9/2 6/6/1
f 1/1/7 8/8/8 11/11/9 3/3/10
f 13/13/11 15/15/12 14/14/13
f 12/12/14 16/16/15 11/11/9 8/8/8
f 11/11/9 16/16/15 15/15/12 13/13/11
f 3/3/10 11/11/9 10/10/6 5/5/5
f 17/17/16 18/18/17 21/21/18 19/19/19
f 21/21/18 18/18/17 16/16/15 20/20/20
f 20/20/20 16/16/15 12/12/14 2/2/21
