# This file uses centimeters as units for non-parametric coordinates.

g default
v -8.082634 0.330658 -18.165062
v 5.407455 -0.694611 -15.573994
v 6.541489 29.013275 -14.057699
v 2.661957 109.991760 0.705902
v -4.687958 110.996674 -3.392326
v -3.041656 120.355118 5.422096
v -0.587692 120.005875 6.880043
v 6.308868 86.328384 -4.959648
v 7.234970 59.344604 -11.639942
v -4.803619 30.024963 -17.122847
v -3.069489 60.398895 -15.269978
v -3.449829 87.479782 -9.324089
v -1.226593 120.352051 4.949043
v -0.264740 110.656967 -2.526146
v 2.246521 87.092438 -8.475830
v 2.818008 60.027039 -14.603348
v 1.631622 29.725525 -17.018574
v -0.571991 0.000000 -18.173573
v -19.862656 7.795654 -6.722679
v -6.293091 6.823212 -12.129814
v -4.218018 28.988281 -8.562456
v -0.161346 88.244446 11.245308
v -8.765518 89.393829 12.590553
v -3.152191 95.500961 18.173592
v -0.239044 95.097412 17.777992
v 0.353241 71.085114 3.344604
v -2.132828 51.524017 -4.149380
v -16.029327 30.012115 -4.542809
v -13.242165 52.645233 -1.003105
v -10.585403 72.359879 5.771980
v -1.696823 95.558395 16.956306
v -4.308746 89.070557 10.827423
v -4.966232 72.009521 3.342804
v -7.529221 52.326721 -3.639698
v -10.066315 29.810486 -7.796373
v -12.961853 7.588196 -10.597858
v -0.935944 -0.157257 -3.921989
v 16.268463 -1.302643 1.011822
v 17.345291 26.270203 -0.200916
v 11.294983 102.540009 5.239563
v 1.938889 103.350357 -0.015190
v 3.852051 112.699493 7.664581
v 6.975220 112.423798 9.504547
v 16.281555 80.061218 2.827576
v 17.844788 54.509277 -0.704765
v 2.882217 27.296967 -5.196978
v 4.713928 55.495819 -6.050377
v 3.852203 81.058823 -3.120079
v 6.172241 112.600861 7.543579
v 7.579895 102.972931 1.618477
v 11.118530 80.596619 -1.272026
v 12.225510 55.026733 -4.340420
v 11.096664 26.830566 -3.924795
v 8.652130 -0.695190 -2.561329
v 1.656418 1.764404 -8.255180
v 13.290268 -0.381378 -6.477100
v 16.171982 17.730194 -8.239368
v 19.028687 68.784515 -6.509521
v 12.482391 70.024124 -9.180779
v 15.214005 76.192612 -4.571159
v 17.406662 75.777100 -3.622581
v 20.212677 53.444458 -7.835682
v 18.795319 36.346252 -9.503471
v 6.319580 19.559387 -10.296438
v 9.780914 38.026764 -11.907574
v 11.603989 55.059662 -10.699577
v 16.715683 75.924484 -4.852470
v 16.298218 69.319641 -8.587189
v 16.497818 54.162964 -10.105007
v 14.822311 37.101563 -11.425587
v 11.781921 18.566498 -10.165611
v 8.021332 0.607239 -8.184742
v -19.020401 -0.287628 -5.776386
v -7.141022 0.479004 -14.306206
v -8.700272 22.939240 -12.970875
v -11.920151 83.932861 0.894051
v -20.038109 83.723099 4.251289
v -14.600250 91.326447 7.810089
v -11.835083 91.390411 6.732307
v -9.876839 66.308975 -5.632866
v -10.127670 45.863159 -10.847519
v -19.233780 22.364746 -6.222740
v -20.212669 45.403015 -5.124928
v -19.995201 65.944153 -0.658386
v -13.505035 91.491959 6.267769
v -16.132759 83.972595 1.462379
v -15.130096 66.290466 -4.378052
v -15.312286 45.772400 -9.070580
v -14.260361 22.819275 -10.835167
v -13.295288 0.250793 -11.222279
v -7.984367 0.131775 -7.351738
v 2.637817 0.441345 -12.845879
v 1.435394 18.824219 -12.592943
v -2.228409 69.042557 -3.516136
v -9.190125 69.014313 -1.766838
v -5.145874 75.297150 1.539314
v -2.782440 75.302597 0.996803
v 0.029541 54.451599 -8.041897
v 0.250214 37.608185 -11.701107
v -7.885345 18.611542 -8.382740
v -8.584946 37.456116 -8.268906
v -8.742661 54.355377 -5.220638
v -4.075699 75.380753 0.419594
v -5.699921 69.114487 -3.560600
v -4.365173 54.501892 -7.654404
v -4.151855 37.614532 -10.881706
v -3.313065 18.819366 -11.527729
v -2.704651 0.379425 -11.082603
vt 0.179770 0.122636
vt 0.045373 0.122636
vt 0.045373 0.327186
vt 0.045373 0.898789
vt 0.125736 0.898789
vt 0.099784 1.000000
vt 0.072579 1.000000
vt 0.059802 0.729643
vt 0.060064 0.537057
vt 0.160249 0.327186
vt 0.166569 0.537057
vt 0.163313 0.729643
vt 0.085212 1.000000
vt 0.082690 0.898789
vt 0.107868 0.729643
vt 0.109521 0.537057
vt 0.098717 0.327186
vt 0.107782 0.122636
vt 0.107782 0.122636
vt 0.179770 0.122636
vt 0.160249 0.327186
vt 0.098717 0.327186
vt 0.166569 0.537057
vt 0.109521 0.537057
vt 0.107868 0.729643
vt 0.163313 0.729643
vt 0.082690 0.898789
vt 0.125736 0.898789
vt 0.099784 1.000000
vt 0.085212 1.000000
vt 0.045373 0.898789
vt 0.072579 1.000000
vt 0.059802 0.729643
vt 0.060064 0.537057
vt 0.045373 0.327186
vt 0.045373 0.122636
vt 0.107782 0.122636
vt 0.179770 0.122636
vt 0.160249 0.327186
vt 0.098717 0.327186
vt 0.166569 0.537057
vt 0.109521 0.537057
vt 0.107868 0.729643
vt 0.163313 0.729643
vt 0.082690 0.898789
vt 0.125736 0.898789
vt 0.099784 1.000000
vt 0.085212 1.000000
vt 0.045373 0.898789
vt 0.072579 1.000000
vt 0.059802 0.729643
vt 0.060064 0.537057
vt 0.045373 0.327186
vt 0.045373 0.122636
vt 0.107782 0.122636
vt 0.179770 0.122636
vt 0.160249 0.327186
vt 0.098717 0.327186
vt 0.166569 0.537057
vt 0.109521 0.537057
vt 0.107868 0.729643
vt 0.163313 0.729643
vt 0.082690 0.898789
vt 0.125736 0.898789
vt 0.099784 1.000000
vt 0.085212 1.000000
vt 0.045373 0.898789
vt 0.072579 1.000000
vt 0.059802 0.729643
vt 0.060064 0.537057
vt 0.045373 0.327186
vt 0.045373 0.122636
vt 0.107782 0.122636
vt 0.179770 0.122636
vt 0.160249 0.327186
vt 0.098717 0.327186
vt 0.166569 0.537057
vt 0.109521 0.537057
vt 0.107868 0.729643
vt 0.163313 0.729643
vt 0.082690 0.898789
vt 0.125736 0.898789
vt 0.099784 1.000000
vt 0.085212 1.000000
vt 0.045373 0.898789
vt 0.072579 1.000000
vt 0.059802 0.729643
vt 0.060064 0.537057
vt 0.045373 0.327186
vt 0.045373 0.122636
vt 0.107782 0.122636
vt 0.179770 0.122636
vt 0.160249 0.327186
vt 0.098717 0.327186
vt 0.166569 0.537057
vt 0.109521 0.537057
vt 0.107868 0.729643
vt 0.163313 0.729643
vt 0.082690 0.898789
vt 0.125736 0.898789
vt 0.099784 1.000000
vt 0.085212 1.000000
vt 0.045373 0.898789
vt 0.072579 1.000000
vt 0.059802 0.729643
vt 0.060064 0.537057
vt 0.045373 0.327186
vt 0.045373 0.122636
vn 0.223551 0.026708 -0.974326
vn 0.008496 0.036168 -0.999310
vn 0.035110 0.050408 -0.998111
vn 0.262831 0.043256 -0.963872
vn 0.101426 0.138405 -0.985168
vn 0.339659 0.133297 -0.931055
vn 0.417680 0.237929 -0.876889
vn 0.158219 0.234403 -0.959178
vn 0.441863 0.344382 -0.828347
vn 0.160602 0.347869 -0.923685
vn 0.083312 0.645835 -0.758917
vn 0.472757 0.601134 -0.644313
vn 0.721385 0.308945 -0.619804
vn 0.767516 0.467641 -0.438442
vn 0.652835 0.223010 -0.723928
vn 0.577662 0.118003 -0.807702
vn 0.495797 0.030873 -0.867890
vn 0.456199 0.014372 -0.889762
vn -0.332490 0.165844 -0.928411
vn -0.473668 0.168618 -0.864411
vn -0.455455 0.183656 -0.871109
vn -0.302918 0.182965 -0.935289
vn -0.402675 0.272447 -0.873857
vn -0.236840 0.272996 -0.932405
vn -0.158269 0.377132 -0.912536
vn -0.350088 0.366223 -0.862160
vn -0.120407 0.480364 -0.868765
vn -0.325079 0.471191 -0.819940
vn -0.273431 0.744699 -0.608818
vn 0.007851 0.719408 -0.694544
vn 0.155629 0.456472 -0.876021
vn 0.302655 0.625240 -0.719357
vn 0.053153 0.370496 -0.927312
vn -0.041140 0.262488 -0.964058
vn -0.124431 0.174519 -0.976760
vn -0.158944 0.157641 -0.974621
vn 0.293633 -0.067889 -0.953504
vn 0.142490 -0.063632 -0.987749
vn 0.161988 -0.048872 -0.985582
vn 0.322483 -0.050156 -0.945246
vn 0.211316 0.041471 -0.976538
vn 0.379223 0.043763 -0.924270
vn 0.436764 0.156149 -0.885920
vn 0.252221 0.139763 -0.957523
vn 0.447390 0.269281 -0.852836
vn 0.253553 0.253132 -0.933614
vn 0.186201 0.569180 -0.800852
vn 0.461367 0.550494 -0.695771
vn 0.671889 0.268433 -0.690297
vn 0.707134 0.479137 -0.519989
vn 0.614879 0.164854 -0.771198
vn 0.554492 0.043696 -0.831041
vn 0.489878 -0.051830 -0.870249
vn 0.459888 -0.070778 -0.885152
vn 0.149426 -0.133805 -0.979677
vn -0.003272 -0.111027 -0.993812
vn 0.018022 -0.098859 -0.994938
vn 0.181114 -0.119720 -0.976148
vn 0.078969 -0.015439 -0.996758
vn 0.251427 -0.033360 -0.967301
vn 0.327204 0.071719 -0.942228
vn 0.133993 0.077249 -0.987967
vn 0.356247 0.183458 -0.916205
vn 0.152675 0.190154 -0.969810
vn 0.143981 0.516085 -0.844349
vn 0.426474 0.465053 -0.775787
vn 0.599043 0.158385 -0.784896
vn 0.683216 0.367740 -0.630859
vn 0.519052 0.060696 -0.852585
vn 0.436441 -0.053351 -0.898150
vn 0.355690 -0.140827 -0.923933
vn 0.321819 -0.156167 -0.933833
vn -0.563606 -0.004535 -0.826032
vn -0.683925 -0.018778 -0.729311
vn -0.671070 -0.001704 -0.741392
vn -0.540378 0.016525 -0.841260
vn -0.638870 0.093945 -0.763557
vn -0.494449 0.116354 -0.861384
vn -0.435472 0.234136 -0.869221
vn -0.604503 0.196132 -0.772080
vn -0.409597 0.346785 -0.843783
vn -0.591577 0.308068 -0.745071
vn -0.547447 0.609266 -0.573669
vn -0.294198 0.623229 -0.724592
vn -0.143520 0.370424 -0.917708
vn -0.000467 0.579342 -0.815085
vn -0.236097 0.262564 -0.935584
vn -0.313191 0.136287 -0.939860
vn -0.378195 0.034337 -0.925089
vn -0.407272 0.012101 -0.913227
vn -0.437292 -0.030728 -0.898794
vn -0.570576 -0.040667 -0.820237
vn -0.555899 -0.024126 -0.830900
vn -0.411848 -0.010387 -0.911194
vn -0.519687 0.070443 -0.851448
vn -0.362303 0.088343 -0.927864
vn -0.301426 0.205373 -0.931109
vn -0.483239 0.172027 -0.858421
vn -0.278204 0.318697 -0.906110
vn -0.473062 0.284779 -0.833735
vn -0.450820 0.591688 -0.668332
vn -0.178143 0.598507 -0.781060
vn -0.003943 0.337888 -0.941178
vn 0.125093 0.549439 -0.826117
vn -0.094192 0.230065 -0.968606
vn -0.171322 0.104227 -0.979686
vn -0.238984 0.003309 -0.971018
vn -0.269741 -0.018290 -0.962759
s 1
g grass_long_clump_3
f 18/18/1 1/1/2 10/10/3 17/17/4
f 17/17/4 10/10/3 11/11/5 16/16/6
f 15/15/7 16/16/6 11/11/5 12/12/8
f 14/14/9 15/15/7 12/12/8 5/5/10
f 14/14/9 5/5/10 6/6/11 13/13/12
f 4/4/13 14/14/9 13/13/12 7/7/14
f 4/4/13 8/8/15 15/15/7 14/14/9
f 8/8/15 9/9/16 16/16/6 15/15/7
f 3/3/17 17/17/4 16/16/6 9/9/16
f 2/2/18 18/18/1 17/17/4 3/3/17
s 2
f 36/19/19 19/20/20 28/21/21 35/22/22
f 35/22/22 28/21/21 29/23/23 34/24/24
f 33/25/25 34/24/24 29/23/23 30/26/26
f 32/27/27 33/25/25 30/26/26 23/28/28
f 32/27/27 23/28/28 24/29/29 31/30/30
f 22/31/31 32/27/27 31/30/30 25/32/32
f 22/31/31 26/33/33 33/25/25 32/27/27
f 26/33/33 27/34/34 34/24/24 33/25/25
f 21/35/35 35/22/22 34/24/24 27/34/34
f 20/36/36 36/19/19 35/22/22 21/35/35
s 3
f 54/37/37 37/38/38 46/39/39 53/40/40
f 53/40/40 46/39/39 47/41/41 52/42/42
f 51/43/43 52/42/42 47/41/41 48/44/44
f 50/45/45 51/43/43 48/44/44 41/46/46
f 50/45/45 41/46/46 42/47/47 49/48/48
f 40/49/49 50/45/45 49/48/48 43/50/50
f 40/49/49 44/51/51 51/43/43 50/45/45
f 44/51/51 45/52/52 52/42/42 51/43/43
f 39/53/53 53/40/40 52/42/42 45/52/52
f 38/54/54 54/37/37 53/40/40 39/53/53
s 4
f 72/55/55 55/56/56 64/57/57 71/58/58
f 71/58/58 64/57/57 65/59/59 70/60/60
f 69/61/61 70/60/60 65/59/59 66/62/62
f 68/63/63 69/61/61 66/62/62 59/64/64
f 68/63/63 59/64/64 60/65/65 67/66/66
f 58/67/67 68/63/63 67/66/66 61/68/68
f 58/67/67 62/69/69 69/61/61 68/63/63
f 62/69/69 63/70/70 70/60/60 69/61/61
f 57/71/71 71/58/58 70/60/60 63/70/70
f 56/72/72 72/55/55 71/58/58 57/71/71
s 5
f 90/73/73 73/74/74 82/75/75 89/76/76
f 89/76/76 82/75/75 83/77/77 88/78/78
f 87/79/79 88/78/78 83/77/77 84/80/80
f 86/81/81 87/79/79 84/80/80 77/82/82
f 86/81/81 77/82/82 78/83/83 85/84/84
f 76/85/85 86/81/81 85/84/84 79/86/86
f 76/85/85 80/87/87 87/79/79 86/81/81
f 80/87/87 81/88/88 88/78/78 87/79/79
f 75/89/89 89/76/76 88/78/78 81/88/88
f 74/90/90 90/73/73 89/76/76 75/89/89
s 6
f 108/91/91 91/92/92 100/93/93 107/94/94
f 107/94/94 100/93/93 101/95/95 106/96/96
f 105/97/97 106/96/96 101/95/95 102/98/98
f 104/99/99 105/97/97 102/98/98 95/100/100
f 104/99/99 95/100/100 96/101/101 103/102/102
f 94/103/103 104/99/99 103/102/102 97/104/104
f 94/103/103 98/105/105 105/97/97 104/99/99
f 98/105/105 99/106/106 106/96/96 105/97/97
f 93/107/107 107/94/94 106/96/96 99/106/106
f 92/108/108 108/91/91 107/94/94 93/107/107
