# This file uses centimeters as units for non-parametric coordinates.

g default
v 3.234228 13.080523 4.445494
v -7.468742 0.583763 1.282228
v -4.029816 7.529125 3.143220
v 5.613203 -7.835678 -0.973754
v 8.118002 5.453365 2.587037
v -3.792782 -12.889664 -4.579590
v 0.049356 1.592464 -0.699097
vt 0.790614 0.715652
vt 0.801792 0.852146
vt 0.725896 0.779428
vt 0.724522 0.653789
vt 0.670253 0.726115
vt 0.727554 0.930996
vt 0.655947 0.802850
vn 0.238678 0.290015 -0.926781
vn 0.030241 0.296910 -0.954427
vn 0.045948 0.397640 -0.916390
vn -0.213087 0.423459 -0.880498
vn 0.271076 0.187474 -0.944125
vn 0.057960 0.244010 -0.968039
vn -0.281846 0.333796 -0.899524
s 1
g weed_leaf_1
f 5/1/1 7/3/2 1/4/3
f 1/4/3 7/3/2 3/5/4
f 7/3/2 4/2/5 6/6/6
f 2/7/7 7/3/2 6/6/6
f 5/1/1 4/2/5 7/3/2
f 3/5/4 7/3/2 2/7/7
