# This file uses centimeters as units for non-parametric coordinates.

g default
v -0.993068 -11.139366 -4.017975
v 3.859875 -7.683735 -1.459679
v 5.502225 5.239894 2.003212
v -5.226987 2.455877 1.257240
v -5.599842 -4.963909 -0.730889
v 3.227476 10.561059 3.863004
v 0.461332 -3.483379 -1.966553
vt 0.526200 0.820064
vt 0.484100 0.791539
vt 0.472056 0.641926
vt 0.507823 0.689335
vt 0.413634 0.743795
vt 0.490432 0.870204
vt 0.429577 0.817405
vn 0.143466 0.340045 -0.929401
vn 0.046235 0.292767 -0.955066
vn -0.039946 0.389761 -0.920049
vn -0.128106 0.375543 -0.917909
vn -0.012119 0.260948 -0.965277
vn 0.366161 0.186242 -0.911724
vn -0.256543 0.277568 -0.925820
s 1
g weed_leaf_2
f 3/4/1 7/2/2 6/3/3
f 7/2/2 4/5/4 6/3/3
f 1/6/5 7/2/2 2/1/6
f 1/6/5 5/7/7 7/2/2
f 2/1/6 7/2/2 3/4/1
f 7/2/2 5/7/7 4/5/4
