# This file uses centimeters as units for non-parametric coordinates.

g default
v -21.457306 -2.355911 21.457306
v 0.000000 0.000000 27.266281
v 21.457306 -2.355911 21.457306
v -27.266296 0.000000 0.000000
v 0.000000 2.473183 -0.000008
v 27.266296 0.000000 0.000000
v -21.457306 -2.355911 -21.457329
v 0.000000 0.000000 -27.266304
v 21.457306 -2.355911 -21.457329
vt 0.061298 0.551570
vt 0.254671 0.501296
vt 0.254671 0.744944
vt 0.011024 0.744944
vt 0.448045 0.551570
vt 0.498319 0.744944
vt 0.254671 0.988591
vt 0.061298 0.938317
vt 0.448045 0.938317
vn -0.111130 0.987573 0.111130
vn 0.000000 0.993728 0.111822
vn 0.000000 1.000000 -0.000000
vn -0.111822 0.993728 0.000000
vn 0.111130 0.987573 0.111130
vn 0.111822 0.993728 0.000000
vn 0.000000 0.993728 -0.111822
vn -0.111130 0.987573 -0.111130
vn 0.111130 0.987573 -0.111130
s 1
g bush_round_single_2
f 1/1/1 2/2/2 5/3/3 4/4/4
f 2/2/2 3/5/5 6/6/6 5/3/3
f 4/4/4 5/3/3 8/7/7 7/8/8
f 5/3/3 6/6/6 9/9/9 8/7/7
