# This file uses centimeters as units for non-parametric coordinates.

g default
v -30.265350 0.000000 0.306248
v -14.031586 -1.348694 26.374870
v 30.265350 0.000000 -0.597072
v 2.025024 0.000000 26.374882
v 17.038391 -1.348694 24.049065
v 18.944305 -1.348694 -26.374886
v -15.023956 -1.348694 -26.374886
v 2.361664 2.932800 -0.180651
v 2.645325 0.000000 -22.556576
vt 1.000000 0.201454
vt 0.877428 0.398283
vt 0.542968 0.194633
vt 0.756194 0.398283
vt 0.642837 0.380722
vt 0.628447 0.000000
vt 0.884921 0.000000
vt 0.753652 0.197777
vt 0.751511 0.028830
vn -0.003958 0.994055 0.108808
vn 0.000083 1.000000 -0.000082
vn -0.082043 0.996628 -0.001463
vn -0.086050 0.990573 0.106588
vn 0.095714 0.995401 -0.004013
vn 0.105656 0.988230 0.110625
vn -0.000670 0.993961 -0.109729
vn -0.077004 0.990850 -0.110847
vn 0.085622 0.990490 -0.107693
s 1
g bush_leafy_single_1
f 4/4/1 8/8/2 1/1/3 2/2/4
f 3/3/5 8/8/2 4/4/1 5/5/6
f 1/1/3 8/8/2 9/9/7 7/7/8
f 3/3/5 6/6/9 9/9/7 8/8/2
