# This file uses centimeters as units for non-parametric coordinates.

g default
v -7.721161 4.437057 -16.823412
v -1.233643 6.695831 -5.264170
v 18.440964 4.766113 -16.006748
v 5.700684 8.151703 -5.022804
v 12.232666 6.616516 -5.642071
v 14.070923 -0.090683 -27.188147
v -0.600388 -0.342911 -27.863422
v 6.379105 7.520981 -16.552509
v 6.953598 1.633881 -25.955576
v -19.383621 0.140671 -26.082375
v -23.557816 5.522522 -13.741617
v -13.945053 8.075256 -4.230406
v -5.127960 0.382294 -29.277073
v 1.886307 5.803070 -19.886915
v -2.015488 8.277451 -6.903813
v -12.606674 1.795822 -27.704966
v -10.123642 7.797470 -17.130337
v -7.449921 9.725632 -5.789826
v -14.623398 11.735199 -7.194565
v -10.593491 13.514771 -7.294120
v -12.038712 12.112305 -12.743478
v -14.965195 11.010162 -11.306446
v -9.158585 13.729034 -10.339349
v -10.765762 12.826874 -11.680911
v -12.401230 13.160553 -9.874463
v 1.095917 16.614334 2.508083
v 5.125320 15.275818 3.028748
v 4.493103 16.384918 -2.585745
v 1.364731 17.200409 -1.613354
v 7.006058 15.144409 0.235790
v 5.603775 15.836639 -1.338689
v 3.813980 16.938141 0.251451
v -16.879684 3.045822 -14.735453
v -25.934311 5.133728 0.492047
v -16.138443 3.045822 15.788824
v 2.703735 3.045822 -14.735453
v 9.148285 5.133728 -0.094485
v 0.249542 3.045822 15.788824
v -7.533157 5.133728 -14.735461
v -7.360107 8.016983 0.181526
v -7.179077 5.133728 15.788815
v 3.566406 14.822601 -15.020926
v -13.277512 14.774994 -12.577701
v -18.729935 9.705612 3.852894
v 15.376953 13.766937 -0.414186
v 8.317398 12.981384 13.237417
v -8.846527 8.822205 16.076252
v 9.165878 16.315811 -7.992447
v -1.895782 16.583176 1.168842
v -13.363937 11.219696 10.592611
v 13.229034 5.483597 -22.556635
v -3.770355 9.584000 -17.807266
v -7.218185 9.580078 0.049899
v 27.430084 5.540909 -9.071844
v 22.073288 9.607986 5.925423
v 4.665680 9.628036 11.334362
v 20.041977 7.595337 -16.159536
v 9.960999 12.475098 -5.295692
v -0.685989 11.690674 6.180408
v -2.968399 8.401382 -22.936161
v -19.748642 8.309479 -20.005527
v -24.704971 7.380432 -3.264114
v 9.255737 11.687653 -8.716810
v 2.576767 14.218658 5.099981
v -14.475449 10.130493 8.635049
v 2.811951 11.968719 -16.189814
v -8.002991 14.198425 -6.768987
v -19.166275 10.882813 3.201126
v -9.658585 9.739342 19.964722
v 2.654480 7.490463 24.873922
v 11.284027 17.581223 4.633278
v 8.249283 10.871727 20.988033
v 12.931747 11.729630 16.359005
v 0.805679 17.767441 -1.589958
v -11.075394 13.425018 6.837984
v 1.583511 16.855392 11.913818
v -3.947800 16.573685 3.875340
v 5.438705 12.487411 -3.931751
v -11.783554 10.741638 0.251868
v -15.730515 2.319962 17.627911
v 19.166046 9.862091 9.988836
v 13.224976 6.232010 24.785625
v -4.243057 0.123024 29.277073
v 11.934845 13.297440 2.839524
v 1.380402 11.202927 13.417044
v -9.505722 3.181885 24.123983
v -24.199997 3.108849 15.363859
v -11.869827 7.682945 19.744263
v -2.391953 12.790710 10.290236
v -27.430099 6.803787 1.205623
v -18.077774 14.118881 -5.532207
v -5.095016 15.882751 -1.557790
v -25.845200 6.394653 8.704496
v -15.299606 13.192657 6.497035
v -3.973297 16.003479 3.910778
v 18.053970 12.736176 0.267597
v 20.672867 8.599350 -12.639763
v -1.141541 12.882462 -17.527676
v 15.695862 9.953171 -17.479822
v 10.267136 8.875092 -21.195023
v -5.297729 14.310226 -6.087565
v 5.323807 14.282761 4.056279
v 7.802399 15.730759 -9.422454
v 0.976059 15.226456 -2.452491
vt 1.000000 0.201454
vt 0.877428 0.398283
vt 0.542968 0.194633
vt 0.756194 0.398283
vt 0.642837 0.380722
vt 0.628447 0.000000
vt 0.884921 0.000000
vt 0.753652 0.197777
vt 0.751511 0.028830
vt 0.542968 0.598294
vt 0.626923 0.407561
vt 0.760282 0.407561
vt 0.758028 0.601889
vt 0.755669 0.805210
vt 0.658895 0.805210
vt 0.882042 0.407561
vt 1.000000 0.605935
vt 0.872386 0.805210
vt 1.000000 0.378438
vt 0.955604 0.408215
vt 0.925112 0.379037
vt 0.946082 0.358354
vt 0.928518 0.455800
vt 0.898636 0.405150
vt 1.000000 0.450697
vt 1.000000 0.378438
vt 0.955604 0.408215
vt 0.925112 0.379037
vt 0.946082 0.358354
vt 0.928518 0.455800
vt 0.898636 0.405150
vt 1.000000 0.450697
vt 0.542968 0.598294
vt 0.626923 0.407561
vt 0.760282 0.407561
vt 0.758028 0.601889
vt 0.755669 0.805210
vt 0.658895 0.805210
vt 0.882042 0.407561
vt 1.000000 0.605935
vt 0.872386 0.805210
vt 0.542968 0.598294
vt 0.626923 0.407561
vt 0.760282 0.407561
vt 0.758028 0.601889
vt 0.755669 0.805210
vt 0.658895 0.805210
vt 0.882042 0.407561
vt 1.000000 0.605935
vt 0.872386 0.805210
vt 0.542968 0.598294
vt 0.626923 0.407561
vt 0.760282 0.407561
vt 0.758028 0.601889
vt 0.755669 0.805210
vt 0.658895 0.805210
vt 0.882042 0.407561
vt 1.000000 0.605935
vt 0.872386 0.805210
vt 0.542968 0.598294
vt 0.626923 0.407561
vt 0.760282 0.407561
vt 0.758028 0.601889
vt 0.755669 0.805210
vt 0.658895 0.805210
vt 0.882042 0.407561
vt 1.000000 0.605935
vt 0.872386 0.805210
vt 0.756194 0.398283
vt 0.753652 0.197777
vt 1.000000 0.201454
vt 0.877428 0.398283
vt 0.542968 0.194633
vt 0.642837 0.380722
vt 0.751511 0.028830
vt 0.884921 0.000000
vt 0.628447 0.000000
vt 0.542968 0.598294
vt 0.626923 0.407561
vt 0.760282 0.407561
vt 0.758028 0.601889
vt 0.755669 0.805210
vt 0.658895 0.805210
vt 0.882042 0.407561
vt 1.000000 0.605935
vt 0.872386 0.805210
vt 0.542968 0.598294
vt 0.626923 0.407561
vt 0.760282 0.407561
vt 0.758028 0.601889
vt 0.755669 0.805210
vt 0.658895 0.805210
vt 0.882042 0.407561
vt 1.000000 0.605935
vt 0.872386 0.805210
vt 0.756194 0.398283
vt 0.753652 0.197777
vt 1.000000 0.201454
vt 0.877428 0.398283
vt 0.542968 0.194633
vt 0.642837 0.380722
vt 0.751511 0.028830
vt 0.884921 0.000000
vt 0.628447 0.000000
vn -0.023498 0.998034 -0.058106
vn -0.002705 0.957032 -0.289970
vn -0.180430 0.931702 -0.315240
vn -0.208839 0.975475 -0.069534
vn 0.206038 0.931113 -0.300960
vn 0.224492 0.973666 -0.039726
vn 0.006092 0.866798 -0.498622
vn -0.148858 0.852600 -0.500915
vn 0.182996 0.857297 -0.481202
vn 0.087194 0.922768 -0.375362
vn 0.037157 0.859661 -0.509512
vn -0.127866 0.867101 -0.481441
vn -0.086649 0.944895 -0.315699
vn -0.039970 0.991220 -0.126039
vn 0.154754 0.973497 -0.168388
vn -0.275845 0.852571 -0.443883
vn -0.251911 0.924387 -0.286444
vn -0.212590 0.973529 -0.083940
vn -0.512147 0.828449 -0.226668
vn -0.381109 0.913622 -0.141605
vn -0.296937 0.920513 -0.253936
vn -0.397377 0.844602 -0.358802
vn -0.282744 0.959016 -0.018548
vn -0.190958 0.970868 -0.144744
vn -0.525978 0.850345 0.016132
vn 0.170728 0.985302 0.005681
vn 0.305995 0.942652 0.133321
vn 0.419868 0.905970 0.054126
vn 0.310843 0.944111 -0.109687
vn 0.396857 0.879757 0.261787
vn 0.483910 0.859726 0.163410
vn 0.134623 0.945100 0.297764
vn 0.192176 0.981261 -0.013939
vn 0.176975 0.963338 -0.201640
vn -0.004917 0.977876 -0.209127
vn -0.000196 1.000000 0.000052
vn 0.005307 0.977189 0.212304
vn 0.201226 0.957455 0.206852
vn -0.173648 0.962192 -0.209839
vn -0.176455 0.984307 0.002005
vn -0.171412 0.962522 0.210167
vn 0.028468 0.956928 0.288927
vn 0.173087 0.971895 0.159566
vn 0.063035 0.997899 0.014960
vn -0.096866 0.984239 0.147956
vn -0.247443 0.928741 0.276066
vn -0.123634 0.902632 0.412275
vn -0.043075 0.991551 -0.122360
vn -0.212932 0.976916 0.017198
vn -0.355175 0.924184 0.140484
vn 0.238145 0.970993 0.021439
vn 0.344550 0.931501 -0.116580
vn 0.221969 0.943800 -0.244889
vn 0.087895 0.991400 -0.096960
vn -0.054968 0.996616 0.061122
vn 0.091536 0.976265 0.196283
vn 0.102236 0.928584 -0.356764
vn -0.037120 0.974934 -0.219375
vn -0.184699 0.980813 -0.062389
vn -0.005846 0.999470 0.032040
vn 0.131837 0.985933 -0.102739
vn 0.013260 0.969480 -0.244812
vn -0.139532 0.984752 -0.103898
vn -0.294322 0.955064 0.035033
vn -0.164879 0.968523 0.186491
vn -0.089557 0.928347 -0.360765
vn -0.249856 0.941103 -0.227812
vn -0.392767 0.915063 -0.091613
vn 0.039747 0.848461 0.527764
vn -0.077564 0.930605 0.357713
vn -0.203846 0.866489 0.455680
vn -0.084470 0.804312 0.588173
vn 0.088493 0.965026 0.246767
vn 0.239233 0.881915 0.406195
vn -0.226262 0.957777 0.177394
vn -0.348056 0.900941 0.259157
vn -0.069362 0.995047 0.071201
vn -0.004227 0.903349 0.428886
vn 0.128587 0.946163 0.297053
vn 0.005262 0.985147 0.171633
vn -0.133602 0.942500 0.306339
vn -0.256352 0.865631 0.430078
vn -0.127513 0.833735 0.537240
vn -0.112112 0.992571 0.047263
vn -0.260533 0.945584 0.194917
vn -0.376087 0.872419 0.312161
vn -0.382884 0.913364 0.138440
vn -0.516950 0.838387 0.172829
vn -0.473781 0.814491 0.334867
vn -0.320662 0.897017 0.304198
vn -0.142329 0.952033 0.270881
vn -0.189043 0.978093 0.087159
vn -0.430786 0.779740 0.454344
vn -0.293804 0.843949 0.448808
vn -0.096791 0.900124 0.424745
vn 0.320271 0.890832 -0.322250
vn 0.165601 0.971390 -0.170226
vn 0.303600 0.951449 -0.050720
vn 0.437395 0.877705 -0.195751
vn 0.013380 0.947353 -0.319910
vn 0.152287 0.867605 -0.473360
vn -0.000685 0.999984 0.005686
vn 0.123053 0.984066 0.128345
vn -0.140217 0.981166 -0.132862
s 1
g bush_leafy_02
f 4/4/1 8/8/2 1/1/3 2/2/4
f 3/3/5 8/8/2 4/4/1 5/5/6
f 1/1/3 8/8/2 9/9/7 7/7/8
f 3/3/5 6/6/9 9/9/7 8/8/2
s 2
f 14/10/10 13/11/11 16/12/12 17/13/13
f 14/10/10 17/13/13 18/14/14 15/15/15
f 17/13/13 16/12/12 10/16/16 11/17/17
f 18/14/14 17/13/13 11/17/17 12/18/18
s 3
f 22/19/19 25/20/20 24/21/21 21/22/22
f 25/20/20 20/23/23 23/24/24 24/21/21
f 25/20/20 22/19/19 19/25/25
f 20/23/23 25/20/20 19/25/25
s 4
f 29/26/26 32/27/27 31/28/28 28/29/29
f 32/27/27 27/30/30 30/31/31 31/28/28
f 32/27/27 29/26/26 26/32/32
f 27/30/30 32/27/27 26/32/32
s 5
f 37/33/33 36/34/34 39/35/35 40/36/36
f 37/33/33 40/36/36 41/37/37 38/38/38
f 40/36/36 39/35/35 33/39/39 34/40/40
f 41/37/37 40/36/36 34/40/40 35/41/41
s 6
f 46/42/42 45/43/43 48/44/44 49/45/45
f 46/42/42 49/45/45 50/46/46 47/47/47
f 49/45/45 48/44/44 42/48/48 43/49/49
f 50/46/46 49/45/45 43/49/49 44/50/50
s 7
f 55/51/51 54/52/52 57/53/53 58/54/54
f 55/51/51 58/54/54 59/55/55 56/56/56
f 58/54/54 57/53/53 51/57/57 52/58/58
f 59/55/55 58/54/54 52/58/58 53/59/59
s 8
f 64/60/60 63/61/61 66/62/62 67/63/63
f 64/60/60 67/63/63 68/64/64 65/65/65
f 67/63/63 66/62/62 60/66/66 61/67/67
f 68/64/64 67/63/63 61/67/67 62/68/68
s 9
f 72/69/69 76/70/70 69/71/71 70/72/72
f 71/73/73 76/70/70 72/69/69 73/74/74
f 69/71/71 76/70/70 77/75/75 75/76/76
f 71/73/73 74/77/77 77/75/75 76/70/70
s 10
f 82/78/78 81/79/79 84/80/80 85/81/81
f 82/78/78 85/81/81 86/82/82 83/83/83
f 85/81/81 84/80/80 78/84/84 79/85/85
f 86/82/82 85/81/81 79/85/85 80/86/86
s 11
f 91/87/87 90/88/88 93/89/89 94/90/90
f 91/87/87 94/90/90 95/91/91 92/92/92
f 94/90/90 93/89/89 87/93/93 88/94/94
f 95/91/91 94/90/90 88/94/94 89/95/95
s 12
f 99/96/96 103/97/97 96/98/98 97/99/99
f 98/100/100 103/97/97 99/96/96 100/101/101
f 96/98/98 103/97/97 104/102/102 102/103/103
f 98/100/100 101/104/104 104/102/102 103/97/97
