# This file uses centimeters as units for non-parametric coordinates.

g default
v -22.155090 42.293045 -5.909195
v -16.612854 42.334396 -5.808456
v -18.367249 41.284119 -13.238541
v -22.450012 41.511734 -11.471970
v -14.511475 41.780930 -9.829819
v -16.663147 41.503708 -11.731979
v -18.900513 42.616302 -9.398911
v 5.946289 36.916107 -7.458694
v 11.444580 35.848984 -7.128742
v 9.815430 33.394806 -14.473984
v 5.737366 34.875595 -12.915390
v 13.590332 33.912354 -10.976913
v 11.483826 33.623535 -12.928329
v 9.286011 35.733093 -10.801498
v -16.826050 41.456528 22.798935
v -12.687317 42.425674 21.844921
v -15.552917 45.083389 16.902618
v -18.214600 43.631851 18.910259
v -11.971741 44.419830 18.605530
v -13.970093 44.790115 17.655285
v -15.152222 44.011642 19.866928
v -20.153503 47.052307 -15.373825
v -32.484619 46.295319 -0.029434
v -18.773682 48.428223 15.384686
v 10.352234 45.551224 -15.078903
v 22.349792 45.535400 -0.325577
v 9.329834 45.551224 11.939804
v -2.753540 45.057877 -15.373825
v -2.431458 52.875183 -0.342361
v -2.094360 46.433807 15.384689
v -23.261169 39.487915 -21.873795
v -44.776794 41.045517 -14.345810
v -34.023010 39.487900 6.973614
v 10.291321 39.487900 -7.612747
v 15.561646 41.045517 10.658020
v -5.945313 39.487900 18.907696
v -7.247681 41.045517 -15.067429
v -12.831055 43.196487 -1.107712
v -18.672852 41.045517 13.498062
v 12.234192 40.951874 13.053772
v 11.122314 45.727264 -8.926132
v -6.721375 44.169647 -11.208908
v -17.472107 35.597305 34.188641
v -35.800598 37.460800 29.122402
v -31.580444 44.169647 6.477367
v -1.943665 38.613312 23.140789
v -10.920105 47.878220 11.079590
v -20.311951 45.727264 -1.539749
v 22.842102 31.077133 -1.747116
v 26.758484 27.838196 -24.141405
v 2.923340 30.086334 -25.218430
v -5.759521 39.982864 20.253723
v -24.117859 42.764938 15.738876
v -21.011353 37.538925 -6.807480
v 9.280090 36.868729 8.655670
v -0.055176 38.426773 -3.161697
v -10.073120 35.701874 -15.250534
v -1.982300 44.799759 10.225861
v 16.080872 42.996994 4.268810
v 25.719543 39.431305 -12.337418
v -10.681274 45.392578 -0.834732
v -0.041504 44.162582 -15.120071
v 18.439941 39.927399 -21.593246
v -6.076721 46.243347 4.923107
v 7.624084 45.216904 -6.029434
v 21.797119 40.863190 -17.421463
v -16.877136 52.668015 -0.734787
v -10.831848 51.808060 8.972836
v 5.663818 52.668015 -1.071182
v -4.852661 52.668015 8.972839
v 0.738159 51.808060 8.106735
v 1.447876 51.808060 -10.670547
v -11.201416 51.808060 -10.670547
v -4.727295 54.538025 -0.916122
v -4.621704 52.668015 -9.248642
v -28.772278 23.095016 17.031109
v -5.486877 17.334106 29.923094
v 11.601379 24.716003 8.273479
v -35.306274 23.095032 -18.835987
v -17.972656 17.334106 -34.188644
v 6.133423 23.095032 -21.741165
v -31.890808 26.273621 -0.087111
v -12.097412 36.824844 -4.020344
v 8.612000 26.273621 -8.135664
v -33.085388 29.334030 13.557112
v -15.555481 37.673325 7.913177
v -5.569885 40.222427 -8.551315
v -41.321777 25.645996 2.347607
v -30.845215 30.854523 -11.751331
v -12.462463 37.136169 -17.931717
v -37.176575 28.706467 8.197905
v -23.871826 35.627228 -2.510853
v -9.498413 39.667770 -13.688919
v -18.341492 37.488922 14.374203
v -14.312805 30.505661 28.458298
v 0.922852 26.226120 28.211271
v -6.692017 41.619232 -0.279007
v 6.194946 41.262131 1.931347
v 10.671570 32.925186 15.949066
v -12.756958 40.603653 7.510204
v -3.421265 39.305527 14.592606
v 6.277039 32.501892 21.636932
v -2.863586 -2.612610 0.942703
v 3.483765 -2.612610 0.942703
v -5.622742 52.457825 -1.098831
v -3.361633 52.457825 -1.098831
v -5.622742 52.457825 -3.358170
v -3.361633 52.457825 -3.358170
v -2.863586 -2.612610 -5.399704
v 3.483765 -2.612610 -5.399704
v -7.023560 37.923920 -3.923782
v -7.023560 37.923920 -0.533218
v -3.630310 37.923920 -0.533218
v -3.630310 37.923920 -3.923782
v -5.189636 18.357971 -4.685226
v -5.189636 18.357971 0.228226
v -0.272400 18.357971 0.228226
v -0.272400 18.357971 -4.685226
vt 1.000000 0.450697
vt 0.928518 0.455800
vt 0.946082 0.358354
vt 1.000000 0.378438
vt 0.898636 0.405150
vt 0.925112 0.379037
vt 0.955604 0.408215
vt 1.000000 0.378438
vt 0.955604 0.408215
vt 0.925112 0.379037
vt 0.946082 0.358354
vt 0.928518 0.455800
vt 0.898636 0.405150
vt 1.000000 0.450697
vt 1.000000 0.378438
vt 0.955604 0.408215
vt 0.925112 0.379037
vt 0.946082 0.358354
vt 0.928518 0.455800
vt 0.898636 0.405150
vt 1.000000 0.450697
vt 0.542968 0.598294
vt 0.626923 0.407561
vt 0.760282 0.407561
vt 0.758028 0.601889
vt 0.755669 0.805210
vt 0.658895 0.805210
vt 0.882042 0.407561
vt 1.000000 0.605935
vt 0.872386 0.805210
vt 0.542968 0.598294
vt 0.626923 0.407561
vt 0.760282 0.407561
vt 0.758028 0.601889
vt 0.755669 0.805210
vt 0.658895 0.805210
vt 0.882042 0.407561
vt 1.000000 0.605935
vt 0.872386 0.805210
vt 0.542968 0.598294
vt 0.626923 0.407561
vt 0.760282 0.407561
vt 0.758028 0.601889
vt 0.755669 0.805210
vt 0.658895 0.805210
vt 0.882042 0.407561
vt 1.000000 0.605935
vt 0.872386 0.805210
vt 0.542968 0.598294
vt 0.626923 0.407561
vt 0.760282 0.407561
vt 0.758028 0.601889
vt 0.755669 0.805210
vt 0.658895 0.805210
vt 0.882042 0.407561
vt 1.000000 0.605935
vt 0.872386 0.805210
vt 0.542968 0.598294
vt 0.626923 0.407561
vt 0.760282 0.407561
vt 0.758028 0.601889
vt 0.755669 0.805210
vt 0.658895 0.805210
vt 0.882042 0.407561
vt 1.000000 0.605935
vt 0.872386 0.805210
vt 0.756194 0.398283
vt 0.753652 0.197777
vt 1.000000 0.201454
vt 0.877428 0.398283
vt 0.542968 0.194633
vt 0.642837 0.380722
vt 0.751511 0.028830
vt 0.884921 0.000000
vt 0.628447 0.000000
vt 0.542968 0.598294
vt 0.626923 0.407561
vt 0.760282 0.407561
vt 0.758028 0.601889
vt 0.755669 0.805210
vt 0.658895 0.805210
vt 0.882042 0.407561
vt 1.000000 0.605935
vt 0.872386 0.805210
vt 0.542968 0.598294
vt 0.626923 0.407561
vt 0.760282 0.407561
vt 0.758028 0.601889
vt 0.755669 0.805210
vt 0.658895 0.805210
vt 0.882042 0.407561
vt 1.000000 0.605935
vt 0.872386 0.805210
vt 0.542968 0.598294
vt 0.626923 0.407561
vt 0.760282 0.407561
vt 0.758028 0.601889
vt 0.755669 0.805210
vt 0.658895 0.805210
vt 0.882042 0.407561
vt 1.000000 0.605935
vt 0.872386 0.805210
vt 0.473092 0.290785
vt 0.444854 0.295186
vt 0.445123 0.064611
vt 0.473350 0.070038
vt 0.501807 0.063429
vt 0.529512 0.045055
vt 0.529247 0.271503
vt 0.501551 0.282991
vt 0.416913 0.280799
vt 0.417175 0.056974
vt 0.501210 0.574974
vt 0.472748 0.585112
vt 0.444487 0.608875
vt 0.416555 0.587395
vt 0.528888 0.578365
vt 0.500828 0.901597
vt 0.472365 0.913267
vt 0.444094 0.945336
vt 0.416169 0.917804
vt 0.528500 0.910959
vn -0.113067 0.964696 -0.237862
vn 0.009621 0.988386 -0.151658
vn 0.086564 0.969523 -0.229199
vn -0.013492 0.944084 -0.329430
vn 0.099343 0.993883 -0.048244
vn 0.172066 0.975338 -0.138239
vn -0.119464 0.992648 -0.019464
vn 0.097262 0.890242 -0.444982
vn 0.210454 0.909382 -0.358794
vn 0.276130 0.864886 -0.419194
vn 0.182117 0.841109 -0.509283
vn 0.295594 0.918876 -0.261325
vn 0.355855 0.873313 -0.332703
vn 0.092470 0.964126 -0.248818
vn -0.211093 0.865645 0.453981
vn -0.073189 0.867589 0.491866
vn -0.026716 0.906223 0.421955
vn -0.147414 0.923609 0.353858
vn 0.024544 0.827387 0.561096
vn 0.074764 0.878071 0.472653
vn -0.138974 0.784517 0.604334
vn 0.211153 0.976487 -0.043458
vn 0.171266 0.933402 -0.315324
vn 0.023250 0.957494 -0.287515
vn 0.033498 0.998905 -0.032663
vn 0.035241 0.970951 0.236669
vn 0.238510 0.917376 0.318644
vn -0.094560 0.960778 -0.260700
vn -0.097098 0.994108 -0.048179
vn -0.094905 0.979386 0.178313
vn 0.077565 0.996840 0.017160
vn 0.126521 0.985601 -0.112179
vn 0.058968 0.987691 -0.144874
vn -0.000073 1.000000 0.000073
vn -0.059799 0.987308 0.147132
vn 0.014706 0.984052 0.177272
vn -0.003349 0.984709 -0.174175
vn -0.065737 0.997429 -0.028531
vn -0.126946 0.984744 0.119013
vn -0.048028 0.930786 0.362396
vn 0.055139 0.875143 0.480713
vn 0.149012 0.904115 0.400463
vn 0.029660 0.974539 0.222247
vn -0.130457 0.991454 0.000016
vn -0.207948 0.965730 0.155316
vn 0.248916 0.919137 0.305331
vn 0.127900 0.986577 0.101522
vn -0.040270 0.984382 -0.171377
vn 0.093051 0.989085 -0.114244
vn 0.168791 0.985351 -0.024362
vn 0.244655 0.967593 -0.062504
vn 0.154137 0.972531 -0.174429
vn 0.062909 0.956181 -0.285937
vn -0.002453 0.974752 -0.223276
vn 0.309572 0.946066 -0.095516
vn 0.215665 0.951383 -0.219905
vn 0.118003 0.933993 -0.337241
vn 0.045464 0.983695 -0.174002
vn -0.021583 0.993734 -0.109663
vn 0.066509 0.997772 0.005301
vn 0.142202 0.988070 -0.059124
vn 0.217811 0.968162 -0.123374
vn 0.119696 0.962387 -0.243895
vn 0.147293 0.982701 0.112264
vn 0.228108 0.972543 0.046111
vn 0.299813 0.953883 -0.014827
vn -0.006346 0.982865 0.184217
vn -0.000013 1.000000 0.000071
vn -0.139574 0.990209 -0.002465
vn -0.144740 0.973092 0.179284
vn 0.162479 0.986691 -0.006500
vn 0.176953 0.966623 0.185277
vn -0.001128 0.982599 -0.185735
vn -0.129591 0.973862 -0.186543
vn 0.143996 0.972863 -0.181116
vn -0.075850 0.901495 -0.426090
vn -0.298302 0.886356 -0.354102
vn -0.261849 0.963393 0.057522
vn -0.000887 0.999989 -0.004658
vn 0.260426 0.962105 -0.080820
vn 0.180907 0.858814 -0.479282
vn -0.187352 0.884058 0.428184
vn 0.050077 0.920581 0.387327
vn 0.293914 0.900531 0.320404
vn -0.460014 0.878922 -0.126029
vn -0.509812 0.857476 -0.069471
vn -0.448991 0.892892 0.033927
vn -0.381898 0.923941 -0.022055
vn -0.311332 0.946707 -0.082568
vn -0.389360 0.899088 -0.200098
vn -0.377620 0.915031 0.141850
vn -0.307060 0.948152 0.081989
vn -0.236157 0.971431 0.023472
vn 0.180831 0.946041 0.268899
vn 0.010260 0.988401 0.151517
vn -0.057609 0.951929 0.300852
vn 0.101669 0.895922 0.432421
vn 0.232155 0.797014 0.557560
vn 0.351112 0.856139 0.379139
vn -0.115559 0.898097 0.424343
vn 0.048162 0.812539 0.580914
vn 0.147347 0.736432 0.660270
vn -0.731114 0.003171 0.682248
vn 0.679796 0.102945 0.726140
vn 0.719474 0.013723 0.694383
vn -0.691244 0.094505 0.716415
vn -0.691244 0.094505 -0.716415
vn 0.719474 0.013723 -0.694383
vn 0.679796 0.102945 -0.726140
vn -0.731115 0.003171 -0.682247
vn -0.713104 -0.048919 -0.699350
vn -0.713104 -0.048919 0.699350
vn 0.692181 0.147212 0.706550
vn 0.692181 0.147212 -0.706550
vn -0.673618 -0.049593 -0.737414
vn -0.673618 -0.049593 0.737414
vn 0.731806 0.153699 0.663955
vn 0.731806 0.153699 -0.663955
s 1
g bush_leafy_01
f 4/4/1 7/7/2 6/6/3 3/3/4
f 7/7/2 2/2/5 5/5/6 6/6/3
f 7/7/2 4/4/1 1/1/7
f 2/2/5 7/7/2 1/1/7
s 2
f 11/8/8 14/9/9 13/10/10 10/11/11
f 14/9/9 9/12/12 12/13/13 13/10/10
f 14/9/9 11/8/8 8/14/14
f 9/12/12 14/9/9 8/14/14
s 3
f 18/15/15 21/16/16 20/17/17 17/18/18
f 21/16/16 16/19/19 19/20/20 20/17/17
f 21/16/16 18/15/15 15/21/21
f 16/19/19 21/16/16 15/21/21
s 4
f 26/22/22 25/23/23 28/24/24 29/25/25
f 26/22/22 29/25/25 30/26/26 27/27/27
f 29/25/25 28/24/24 22/28/28 23/29/29
f 30/26/26 29/25/25 23/29/29 24/30/30
s 5
f 35/31/31 34/32/32 37/33/33 38/34/34
f 35/31/31 38/34/34 39/35/35 36/36/36
f 38/34/34 37/33/33 31/37/37 32/38/38
f 39/35/35 38/34/34 32/38/38 33/39/39
s 6
f 44/40/40 43/41/41 46/42/42 47/43/43
f 44/40/40 47/43/43 48/44/44 45/45/45
f 47/43/43 46/42/42 40/46/46 41/47/47
f 48/44/44 47/43/43 41/47/47 42/48/48
s 7
f 53/49/49 52/50/50 55/51/51 56/52/52
f 53/49/49 56/52/52 57/53/53 54/54/54
f 56/52/52 55/51/51 49/55/55 50/56/56
f 57/53/53 56/52/52 50/56/56 51/57/57
s 8
f 62/58/58 61/59/59 64/60/60 65/61/61
f 62/58/58 65/61/61 66/62/62 63/63/63
f 65/61/61 64/60/60 58/64/64 59/65/65
f 66/62/62 65/61/61 59/65/65 60/66/66
s 9
f 70/67/67 74/68/68 67/69/69 68/70/70
f 69/71/71 74/68/68 70/67/67 71/72/72
f 67/69/69 74/68/68 75/73/73 73/74/74
f 69/71/71 72/75/75 75/73/73 74/68/68
s 10
f 80/76/76 79/77/77 82/78/78 83/79/79
f 80/76/76 83/79/79 84/80/80 81/81/81
f 83/79/79 82/78/78 76/82/82 77/83/83
f 84/80/80 83/79/79 77/83/83 78/84/84
s 11
f 89/85/85 88/86/86 91/87/87 92/88/88
f 89/85/85 92/88/88 93/89/89 90/90/90
f 92/88/88 91/87/87 85/91/91 86/92/92
f 93/89/89 92/88/88 86/92/92 87/93/93
s 12
f 98/94/94 97/95/95 100/96/96 101/97/97
f 98/94/94 101/97/97 102/98/98 99/99/99
f 101/97/97 100/96/96 94/100/100 95/101/101
f 102/98/98 101/97/97 95/101/101 96/102/102
s 13
f 112/103/103 113/104/104 106/105/105 105/106/106
f 107/107/107 108/108/108 114/109/109 111/110/110
f 113/104/104 114/111/109 108/112/108 106/105/105
f 111/110/110 112/103/103 105/106/106 107/107/107
f 115/113/111 116/114/112 112/103/103 111/110/110
f 116/114/112 117/115/113 113/104/104 112/103/103
f 117/115/113 118/116/114 114/111/109 113/104/104
f 111/110/110 114/109/109 118/117/114 115/113/111
f 109/118/115 103/119/116 116/114/112 115/113/111
f 103/119/116 104/120/117 117/115/113 116/114/112
f 104/120/117 110/121/118 118/116/114 117/115/113
f 115/113/111 118/117/114 110/122/118 109/118/115
