<svg xmlns="http://www.w3.org/2000/svg" viewBox="0 0 384 512"><defs><style>.cls-1{fill:#fff;}</style></defs><g id="Calque_2" data-name="Calque 2"><g id="Capa_1" data-name="Capa 1"><path class="cls-1" d="M373.33,192h-32V149.33A149.12,149.12,0,0,0,285.16,32.7c-3.48-2.78,0,0-11.82,10.51-3.44-2.28-9.59-24.81-9.59-24.81A148.3,148.3,0,0,0,192,0C109.66,0,42.67,67,42.67,149.33V192h-32A10.66,10.66,0,0,0,0,202.67v86.67l36.4-8.51L0,312.49V469.33A42.72,42.72,0,0,0,42.67,512l90.76-3.09,7.83,3.09H299.55l12.26-12.28,1.7,12.28h27.82A42.72,42.72,0,0,0,384,469.33V202.67A10.66,10.66,0,0,0,373.33,192ZM223.94,414.82a10.69,10.69,0,0,1-10.61,11.85H170.67a10.69,10.69,0,0,1-10.61-11.85l6.73-60.51A42.19,42.19,0,0,1,149.33,320,42.72,42.72,0,0,1,192,277.33c2.69,0,0,0,7.87,5.5.87.61,3.09-4.07,3.09-4.07,1.14.3,2.26.65,3.36,1A42.74,42.74,0,0,1,234.67,320a42.19,42.19,0,0,1-17.46,34.31L221,388.69l3,3.16-1.47,10.89ZM277.33,192h-18.8l-3.83,2.87L248.32,192H234.67l-11.88,4.66L143.89,192H106.67V149.33a85.33,85.33,0,1,1,170.66,0Z"/></g></g></svg>