<svg xmlns="http://www.w3.org/2000/svg" viewBox="0 0 297.99 35.1"><defs><style>.cls-1{fill:#fff;fill-rule:evenodd;}</style></defs><g id="Calque_2" data-name="Calque 2"><g id="Calque_2-2" data-name="Calque 2"><path class="cls-1" d="M38.59,29.85c0-.19.55-.22.41.15C38.85,30.22,38.78,29.94,38.59,29.85Z"/><path class="cls-1" d="M48.91,28.89c-.19-.09-.42-.11-.4-.48.14,0,.16-.12.17-.26.25,0,.27.31.33.63C48.93,28.75,48.93,28.8,48.91,28.89Z"/><path class="cls-1" d="M56.71,27.41c.38.46.89-.37,1.31.26C57.79,28.29,56.59,28.63,56.71,27.41Z"/><path class="cls-1" d="M58.84,28c-.06-.46.25-.37.49-.37V28A.3.3,0,0,1,58.84,28Z"/><path class="cls-1" d="M83.67,28c-.46-.4.32-.54.17-1.22.25.08.28-.15.47-.15a2.58,2.58,0,0,1,0,1.11C84,27.64,84,27.87,83.67,28Z"/><path class="cls-1" d="M64.4,28c-.45-.12-.91-.26-1-1C63.83,27.27,64.4,27.24,64.4,28Z"/><path class="cls-1" d="M60.65,28c0-.46.36-.63.57-.37C61.2,28,61,28.07,60.65,28Z"/><path class="cls-1" d="M61.45,27.78c.13-.31.49-.22.84-.48C62.54,27.78,61.83,27.87,61.45,27.78Z"/><path class="cls-1" d="M12.37,27.78c-.31.09-.31-.56,0-.48Z"/><path class="cls-1" d="M69.81,27.56c0-.32.29-.26.5-.26C70.22,27.64,70.06,27.7,69.81,27.56Z"/><path class="cls-1" d="M41.63,27a7.61,7.61,0,0,1,2.12.15A1.34,1.34,0,0,1,41.63,27Z"/><path class="cls-1" d="M72.27,27.56c.31-.46.84-.57,1.15-1C74.27,27.44,73.07,27.72,72.27,27.56Z"/><path class="cls-1" d="M40,27.56c.29-.34.1-.63-.34-.52.08-.59.56,0,.84-.11a.75.75,0,0,1-.27.26A.22.22,0,0,1,40,27.56Z"/><path class="cls-1" d="M48.11,27.19c.1-.23,1.16,0,1.14.11C49.05,27.75,48.45,27.33,48.11,27.19Z"/><path class="cls-1" d="M38.43,26.82h.33C38.81,27.27,38.38,27.27,38.43,26.82Z"/><path class="cls-1" d="M59.41,26.93c-.08-.42.74-.6.74-.11C59.93,27.1,59.68,26.65,59.41,26.93Z"/><path class="cls-1" d="M60.31,26.67c.17-.31.51-.36.82-.48,0,.23.11.26.09.48C60.84,26.56,60.5,26.9,60.31,26.67Z"/><path class="cls-1" d="M25.9,24.75c0,.14-.16.08-.25.11v-.74c.3.09.47-.34.49.26A.22.22,0,0,0,25.9,24.75Z"/><path class="cls-1" d="M20.81,24.86c-.08,0-.08-.06-.08-.11-.3.05-.48.19-.74,0,.19-.68.51-.29.82-.37Z"/><path class="cls-1" d="M11.22,23.75c-.19-.34-.47.23-.64-.11C10.61,23.47,11.3,23.36,11.22,23.75Z"/><path class="cls-1" d="M7.7,22.05c-.32.09-.48-.11-.74-.11C7,21.51,7.7,21.66,7.7,22.05Z"/><path class="cls-1" d="M4.59,17.17c.44-.82,2-.51,2.54-.11C6.5,17.63,5.34,17.4,4.59,17.17Z"/><path class="cls-1" d="M22,15.22c-.25.08-.38-.09-.57-.12.17-.22,0-.57,0-.85.3,0,.25-.14.49,0C21.8,14.85,22.14,14.76,22,15.22Z"/><path class="cls-1" d="M15.57,15a.5.5,0,0,1,.82-.26C16.35,15.16,15.85,14.9,15.57,15Z"/><path class="cls-1" d="M7.53,13.26a6.6,6.6,0,0,1,3.05.25,1.21,1.21,0,0,1-1.89.12C8.38,13.82,7.47,14.22,7.53,13.26Z"/><path class="cls-1" d="M18.2,11.55a1.64,1.64,0,0,0-.75-.36C17.68,10.56,18.65,11,18.2,11.55Z"/><path class="cls-1" d="M16.71,11.44a.46.46,0,0,1-.4-.11c.06-.2.11-.4.33-.37A1.09,1.09,0,0,1,16.71,11.44Z"/><path class="cls-1" d="M12.94,11.33c.21-.51.57,0,1-.14C13.87,11.61,13.13,11.47,12.94,11.33Z"/><path class="cls-1" d="M12.21,11.33c0-.37.29-.45.4-.26S12.41,11.33,12.21,11.33Z"/><path class="cls-1" d="M10.16,11.19c0-.68.64-.17.89-.12C10.88,11.55,10.54,11.13,10.16,11.19Z"/><path class="cls-1" d="M17,10c.21,0,.36,0,.32.36S16.9,10.39,17,10Z"/><path class="cls-1" d="M32.37,10.11c.12-.29.44-.63.65-.37C32.87,10,32.72,10.17,32.37,10.11Z"/><path class="cls-1" d="M42.53,10c-.31.08-.17-.46-.42-.49,0-.25.36-.05.5-.11C42.7,9.74,42.64,9.68,42.53,10Z"/><path class="cls-1" d="M46.13,9.74c-.3.08-.29-.31-.49-.37,0-.28.36,0,.49-.14Z"/><path class="cls-1" d="M91.36,6.93c-.22-.42.33-.79.5-.37S91.42,6.62,91.36,6.93Z"/><path class="cls-1" d="M155.29,27.56c-.17.14.17.53.17.85-.59-.54-1.26.34-1.81-.26-.09,0-.05.23-.07.37a32.33,32.33,0,0,0-5.09-.11c-1-1.93-2.55.79-3.85-.26-.11.11-.15.34-.25.48a1.34,1.34,0,0,0-1.31-.11c-.19-.51-.69-.6-1-1-.33,0-.33.48-.5.7a.65.65,0,0,1-.9-.48,3.36,3.36,0,0,1-3.27.48c.36-.08.21-.76.15-1.22-.48.52-.74.83-1.14,1.22-.95-.39-2.12.63-2.71-.22-1.07.25-3.39.9-4.09-.63-1.63.85-2.88.31-4.43.63.25-.17.1-.46,0-.74a1.65,1.65,0,0,1-1.63.26c-.16.25-.25.59-.67.48-.19-.29.13-.34.17-.63a2.91,2.91,0,0,1-3.45,0c-.06-.34.12-.31.1-.59-.69-.17-.73.62-1.16.85a2.34,2.34,0,0,0-2.29.37,3.82,3.82,0,0,0-3-.37c.27-.48.25-.4.5-.85a3,3,0,0,1,.65.48c.34-.11.45-.54.59-1-1.07-1.36-1.51,1-2.71.6-.11-.14,0-.57-.17-.74-1-.14-.72,1.79-1.81,1.59V27.3c-1,.48-1.26.17-2.21-.26-.13-.22-.19-.59-.32-.85-.23,0-.54.09-.67-.11a1.92,1.92,0,0,1-.32.48c-.52-.08-1-.23-1.39.11,0,.57.64.52.32,1.11a3,3,0,0,1-.72-1.45c-.63,0-1.74-.45-2.31.12.11.68.3.65.09,1.33-.4.09-.49-.22-.91-.37-.29.12-.25.68-.72.48a.73.73,0,0,1,0-.7c-.25.08-.21-.18-.42-.15-.08.32-.31.37-.25.85a3.51,3.51,0,0,0-.9-.59c-.15,0-.05.4-.24.37-.48-.34-1-1.82-1.39-.48.22.39.19-.52.4-.15.13.66-.8.43-.65,1.11-.15-.23-.21.11-.5,0-.11-.14-.07-.54-.07-.85-1-.17-1.79,1.16-2.79,1-.15-.28.21-.51-.09-.85a.75.75,0,0,0-.25.85c-.15-.19-.53-.08-.82-.11.17-.2.14-.71.5-.59,0-.26-.23-.26-.25-.52a.8.8,0,0,0-.4.52c-.32-.18,0-.26,0-.63s-.4-.05-.57-.11c.25.48,0,.9-.17,1.44-.27.09-.29-.19-.58-.11a2.48,2.48,0,0,1,.08-1,.62.62,0,0,0-1,0c.09.37.42.37.42.85-.9.37-1.93-.34-2.78,0-.25-.29,0-.51-.08-1.11.63,1.08,1.47.11,2.21.26,0-.23-.11-.26-.1-.52-.45.4-.87.18-1.14-.34-.21.18-.55.15-.49.71-.12.4-.12-.59,0-.59-.46.08-.59-.34-1-.37,0,.59.28.8.4,1.22-.6-.23-.71,1.36-1.15.59-.13-.45.36,0,.33-.33-.94-1.51-1.91,1.33-3,.11.15-.34.54-.11.92.11.17-.22-.17-.88.07-1.22-.68-.2-2-.25-2.45.26.13.19.05.71.07,1.07a.59.59,0,0,0-.82,0c-.45-.25-.47-.48-1-.7a1.11,1.11,0,0,1,.32-.74c0-.48-.49-.17-.49-.63.3,0,.57-.05.57-.48s-.36-.25-.5-.48.23-.23.18-.63c-.42-.34-.33.46-.65.15a1.9,1.9,0,0,1-.74,2.29c.24.66.72-.08,1,.26,0,.54-.36-.17-.23.63a2.72,2.72,0,0,1-2.14-.15c-.07-.53.2-.56.16-1.08-.31-.39-.78,0-1.3-.25-.19,0-.09.34-.25.37-.07.62.4.45.33,1.11-.29.19-.36,0-.74.11,0-.57-.63-.74-.33-1.22-.38-.82-1.71,0-2.13-.48-.84.93-2-.46-2.71.48A16.09,16.09,0,0,0,68,26.33c0-.45-.07-.65-.24-.73-.35-.15-.37.17-.5.37-.63.05-1.45-.68-1.39.36-.17-.19-.29.12-.42-.25-.36.06-.36.31-.4.59-.65.23-.82-.67-1.31-.59-.27,0-.37.62-.65.74-.59.22-1.07-.46-1.74-.15a1.1,1.1,0,0,1,.92-.59c.09-.54-.17-.48-.35-.63-.22.15.14.34-.07.52-.55,0-.82.19-1.32,0a1.39,1.39,0,0,0-.49-1c-.29,0-.5,1.14-.73.37a2.63,2.63,0,0,0-.66,1.59.66.66,0,0,0-1,0c0-1-.88-.48-.82-1.48a3.88,3.88,0,0,1-1.32,0,1.61,1.61,0,0,0-.25.74c0,.37.37.29.4.63-.22.48-.72-.23-.81-.74-.48.11-.77-.06-1,.25-.15-.14-.4-.17-.32-.62-.15.43-1,.6-1.07,0-.07.2-.26.17-.25.48-1.06-.08-1.12,1.34-2.3,1.11,0-.48.34-.48.42-.85-.19-.4-.36.25-.67.11-.06.37.23.23.17.63-.85-.8-1.45-.91-3-.63a1.19,1.19,0,0,1-2,.48c-.3-.11-.07.57-.34.52s-.23-.4-.57-.26c0-.42.38-.34.34-.85-.65.2-1.72-.91-2.31-.12-.28.06-.19-.45-.49-.36-.12,0,0,.34-.15.36-1.49-.31-2.9.43-3.53-.62-.11.11-.11.4-.25.48a.73.73,0,0,1-.74-.22,37.09,37.09,0,0,1-5.16.36c-.23.18.44.43.17.71-.29.12-.33-.16-.57-.11v-.6c-1.32.2-2.9.2-4.59.34-.27.09-.35-.14-.42-.34-1.24.71-2.84.63-4.67.86-.1.28-.35.37-.5.59-.3,0-.4-.37-.65-.48-.19.14-.53.11-.57.48-.15-.06,0-.54-.32-.37-.19,0,0,.46-.1.63-.23-.34-.4.11-.65.11a.48.48,0,1,0-.82-.48c-1.35-1.14-4.13,1.33-4.59-1.22.9.14,2-.17,3.45-.12-.17.23,0,.32.08.49,1.16.06,2.06-2.13,2.95-.63.76-.65,1.49-.4,2-1.08-.15-.08-.89.15-.82-.62.62.37,1.38-.37,2.46,0-.19,1.19,1,1.51,1.57.74-.31-.57.05-.54.15-1.11.47.14-.12,1.39.67,1.22.17,0,0-.42.07-.59.59.51.21-.4.65-.74.34-.06.27.51.67.37.21-.17.36-.43.64-.51-.05-.46-.47-.4-.64-.71-.16.11-.14.45-.33.48-.19-.2-.55-.17-.66-.48-.84,1-2.06.42-3.11.59,0-.48-.17-.68-.65-.74-.27.23.21.35.08.74-1.24.29-2.71.12-4.1.63.21.22,1.05.11,1.32.11-.14,1-1.51.29-2.06.26-.52.42-1,.14-1.64.22-.21,0-.15-.39-.15-.74-.27-.05-.23.35-.42.37a.35.35,0,0,0,.32.26c-.4.62-1.22,0-1.71,0,.07-.26.17-.48.24-.74-.43-.31-1.44.11-1.88-.37a6.36,6.36,0,0,1,2.61-.22c.07-.83-.82-.71-1.22-1-.27-.48.28-.71.08-1.08-.5-.14-.16,1-.73.71,0,.26.31.12.23.51-.3,0-.38-.31-.65-.36s-.09.34-.25.36c-1.67-.36-3,.21-4.17-.88.88.26,1.93-.19,2.86-.22-.19-.91-1.64.31-1.79-.85-.21,0-.15.42-.42.37-2-.29-4.38-.12-6.38-.51.21-.29-.18-.26-.1-.71A12,12,0,0,0,0,19.5v-.62c.92-.09,1.64.5,2.71.25.09.42.47.91.32,1.33-.06-.31.53-.31.4-.11.38-.51,0-.94-.32-.74-.21-.68.36-.42.64-.62.08-.51-.11-.6-.32-.71,1.47-.94,3.32-.2,5-.51-.11-.57-.88-.14-.91-.85,1,.28,2.25-.57,2.55.51,0-.4,1.47-1.08,1.89-.14,1.5-.77,3.39.31,4.82-.49a5.37,5.37,0,0,0,.34.63c.13-.46.63-.37,1-.51.08-.46-.44-.09-.49-.37.09-.43.91-.32.82.25.53-1.25,2-.57,3-.59,0,.11-.17.08-.17.23.17.16.48.11.65.25.14-.14.1-.54.17-.74a1.07,1.07,0,0,0,1.24-.73c-.23-.29-.63-.32-.59-1-.25,0-.3.4-.48.11.08-.48.88-.45,1.22-.48-.42-.79-1.42-.37-2-.14-.21-.06-.17-.57-.32-.71-.35.31-.8.42-1,1a1.69,1.69,0,0,0-1.81.36c.13.23.38.26.66.26a1.93,1.93,0,0,1-1.81.11c.16-.2.44-.17.67-.25a30.23,30.23,0,0,0-7.15-.6c.1-.43.33-.68.75-.62-.63-1.28-3.13.08-4-1.08,1,.59,2.59-.85,3.2.37.49.08,1-.43,1.56-.37s1.14.54,1.72.59c2.57.32,4.45-.33,7-.36a1.08,1.08,0,0,1,.07.48c.67-.82,1.85-.14,2.31-1.34a2.55,2.55,0,0,0,2.69.12c0-.29-.15-.37,0-.6s.49-.08.67-.25c.09-.51-.4-.15-.33-.6.09-.17.4-.05.4-.37-.19-.53-.82-.37-1.07,0,0,.4.31.37.33.74-.25.29-1.24-.23-1,.48-.4,0-.61-.31-1-.37,0-.19.27-.11.18-.48-.42-.11-.37.48-.42.6a2.83,2.83,0,0,1-2,.37c.14-.12.22-.34.18-.74.22-.09.2.2.4.14,0-.2,0-.48.09-.48-.13-.48-.91-.26-1.07,0,.1.56.23.68,0,1.08a3.83,3.83,0,0,1-.49-1c-.82-.11-1.77.45-2.46,0-.08-.54.4-.23.4-.62-.25-.4-.76-.17-1.14-.12a1.3,1.3,0,0,1-.08-.73c4.35-.12,7.85-1.17,12-2,.19.09.39.17.42.51,1.17-1.82,3.39-.37,4.82-1,.38.85,1.3,0,1.89,0,.27,0,.17.48.42.48s0-.54.15-.6c1.58.23,3.89-.68,6.08-.74v.49c.17-.09.27-.31.4-.49.21.06.46.06.57.26.36-.34,1-.71,1.39-.14,2-.68,4.06,0,6.08-.71.12.17.38.14.5.37.38-.51.61-.14,1.29-.26a.73.73,0,0,1,.08.48c.57-1,2.06-.76,3-.73a12.37,12.37,0,0,1,3.87-.6c.11-.34.25-.39.57-.62.12,0,0,.17,0,.37.82-.26,1,.17,1.64-.48.25,0,.5,0,.57.25a6.13,6.13,0,0,1,3.18-.25c.65-.15,1.85-.54,2.31.11.32,0,0-.17.15-.37,1.32,0,2.21-.65,3.05.14.25.12.13-.28.15-.51.52,0,.4.85.92.51.11-.11.11-.39.15-.62a5,5,0,0,0,2.71,0c-.08.39.13.39.24.48s.08-.2.08-.37c.57.51,1.3-.79,1.64.14.23-.91,1.31-.25,1.81-.48.17.23,0,.23-.08.48.25-.17.23,0,.57,0,.1,0,.06-.23.08-.36,1.26-.09,2.74-.6,3.77.11.46-.23,1.17-.43,1.39.25.16,0,.06-.42.18-.48.74.37,1.39-.43,2,.34.8-.74,2.78.2,3.53-.34-.15.91.95.85,1.14.34.23,0,.08.48.35.37.49-1.22,1.77.4,2.36-.71.68.82,1.73-.68,2.21.6.28-.35.78.31.74-.37.33,0-.06.54.33.62.15-.31,0-.82.17-1.22.8.34,1.33.65,1.88-.25.61,0,.08,1,.75.85.24-.23-.25-.37-.1-.85.53.14.53-.51,1.07-.37.11.71-.31.59-.57.74.07.28.28.39.24.85,0-.66.65-.48.4-1.22,1.47-.69,3.83-1.7,5.66-.85.25-.06.19-.54.42-.63,2.48.45,5.07-.45,7.62-.11.4.05.44.14.82,0,.84-.32,1.45.17,2.37.25a26.94,26.94,0,0,0,2.7-.36c.57,0,1.11.34,1.64.36s1-.28,1.41-.25c.93.05,1.83.56,2.71,0,1.81.42,3.26.08,5.31.11.55.6,1,.31,1.56,0,0,.37.48.12.58.37.19,0,.15-.43.4-.37,0,.29.24.14.24.37,2-.51,4.08.23,6.08,0a6.85,6.85,0,0,1,2.94.14c.66-.59,1.6.28,2.13-.37a23.62,23.62,0,0,0,4.34.23,14.45,14.45,0,0,1,2.71.14c1.22.06,2.5-1,3.7-.14,1.54.14,3-.43,4.42-.11,1.33-.43,3-1,4.34,0,3.72-.71,6.9,0,10.08-.12,2.46.57,5.36-.2,8,.37.73.15,1.74-.2,2.61.37,1.68-.57,3.53.12,5.09.23,1.22.11,2.52-.71,3.45.11,1.14-.56,2.53.14,3.6.37.15,0,.06-.4.25-.37a21.61,21.61,0,0,0,6.23.74c.19,0,.19.28.32.37,2.71-.6,5.89,1,8.69.74.76-.06,1.39-.35,2,.25a6.18,6.18,0,0,1,3.28,0c1,.23,1.77-.76,2.38,0,.63-.4,1.37.06,2-.14.29-.09.14.45.33.48s.21-.34.34-.48c.74.17,1.35.48,2.29.74.3-.32.87-.23,1.39-.26a1.44,1.44,0,0,0,.49-.34,21.26,21.26,0,0,1,5.57,1c1.33-.12,3.18-.57,4.68,0a.77.77,0,0,1,1.22.11c.23,0,.34-.23.58-.23,1.58.77,3.52,0,5.25.74,3.07-.6,6.21-.09,10.08-.14.14.25.36.34.48.62.44-.65,1-.34,1.56-.37,1.3-.11,2.78-.48,4-.11.38.09.5.57.82.48.14,0,.23-.34.4-.37a9.47,9.47,0,0,1,2.38,0,.82.82,0,0,1,.08.48c1.81-.68,4.72.8,6.8.12.42-.12.74-.57,1.07-.6a6.15,6.15,0,0,1,1.73.11,11.77,11.77,0,0,1,2.94,1.11,5.83,5.83,0,0,1,3.52.85c5.62,0,10.63,3.26,15.34,6-.06.48-.17.91.25.6-.25.48-.78.53-.82,1.33.06.51.51.45.48,1.11-.23.22-.73,0-.9.36a6.2,6.2,0,0,0,.17,1.59c-.15.12-.21.34-.49.26.61.51-.35,1.3.24,1.7,0,.31-.17.31-.32.37.21.57.08,1.67.32,2.18-.44.83-1.77,2.1-.74,3.29,0,.29-.25.29-.32.48a3.82,3.82,0,0,1,.57,2.44.9.9,0,0,0-.5.89c-.26.34-.57.08-.82.22-.64.37-.7,1.48-1.46,1.7a3.29,3.29,0,0,1-.18,1.11c-.38.11-.85.11-1,.63s.35.19.25.7c-1.07.12-1.68-.22-2.72.14-.12-.08,0-.48-.16-.5A1.16,1.16,0,0,1,288,34c-.25.25-.35.34-.25.87-3.7.43-7.45-.22-11.4-.14-.76,0-1.56.37-2.36.37-4.46,0-9.64-.6-14.19-.37-.37,0-.69.23-1.07-.23a1.86,1.86,0,0,1-2.29.12c-.84.39-2.38.37-2.88-.26-.17.17-.3.34-.47.51a5.09,5.09,0,0,1-1.57-.37c-.24,0-.36.26-.57.37-4.23-.31-7-.25-11.22-.51-.15,0-.15-.36-.25-.48-.3-.11-.26.26-.42.37-.55-.25-.93.2-1.46-.37-.1,0-.06.26-.17.26a50.2,50.2,0,0,1-9.19-.85c-.25.08-.72.14-.57-.26a21,21,0,0,1-7.87,0,25.1,25.1,0,0,1-4.59,0,2.24,2.24,0,0,0-.57-.37,4.21,4.21,0,0,1-3.53-.48c-.4,0-.72.51-1-.11-1.85.5-4.08.08-6.31-.26-1.66-.25-3.31.2-4.59-1-.23-.06-.07.45-.25.48-.55-.09-1.71-.4-2.28-.48-1.28.53-2.5-.15-3.53-.26a7,7,0,0,1-3,0c0-.37.27-.34.18-.85-.63-.65-1.53-.23-2.06-1.11-1.34.46-3.55.77-4.25-.48a2.5,2.5,0,0,0-.82.63c-.48,0-.67-.21-.92.22-.89-.62-2.21.45-2.61-.74-.24,0-.3.29-.42.52-.59-.23-.72-.52-1.31-.63-.27,0-.23.37-.4.48s-.3-.11-.5-.11c-1.16.85-3-.71-4.51-.48-.63.08-.78.31-1.47.11-1.64-.51-3.54,0-5.16.26-.56-.74-1.32-.4-2-.85-.17.08-.23.31-.25.59-.72-.45-1,.6-1.73-.26-.23.12-.29.46-.58.52-.43-.26-.7-.74-1.22-.85-.3.25-.66.48-1,.7-.2-.14-.35-.37-.58-.48C157.52,29,155.77,28.23,155.29,27.56ZM132,27.78c-.06-.45-.53-.25-.67-.59,0,.42.29.28.25.7A.37.37,0,0,0,132,27.78Zm-9.43-1.33c-.21,0-.25.2-.42.22,0,.46.29.52.57.52C122.73,26.79,122.56,26.7,122.52,26.45Zm12.12-.74c-.5-.2-.86-1.08-1.47-.74a3.92,3.92,0,0,0,.17,1A1,1,0,0,0,134.64,25.71ZM94,25.23c-.28-.23-.38-.74-.74-.85,0,.56-.34.54-.4,1C92.91,26.31,93.92,26.14,94,25.23Zm-46.72.11c-.09,0-.19,0-.15-.23-.27,0-.32.34-.67.23a.62.62,0,0,1-.07.37,3.2,3.2,0,0,1,.74.37C47,25.66,47.18,25.68,47.27,25.34Zm83.27-.11c.08,0,.1.08.1.22.21,0,.4,0,.32.37a.34.34,0,0,1,.32.15v-.26c.06,0,.1,0,.08-.11C130.94,25.77,130.85,24.83,130.54,25.23Zm-44.41.37c-.23-.17.15-.43.07-.74-.25.06-.21-.34-.4-.37-.09.57-.67.74-.49,1.33C85.57,26.14,85.93,25.77,86.13,25.6ZM78.5,25c-.26-.74-1.29.06-1.06.74C77.61,25.17,78.37,25.57,78.5,25Zm16.89.48c0-.25,0-.45-.16-.48,0,.14-.13.14-.24.14a.55.55,0,0,1-.1.34A.3.3,0,0,0,95.39,25.45Zm-45.74-.59c-.41.06-.18.31-.4.59C49.56,25.88,49.56,25.14,49.65,24.86ZM46.3,25c-.23,0-.25.32-.25.63h.25Zm-1.56-.11c0,.37.25.37.5.37C45.31,24.75,44.8,25.14,44.74,24.86Zm-9.34-.11c-.26,0-.53-.29-.74,0C34.7,25.43,35.33,25.26,35.4,24.75ZM29,24.6c-.44.18-1-.11-1.71-.11C27.23,25.71,28.79,25.17,29,24.6Zm8.44,0a.57.57,0,0,0-.47.26C37.14,25.06,37.48,25.26,37.44,24.6Zm2.46.26c0-.54.27-.4.25-1-.54-.29-1,.54-1.3,1C39.19,25.14,39.46,24.8,39.9,24.86Zm-1.47-.26c0,.34.12.4.33.37C38.81,24.55,38.55,24.44,38.43,24.6Zm-20.16-.37c-.28-.34-.65.15-.91-.11,0,.23-.1.74.17.63C17.7,24.46,18,24.44,18.27,24.23Zm73,.15a1,1,0,0,0,1-.51c.06-.46-.21-.43-.25-.71-.23.2-.59.17-.82.37C91.44,23.7,91.33,23.92,91.29,24.38Zm-45-.26a2.36,2.36,0,0,0-.25-1.22c-.17.2-.15.68-.32.85-.46,0-.32-.42-.82-.11.1-.6-.32-.76-.42-.37,0-.17-.09-.62.08-.6.3.63.57,0,1,.23.21-.28.08-.31.08-.85-.44-.17-1.47-.54-1.47.48a.53.53,0,0,1-.25-.22,2.76,2.76,0,0,0-.08-.86c-.93-.28-2.07,1.79-2.21-.36-.4.05-.53.51-1,.48.17.4,0,.65-.25.37-.09.59.22.57.42.73.31-.67,1.17-.11,1.55.23-.15-.65.36-.74.57-.48.21-.26-.13-.51.17-.63-.08.63.34.49.25,1.11-.46.26-1,.34-1.07,1.22.9.54,1.79-.37,2.46-.74A1,1,0,0,0,46.3,24.12Zm26.07.11c.3-.9,1.2,0,1.47-1-.4.09-1.28.23-1.72-.26a.88.88,0,0,1-.17.63c-.53,0-.59-.68-1-.85-.23.77-.9.85-1.24,1.08C70.58,24.35,71.61,23.33,72.37,24.23ZM53.1,24c0-.23.1-.28.08-.48a8.12,8.12,0,0,1-2.13-.26c-.18.37-.1.43-.08,1C51.69,24.07,52.4,23.64,53.1,24Zm-18.94-.26c0-.39-.3-.25-.32-.59.4-.17.59-.68,1-.85-.28,0-.21-.54-.49-.52s-.33.88-.67.63c-.08.28-.1.65-.4.59,0,.26.09.29.08.52-.29.22-.31-.06-.58-.15-.05.4.14.37.08.74C33.59,24.6,33.4,23.24,34.16,23.75Zm15-1.08c-.09-.22-.17-.48-.4-.51-.23.35.08.51.08.85-.31.23-.31.77-.73.52C48.44,24.35,49.08,23.33,49.16,22.67ZM66.29,23c-.34,1.08.8.23,0,0Zm-1-.48c-.73-.08-.76,0-1.39-.11,0,.51.13.57,0,1,.15-.48,1.25-.53,1,.26h.32A1.79,1.79,0,0,0,65.32,22.53Zm-1.89.85a.51.51,0,0,0-.57-.22C62.84,23.64,63.3,23.78,63.43,23.38Zm-24.25-.22c-.21,0-.33.17-.33.48C39.1,23.7,39.21,23.53,39.18,23.16Zm8.27-.74c.24.06.36.37.57.48a1.27,1.27,0,0,1,.32-.74.46.46,0,0,1-.23-.37c-.55.29-.68-.13-1.06-.34a1.54,1.54,0,0,0,0,1.08c-.35,0-.48.29-.67.48.19.15.26.43.49.52C46.84,22.82,47.37,23,47.45,22.42Zm-17.29.11c0,.14-.13.14-.24.14.15.43,0,.55.32.71C30.35,23.24,30.39,22.53,30.16,22.53Zm-5.83.14c-.44,0-.91-.08-1,.49,0,.25.34,0,.4.22C23.72,22.79,24.41,23.3,24.33,22.67Zm14.92.12c-.11.48.23.31.33.48C39.56,23,39.52,22.7,39.25,22.79Zm11.22,0c-.2-.34-.53-.17-.74-.12v.49C50.09,23.19,50.4,23.13,50.47,22.79Zm40.82-.48a4.13,4.13,0,0,0,0-1.36c-.42.16-.23-.54-.57-.49a1.58,1.58,0,0,1-.9.49c0,.56.25.56-.09.84.21.21.47.29.66.52-.19,0-.26.08-.25.36C90.68,23.22,90.68,21.66,91.29,22.31Zm-58.1.22c0-.45-.82-.56-.74,0C32.68,22.65,32.85,22.59,33.19,22.53Zm-5.66-.59c0,.34-.32.59,0,.73C27.59,22.59,27.7,22,27.53,21.94ZM78,22.05c-.25.09-.25-.23-.4,0s0,.46.17.48C77.74,22.22,78.08,22.45,78,22.05Zm-28.28-.11c-.28,0-.55,0-.48.48a.44.44,0,0,1,.4.11C49.6,22.19,49.77,22.22,49.73,21.94Zm-12.36-.15a6.52,6.52,0,0,1-.18.63C37.56,22.59,37.63,21.85,37.37,21.79Zm14.91.37a1.17,1.17,0,0,0-.41-.85c-.06.48.13.8,0,1C52.08,22.33,52.06,22.08,52.28,22.16Zm-1.39.15h.58C51.62,21.63,50.72,21.63,50.89,22.31Zm27.86-.86c.17-.56,1-1.19.17-1.47-.17,0-.17.34-.32.37.34.91-.78,1-.5,1.44C78.26,21.51,78.47,21.2,78.75,21.45Zm-9.83,0c-.27,0-.34-.22-.67-.14C68.27,22,68.79,21.82,68.92,21.45Zm-12.46,0c-.06.52.38.32.67.34C57.07,21.17,56.86,21.45,56.46,21.45Zm-17.7.12c.15.06.21.25.42.22C39.33,21.34,38.79,21.31,38.76,21.57Zm55.16,0a9.41,9.41,0,0,1,.57-1.7c-.08-.14-.15-.06-.42-.14-.15.08,0,.68-.15.73-.59-.11-.78.54-.92,1.11C93.35,22,93.54,21.14,93.92,21.57Zm-82-.48c.29.51-.48-.12-.4.36.29,0,.4.29.74.23C12.31,21.26,12.08,20.66,11.87,21.09Zm33,.22c-.2-.08-.12-.62-.25-.85-.33.06-.57,0-.57-.48.32-.17.21.34.42.37.13-.43.32-.74.82-.62v-.49c-.39,0-.42-.14-.67.12-.13-.14,0-.71-.23-.71,0,.36-.25-.32-.25.11.19,0,0,.4-.09.37.09-.4-.12-.4-.33-.37,0,.37.37.28.42.6-.21.56-.42,1.5-1,1.1.15.77,1,.6,1.39.37a1.45,1.45,0,0,1-.07.74C44.64,21.37,44.72,21.71,44.82,21.31Zm50.89-.22c0-.37-.25-.46-.15-1-.35.11-.75.65-1,.48.05.39-.08.45-.08.73.38-.17.69-.34.9.14C95.31,21,95.5,21,95.71,21.09ZM92.78,21c0,.22-.12,0-.25,0v.36c.19-.14.32.37.4,0C92.79,21.31,92.89,21,92.78,21ZM89,20.72c-.21,0-.4,0-.49.11-.1.54.24.46.4.62C88.77,21,89,21.14,89,20.72Zm-7.3.48c-.09,0-.09-.2-.07-.37-.33.12-.53-.2-.67,0s.25.28.25.62C81.44,21.45,81.68,21.51,81.7,21.2ZM61.05,21h-.32c0,.28.05.59.32.5Zm27.13-.12c-.15-.2-.57-.6-.82-.25C87.46,21.09,88,21.45,88.18,20.83ZM78,21a1.39,1.39,0,0,0,0-1.45.81.81,0,0,0-.23.85c-.25.09-.51.14-.74.23,0,.37.17.56.4.62C77.44,20.6,77.76,21,78,21ZM62.36,21c0-.46-.6-.54-.74-.23s.14.37.25.48C61.93,20.72,62.25,21.2,62.36,21Zm13.53-.23c-.28-.23-.72-.23-1.06-.37a.84.84,0,0,1-.1.48,1.33,1.33,0,0,0,1.16.12C75.78,20.92,75.84,20.83,75.89,20.72ZM80.31,20c-.24.09-.24-.23-.49-.11-.25.54.06,1.16.49,1.08A3.11,3.11,0,0,0,80.31,20Zm-68.92.25V21h.33C11.74,20.49,11.64,20.23,11.39,20.23Zm73.34-.73c.38.31.58-.62,1-.37-.14-.34-.14-.71-.25-.85-.92-1.11-1.22,1.13-1.32,1.82-.19-.09,0-.63-.42-.49.06.37-.09,1.05.1,1.22C84.12,20.38,84.54,20.12,84.73,19.5Zm-42.62.6c-.13-.23-.23,0-.4.13,0,.29.25.74.32.49C41.84,20.63,42.19,20.38,42.11,20.1ZM87,19.61c-.17.26.15.4.17.74-.11,0-.3-.06-.32.11.15,0,.09.34.32.26S87.4,19.5,87,19.61Zm-41.14.26c-.07.11-.17,0-.32.23,0,.42.25.45.42.62C45.94,20.23,46.15,20.07,45.88,19.87Zm-31.55.48c-.13,0-.17-.23-.15-.48A1.84,1.84,0,0,0,13,20.1c.31.19.58-.12.6.62C13.83,20.58,14.25,20.72,14.33,20.35Zm83.76-.85a3,3,0,0,0-.07-.85c-.37,0-.42.39-.75.11-.11.51-.26,1.25-.65,1,0,.5.12.87.5.85C97.25,20,97.44,19.38,98.09,19.5Zm-15.49.6c-.19,0-.4,0-.4.25.19-.09.32.54.48.11C82.6,20.44,82.6,20.26,82.6,20.1ZM22.29,20c-.17-.48-.85-.25-.59-1.1-.11-.12-.83-.35-.82.11.25.45.59.11.67.62-.57.23-1.47.17-1.89.62C20.41,20.26,21.49,21.06,22.29,20Zm36,.12c-.16,0-.19-.12-.17-.37a1.74,1.74,0,0,1,.25-.49c.13.54.38.17.74.37v-.85c-.36.17-.29.43-.74.23-.06-.37-.14-.68-.41-.71s-.21.42-.49.37c-1-1-1.13.34-2,.85-.16-.26-.23-.62-.48-.74-.21.65.15.6.15,1.22.31-.09.36.2.67.12,0-.37.29-.21.32-.49.25,0,.23.4.58.26-.16.23,0,.28,0,.59.62,0,1.42-.91,1.31,0C58,20.23,58.29,20.38,58.27,20.1Zm-49.68,0c-.32-.09-.38.25-.57.36C8.23,20.35,8.59,20.49,8.59,20.1Zm99.66-.49c-.33-.23-.84-.17-.73.62C107.9,20.63,108.15,20,108.25,19.61Zm-38.51.49c0-.12.06-.15.07-.23-.19-.06-.3,0-.32.23.15,0,.15.36.42.25C69.89,20.21,69.87,20.07,69.74,20.1ZM42,19.13c-.27-.25-.36-.57-.75-.37-.07.34-.51,1.28-.07,1.59C41.31,19.78,41.82,19.73,42,19.13Zm46.47.37c.25,1.45,1.26.08,1.07-1.22h-.84C88.66,18.93,88.39,19.27,88.43,19.5Zm-25.57-.26c.84-.28,1.49.83,2,.63.36-.14.55-1,1.24-.74a5,5,0,0,1,.25-1.22c-.29-.2-.29.09-.6.11.1-.36-.11-.28-.15-.48a1.51,1.51,0,0,0-1.06,1,3.74,3.74,0,0,1-.25-1.45c-.35,0-.42.34-.65.48-.1.6.1.85-.17,1.11-.42,0-.65-.26-1-.37,0,.51-.14.23-.4.23-.63.87.55,1.16,0,1.72C62.59,20.23,62.69,19.7,62.86,19.24Zm-30,.74c-.48,0-.21-.4-.32-.74h-.4a5,5,0,0,0-.18.86C32.32,19.55,32.47,20.58,32.85,20Zm17.38-.48c.13.11.34.11.17.37a.59.59,0,0,0,.82-.37c-.13-.26-.46,0-.67.23,0-.77.15-.57.17-1.34-.66.12-.85.49-1.47.12,0,.93-.49,1-1,.85-.1.39,0,.28,0,.74.38.11-.12-.32.17-.37C48.87,20.35,49.37,19.7,50.23,19.5Zm-11,.48c0-.82.41-1.08,1-1.1-.1-.6.24-.52.24-1-.09,0-.13-.14-.17-.25s-.17.14-.32.11c0,.48-.21,1.08-.65,1.22a.29.29,0,0,1-.32-.23v-.62a1.68,1.68,0,0,0-1,.62c-.08-.48-.67-.2-.57.37.38.11.62.4.89.37a1.24,1.24,0,0,0-.07.6C38.55,20.07,38.91,19.5,39.18,20Zm33.91-.37c-.19-.39-.49.28-.15.37C73,19.81,73.07,19.78,73.09,19.61Zm39.35-.37c-.1-.14-.29-.14-.5-.11,0,.34.29.23.17.74h.25C112.33,19.55,112.5,19.58,112.44,19.24Zm-86.79,0a.36.36,0,0,0-.33.26c.12.14.18.39.4.37A1.25,1.25,0,0,0,25.65,19.24Zm67.53-1c-.33.08-.48-.12-.75-.14-.47.76-.15,1.87.75,1.59C92.91,19.22,93.18,19,93.18,18.28Zm-11.4.37c0,.23-.27.05-.32.23-.08-.15-.08-.46-.18-.6s-.17.23-.4.11a1.08,1.08,0,0,0-.07-.48c-.42.14-.42-.31-.74-.25s.15.36-.1.48a.57.57,0,0,0-.8.25c0-.14,0-.34-.09-.37-.23.37-.69.37-1,.63v.71c.38-.12.31.45.65.37.23-.8,1.16.08,1.56-.6v.37c.29,0,.25-.37.4-.51,0,.28.37.05.5.14a1.25,1.25,0,0,0,.07.48c.39-.14.35-.45.82-.25v-.48C81.84,18.67,81.82,19,81.78,18.65Zm-30-1c.13.87-.23,1.78.42,1.95C52.38,18.76,52.34,17.91,51.79,17.66Zm-4.34,1.7c.2-.06.41.51.57.14C47.77,19.53,47.6,18.76,47.45,19.36Zm-10.9,0c0-.29.15-.26.07-.6a1.49,1.49,0,0,1-.82.12c.06.42-.28.31-.24.73A1.37,1.37,0,0,1,36.55,19.36ZM121,18.65c-.35.79.72,1.1,1.14.71C121.57,19.24,121.43,19,121,18.65Zm-30.82.11c0-.23.1-.28.08-.48-.23,0-.34.2-.32.6.44.28.66.13,1,.62C90.79,19,90.49,18.53,90.14,18.76Zm-28.6-.62c-.43-.2-1,.37-1.14,1C61,20.18,61.13,18.51,61.54,18.14ZM99,18.28a1.24,1.24,0,0,0,.17,1.08C99.14,18.88,99.62,18.25,99,18.28Zm-28.51.6a1.61,1.61,0,0,0-1.16-.49.91.91,0,0,1-.32.74c-.14-.17-.27-.34-.58-.25C68.77,19.73,70.06,19.36,70.48,18.88Zm39.18-.37c-.18-.06-.25-.29-.5-.23s0,.68-.34.6c0-.37.15-.43.09-.86-.3.09-.47.34-.74.49.06.22-.09.73.08.73C108.72,19,109.41,19.1,109.66,18.51Zm-32.72,0c-.7,0-1.62.34-2-.23.15-.06.27-.83.07-1-.11.93-1.1.56-1.29,1.36.72.57,1.79.2,2.61.59C76.33,18.56,76.87,19.19,76.94,18.51Zm-17,.62c.08-.54.14-.88-.15-1.22-.38,0-.55.25-.67.6a3.35,3.35,0,0,0,.5.73C59.77,19.22,59.81,19.07,60,19.13Zm13-1a.47.47,0,0,0-.5.37c.14,0,0,.34.16.37C72.77,18.7,73,18.65,72.94,18.14Zm-40.32.51c0-.4-.25-.37-.49-.37C32.11,18.67,32.43,18.9,32.62,18.65Zm-4.51.11h.4C28.64,18.39,28,18.39,28.11,18.76Zm7.29-1c-.32,0-.78.11-1-.11a.61.61,0,0,0,0,.73C34.34,17.45,35.58,18.88,35.4,17.77Zm8.84,0c0-.17.31-.48.1-.6,0,.17-.21.12-.34.12-.12.45-.37,1.07.09.85,0-.23-.11-.23-.17-.37Zm-1.14-.34c.25-.17.63-.14.82-.37-.36.14-.08-.68-.5-.51-.22.34-.26,1-.72,1a.93.93,0,0,1-.09.48c.15.12.21.34.49.26C43,17.88,43.12,17.91,43.1,17.43Zm11.64-.14c-.42-.29-2-.4-2.21.37C53.41,17.6,54.15,18.14,54.74,17.29Zm-5.83,0v-.37c-.23,0-.44,0-.4.37A.23.23,0,0,0,48.91,17.29Zm45.73-.49c-.17-.39-.74-.14-.89.26A1.7,1.7,0,0,0,94.64,16.8Zm-73.76-.48a.92.92,0,0,1-.57,0c.1.37-.17.23-.32.23C20.08,17.26,20.85,16.8,20.88,16.32Zm58.77-.11c0-.32-.14-.37-.08-.74.06,0,.17,0,.17-.14s-.42.14-.34-.23c-.23.06-.42.17-.65.23,0,.77.44.88,0,1.36.19-.06.17.23.42.11C79.27,16.49,79.25,16,79.65,16.21Zm-26.39-1c-.33-.12-.31-.37-.48-.49-.08.26,0,.65-.1,1.11C52.91,15.67,53.16,15.55,53.26,15.22Zm-26.72,0c-.49.11-.51-.52-.89-.6-.21.05-.17.45-.5.37.13-.26,0-.17,0-.51-.4,0-.51.19-.89.14.09.48-.18.6-.33.37.08.2,0,.59.15.71C25,15.24,26,16.23,26.54,15.22Zm17.55-.12c-.42-.4-1.29-.82-1.24.12.54-.46.71.14,1.15.36A1.05,1.05,0,0,0,44.09,15.1Zm1.22-.85a2.08,2.08,0,0,0-.49.74c0,.42.3.37.49.48C45.22,15.1,45.37,14.85,45.31,14.25Zm-16.39.37c-.51.14-1.25.48-1.48-.26-.34.2-.36.43-.82.26,0,.34.27.28.27.6-.08,0-.17,0-.17.11.7.28,1.21-.57,1.63,0C28.43,14.93,28.91,15.13,28.92,14.62Zm55.81-.14c-.42,0-.64-.26-.64.51C84.37,15.19,84.79,15.13,84.73,14.48Zm-5,.14c-.26.08-.26-.2-.42-.26,0,.23-.09.29-.07.49C79.32,14.73,80,14.79,79.74,14.62Zm-35-.14a.44.44,0,0,0-.4-.12c0,.29,0,.57.32.49A.88.88,0,0,1,44.74,14.48Zm-5.81-.74c0,.68.19.93.65.88C39.58,13.74,39.08,14.33,38.93,13.74Zm52.61.14a.55.55,0,0,0,.24.6C92,14.22,91.67,14,91.54,13.88ZM90,13.74c.06.34-.38-.08-.32.26.17.08.23.31.49.25C90.16,14,90.13,13.8,90,13.74ZM65.22,13.4c-.23,0-.36.26-.4.6.12.05.16.17.33.11C65.2,13.85,65.36,13.57,65.22,13.4Zm-7.12.11c-.17-.11-.27-.31-.57-.25,0,.31.38.06.24.85h.33Zm-10.33.12c0,.34-.13.25,0,.48C48.09,14.22,48.09,13.54,47.77,13.63ZM30.49,13.4c.42.45.91-.2,1.46-.26-.49-.08-.13-.59-.24-.85-1-.14-1.38.85-2.46.48-.13.12-.13.46-.33.49-1.25-.17-2.11-.57-3,.25,1.44.8,3.2-.37,4.59.6C30.56,13.8,30.24,13.54,30.49,13.4Zm36.05.11c-.25-.17-.29.06-.65,0V14C66.23,14.05,66.56,14,66.54,13.51ZM43,11.81c-1.29-.11-3.44-.28-4.43.37.22-.26-.31-.06-.4,0-.12-.37-.27-.68-.67-.63.06.46-.88.43-1.37.26a.54.54,0,0,1-.25.48c-.27-.56-.9.06-1.16.26-.61-.09-2-.66-2.37.59.54.12,1.34.06,1.79.6,1-.94,2.6.11,3.85-.6.27.12.35.49.75.37A.88.88,0,0,1,39.9,13c.21-.17-.13-.37.09-.48.31.08.35-.23.65-.14.1.25.1.68.33.73,1.1-.11,2.57.37,3.6-.11a8.3,8.3,0,0,0-.15-1.22c-.29-.2-.38,0-.67-.26-.1.68-.55.09-.73.63Zm49.26,1.08h-.5c-.07.59.31.51.5.74C92.43,13.4,92.3,13.17,92.28,12.89Zm-19.44.62c.06.2.82.2.5-.11C73.23,13.63,72.9,13.26,72.84,13.51ZM71.62,13c-.17-.08-.22-.31-.49-.26a1.32,1.32,0,0,1-.08.74c.27-.14.5.37.65,0C71.51,13.48,71.51,13.17,71.62,13Zm-2.05-.62c0,.39-.19.54-.5.48,0,.51.27.59.59.62C69.55,13,69.91,12.55,69.57,12.41Zm10.25.85c0-.6-.57-.57-.5.14C79.57,13.48,79.57,13.17,79.82,13.26Zm-23-1c0-.37-.32-.42-.4-.74-.49.23-.82-.05-1.39.49a.93.93,0,0,0,.08.51c.51-.2,1-.4,1.46-.63C56.63,12,56.57,12.38,56.78,12.29ZM62,12.18c0-.23.1-.29.08-.51-.42-.2-.52-.43-1.15-.48-.21.48,0,.91-.32,1.1C61.16,12.46,61.36,11.58,62,12.18Zm27.21-.74c-.17-.59-1-.28-1.24.11.33-.08.48.12.42.63A1,1,0,0,0,89.25,11.44Zm-3.62-.37v.85H86C85.86,11.64,86,11,85.63,11.07Zm-20.48.74v-.62c-.37-.12-.54-.49-.9-.6.17.88-.47.51-.57,1C63.91,12.12,64.67,11.89,65.15,11.81Zm18.69-1a4.37,4.37,0,0,1-.17.73c.19.09.32.26.57.26C84.22,11.3,84.12,10.93,83.84,10.82ZM68.92,10.7c-.53.18-.84-.31-1.14-.11a1.63,1.63,0,0,0,.07,1,.6.6,0,0,0,.5-.36c.21,0,.06.48.32.36s.31.06.33-.11C68.82,11.41,69,10.93,68.92,10.7ZM49,11.07c-.33-.08-.33.57,0,.48C49,11.22,49.14,11.33,49,11.07Zm-.1-2.32a.53.53,0,0,0-.72.25c-.27-.45-.76-.37-1.14-.25C46.82,7.81,45.6,8,45,8.26c-.12-.19-.19-.68-.42-.37s.28.09.25.37c-1.2.06-3.21.43-4.18-.48a4.56,4.56,0,0,0-3,1.11c.29-.09.51,0,.42.48a6.07,6.07,0,0,0,2.7-.26,2,2,0,0,1,.33.37,18,18,0,0,1-3.77.37c-.1-.31.38-.48,0-.48-.14.14-.65,0-1.07.48-.19-.22.15-.79-.08-1.1a1.86,1.86,0,0,0-.82.14c-.09.31.16.71,0,.71-.59-.43-.78-1-1.39-1.22,0,.39-.11.76-.34.85a1.18,1.18,0,0,0-1.47-.6,1.7,1.7,0,0,1-.57,1c.1.2.34.14.32.51-1.79.2-3.75-.31-4.91.71,1.73.62,3.73-.74,5.09.37.24-.71,1.42-.54,1.71-.23a1.87,1.87,0,0,1,2,0c.38-.63,1.26-.2,2.06-.63,1.41.69,2.61-.48,3.93.37.53-1,1.37.68,1.81-.25.15,0,.09.34.32.25,0-.37.21-.42.42-.48s0,.74.32.74c.19-.2.08-.51.16-.63.11.34.62-.36.59.37.36,0,.51-.37.72-.59.5.31,1-.12,1.49.11,0-.4,0-.88-.25-.85-.12.51-.88.34-1,.11a2.58,2.58,0,0,1,2.46-.11.46.46,0,0,1,0,.48c.23,0,.26-.17.24-.48C48.68,9.48,48.89,9,48.91,8.75ZM70.56,10.7c0-.39-.23-.45-.5-.48.06.34-.15.23-.15.48A.46.46,0,0,0,70.56,10.7Zm20.9-1V9.23a1.2,1.2,0,0,1-.74.25.65.65,0,0,1-.18.49c0-.2-.09-.31-.15-.12.19.14-.3.26-.25.6a1.06,1.06,0,0,0,.9.25C91.16,10.28,90.91,9.34,91.46,9.74Zm-68,.23c-.23.2,0,.7.15.73C23.55,10.45,23.72,9.85,23.44,10ZM76,10c-.3,0-.57,0-.5.48A.79.79,0,0,0,76,10ZM51.22,9.74c-.06-.4.23-.26.17-.63-.32,0-.27.43-.67.26-.13.48.37,0,.33.37-.27-.08-.31.2-.33.48.42-.25.4,0,.57.23.56-.94,1.19-.23,2.31-.48,0,.2,0,.42.15.36.19-.25.33-.59.75-.48,0-.62.4-.79.57-1.22.42.34.76.12,1.06.48,0-.59.33-.73.25-1.47-.13,0-.3.06-.32-.11a1.1,1.1,0,0,0,.07-.86,2,2,0,0,1-2.3.86V6.79c-.73,0-.92.54-1.55.25-.47.32-.09,1.31-.41,2,.13,0,.28,0,.24.23C51.62,9.09,51.45,9.45,51.22,9.74Zm-1,.23c-.14-.12-.1-.49-.4-.37,0,.34-.06.73.15.73C50,10.05,50.23,10.19,50.23,10Zm43.44-.6c-.11.2-.46.37-.42-.14-.34.57-.87.06-1,.37.46,0,.38.79,1,.62C93.19,9.8,93.86,9.71,93.67,9.37Zm-45.16.74c0-.37-.23-.31-.32-.51,0,.22-.1.28-.08.51C48.3,10.11,48.36,10.33,48.51,10.11Zm37.54-.88a1.11,1.11,0,0,0,.08-.6c-.12-.17-.4,0-.58.12.14.39.12.25.08.85a1.63,1.63,0,0,0,1.32.51C87,9.37,86.11,9.88,86.05,9.23ZM94,9.37c-.11.14-.13.6.08.6C94.11,9.68,94.26,9.45,94,9.37Zm-64.07.11c-.33-.25-.59.15-.92-.11a.92.92,0,0,1-.08.37A.57.57,0,0,0,29.92,9.48Zm-9.19.12c-.19-.06-.63-.12-.74.25C20.29,9.85,20.64,9.91,20.73,9.6Zm37.62,0c.22-.74-.12-.85.24-1.34.86.06,1.18-.45,1.89-.37-.38-1.22-2.57-.7-3.13,0-.09.4.29.09.18.49a1.11,1.11,0,0,0-.58,1,5.23,5.23,0,0,0,.75.37C57.79,9.17,58.11,9.45,58.35,9.6ZM31.13,9.37c-.2,0-.47-.08-.49.23C30.81,9.54,31.21,9.8,31.13,9.37Zm30.32-.14c0-.46.09-.34,0-.71a.4.4,0,0,0-.65.11C60.76,9.43,61.13,9.63,61.45,9.23ZM70.56,9c-.06-.23-.25-.2-.33-.37.48.14.63-.19.82-.48a.58.58,0,0,0,.9.23c-.4-.37,0-1.16-.4-1.59-.4.74-1.11.23-1.81-.12.11-.19.36-.19.49-.36s-.15-.26-.09-.6c-1.32-.14-.34,1.56-1.07,2.07.23.06.67-.17.74.11a11.21,11.21,0,0,0,.1,1.48A.53.53,0,0,0,70.56,9Zm-6.88-.37c0,.29.13.26.08.6h.32C64.1,8.8,64,8.6,63.68,8.63Zm-12.21.26c.21-.4.07-.54,0-1-.46.21-.8.12-1.07.74-.75.23-.82-.51-1.07-1,.08.51-.46.06-.42.51.4,1.11,1.13.8,1.89,1C51,8.69,51.1,8.6,51.47,8.89Zm27.85-.51c-.15.06-.15-.14-.24-.23-.21.37-.52,0-.65.6C78.66,8.83,79.25,8.86,79.32,8.38Zm21.72,0a2.19,2.19,0,0,0-.82-.23c0,.29,0,.6.18.6C100.49,8.46,101,8.77,101,8.38Zm-35.57.14c-.27-.06-.61-.31-.65.23C65.11,8.75,65.39,8.8,65.47,8.52Zm21.4-1.11c.57-.48,1.37,0,1.88-.48-1.08-.6-1.9.06-2.62,0-.08.37.13.37.17.6-.17.17-.42.2-.42.62C86.37,9.06,86.56,7.84,86.87,7.41Zm-19.51.23C67,7.81,67,7.47,67,7c0,0-.15,0-.17-.11a1.38,1.38,0,0,0-.47.37,1.17,1.17,0,0,1,0,.59c.59-.25.55.46.89.63C67.21,8.1,67.39,8,67.36,7.64Zm8.36.14c-.4-.2-.21-.48-.57-.74.29,0,.48-.11.4-.59-.17-.09-.42-.26-.57,0-.15-.26-.12-.82-.4-.88-.17.68-.52-.34-.74.14.11.11-.21.43-.08,1.22.53.2,1.45-.14,1.22,1.22C75.19,8.38,75.82,8.38,75.72,7.78Zm-7.54.37A6.15,6.15,0,0,1,68.25,7c-.24-.19-.49,0-.72.12,0,.57.25,1.39.32.62C67.83,8.1,68,8.1,68.18,8.15Zm-2.46-1c.15-.14,0-.71.25-.71a1.48,1.48,0,0,0,.42.59c0-.68.2-.45-.1-.85.19-.11.29-.31.57-.25,0-.83-1.26-.12-1.39.37.1,0,.19,0,.17.25-.4,0-.42.51-.65.74a1.79,1.79,0,0,1,.23.48c.35,0,.46-.23.75,0C66,7.39,65.76,7.47,65.72,7.16ZM93.35,6.08c-.25.43-.67.43-.92-.14.25-.71-.11-1.28-.57-1.33,0,.59-.38.65-.57,1.21-.17-.08-.23-.31-.5-.25.06.48-.34.28-.4.62a.8.8,0,0,1-.07-.85c-.5.11-.59-.34-1-.37-.17.35-.5.48-.5,1.11a4,4,0,0,0,1.07.11c.26.35.17,1.22.49,1.45.31-1.1,1.53,0,2.14,0C92.78,7.1,93.23,6.85,93.35,6.08ZM82.28,7.41V6.93c-.35-.17-.44,0-.82,0,0-.54-.46-.48-.58-.85.2,0,.1-.37.25-.37s.25.23.4,0c-.23-.85-.83.28-1-.48,0,.85-.53.91-.91,1.22,0-.26-.1-.28-.08-.51s.11-.26.25-.23c0-.37-.19-.45-.33-.62-.09.34-.07.39-.32.25-.21.14.19.51-.17.48-.13,0-.08-.28-.08-.48-.47.17-.55,0-.91-.25.09.71-.67.14-.57.85.47.25.47,0,.82-.23v.48a.34.34,0,0,0-.48.26c-.1.48.23.34.15.85.5.06.48.25,1,.11a2.32,2.32,0,0,1,.57-1A2.87,2.87,0,0,0,82.28,7.41Zm-5.49,0a1.63,1.63,0,0,0-.32-.85c0,.23-.29.06-.35.23.08.45,0,.31.1.74C76.43,7.53,76.67,7.58,76.79,7.41Zm-3.7-.48c-.34,0-.38-.2-.65,0C72.35,7.73,73.11,7.39,73.09,6.93Zm11.22-.62c-.28,0-.41.2-.47.48.25-.09.23.23.47.14C84.28,6.54,84.49,6.54,84.31,6.31Zm1.74-.12c-.29-.05-.42.12-.5.37.16,0,.2.14.33.11C85.78,6.28,86.15,6.59,86.05,6.19Zm-8.86.12c0-.51.13-.57,0-1-.48.34-.92-.17-1.47-.11,0,.31-.27.31-.17.85C76.31,6.05,76.45,6.56,77.19,6.31Zm24.43-.86c-.1,0-.14-.13-.16-.22a2.75,2.75,0,0,0-.66.34c.23.06.19.54.42.62C101.39,6,101.69,6,101.62,5.45Zm17.53.49c0-.34-.31-.51-.08-.85-.34-.09-.29.68-.08.73-.09,0-.19,0-.17.26C119,6.11,119,5.94,119.15,5.94ZM71.87,5.71c-.4.09-.45,0-.82-.14C71.15,6.25,71.8,6.08,71.87,5.71Zm40.89-.37c-.15-.17-.49-.08-.4-.62-.55,0-1.25.25-1.06,1,.47,0,1.12.34,1.46.11C112.55,5.8,112.88,5.63,112.76,5.34Zm-13,.48c.21,0,.32.2.59.12C100.44,5.34,99.84,5.37,99.81,5.82Zm20.57-1.47c-.51-.43-.55.11-.89.51C119.89,5.17,120.31,4.89,120.38,4.35Z"/><path class="cls-1" d="M18.43,11.07c.45-1.13,1.56.2,1.81-.11C20.22,11.75,18.75,11.41,18.43,11.07Z"/><path class="cls-1" d="M43.52,9.74c.21.08.15-.26.23-.37,1.18-.17-.78,1.05-.4-.14C43.5,9.34,43.67,9.51,43.52,9.74Z"/></g></g></svg>