<svg xmlns="http://www.w3.org/2000/svg" viewBox="0 0 554.21 3.24"><defs><style>.cls-1{fill:#ffffd4;}</style></defs><g id="Calque_2" data-name="Calque 2"><g id="Calque_1-2" data-name="Calque 1"><path class="cls-1" d="M554.08,2.28c.29-.08.12-.28-.68-.24l-.57.33Z"/><path class="cls-1" d="M548.67,1.67c-.94.16-2,.44-1.42.75.93-.32,1.16-.19,2.17-.57.8,0,1.4.11,1.27.23A8.73,8.73,0,0,0,552.37,2a10,10,0,0,0-3.76-.06C548.31,1.82,548.6,1.73,548.67,1.67Z"/><path class="cls-1" d="M470.11,1.15l.5,0Z"/><path class="cls-1" d="M421.43,1c.37,0,.52,0,.54-.07C421.63.92,421.35.94,421.43,1Z"/><path class="cls-1" d="M413.12.61l.49,0A1.4,1.4,0,0,0,413.12.61Z"/><path class="cls-1" d="M470.11,1.15l-1.3-.1C468.71,1.16,469.47,1.13,470.11,1.15Z"/><path class="cls-1" d="M537.84,2.47a5.75,5.75,0,0,0,.7-.09l-.66,0Z"/><path class="cls-1" d="M491.56.89h.4a2.52,2.52,0,0,0,.33-.14Z"/><path class="cls-1" d="M508,.83c-.37,0-.5.27-.64.4a2,2,0,0,1,.81-.2C508.21,1,508.16.92,508,.83Z"/><path class="cls-1" d="M534.15,1.33l.46,0Z"/><path class="cls-1" d="M479.78.82a.44.44,0,0,0-.15-.1S479.69.79,479.78.82Z"/><path class="cls-1" d="M19.17,2.94s0,0,0,0S19,2.94,19.17,2.94Z"/><path class="cls-1" d="M.08,1.55l.26,0A.35.35,0,0,0,.4,1.37Z"/><path class="cls-1" d="M397.91.25H398C398.38.22,398.15.23,397.91.25Z"/><path class="cls-1" d="M258.28.45c1.58.26-2.58.33-.2.61C257.86,1,260.25.62,258.28.45Z"/><path class="cls-1" d="M537.41,2.43h0Z"/><path class="cls-1" d="M258.08,1.06h0l.25,0Z"/><path class="cls-1" d="M362.86.42a1.36,1.36,0,0,0,.36.12S363.13.48,362.86.42Z"/><path class="cls-1" d="M389,.82l-.65,0Z"/><path class="cls-1" d="M349.31.81a4.78,4.78,0,0,0-.95,0l.14,0A2.9,2.9,0,0,1,349.31.81Z"/><path class="cls-1" d="M335.2.81a1.67,1.67,0,0,0,.26.06h.44Z"/><path class="cls-1" d="M62.05,2.8a2.37,2.37,0,0,1-.65-.25C61.61,2.75,59.54,2.82,62.05,2.8Z"/><path class="cls-1" d="M537.83,2.31a.65.65,0,0,1-.42.12h.47S537.93,2.34,537.83,2.31Z"/><path class="cls-1" d="M348.73,3l-2.24,0C347.12,3,347.93,3,348.73,3Z"/><path class="cls-1" d="M163.27,2.76l-.51,0A2.51,2.51,0,0,0,163.27,2.76Z"/><path class="cls-1" d="M339.84,3a7.36,7.36,0,0,0-1.26-.19,1.2,1.2,0,0,0-.26.07Z"/><path class="cls-1" d="M61.39,2.55h0Z"/><path class="cls-1" d="M46.62,3.21c2.14,0,1-.36,1.46-.57,2.55-.1,1.18.27,2.05.46,1.59-.1,2.81-.44,4-.42.09.06.32.08,0,.16,1.68-.3,5,0,7-.39a.79.79,0,0,1,.26.1c-.32-.19-.37-.38-.3-.51,1,0,1.78-.23,2.14,0a2,2,0,0,0-.91.16l1-.1c.9.35-1.37.12-1.37.38,2-.12,4.24-.4,5.74-.31.31.34-3.51.12-1.51.42l-2.32-.13c1.77.54-1.41,0,.22.54,3,.09,3.41-.18,6.46-.08.69-.19-.23-.28.46-.47,4.33-.34,3.41.86,6.59.41A5.76,5.76,0,0,1,81,2.44l-.78.38c3,0,1.69-.55,4.79-.29-.55.15-2.33.12-1.88.17,2,.3,1.42-.22,3-.22l.32.34c3.15,0,6.61-.3,10.1-.36-.19.1-.79.21,0,.31,4.4-.17,9.39,0,13.63.25l1.62-.3c.37,0,.7.13.29.19,1.65.11.08-.18.88-.3s1.24.17.64.26A75.49,75.49,0,0,1,125,2.65l-.6.08c2.39.12,2.7-.6,4.92-.33l-.42.06c5.19.12,10.92-.15,14.89.3.75-.42,5.14.19,5.47-.4,3,.29,2.11.39,6.29.59,1.11,0,1.66-.37,3-.43l0,.31,1.88-.32,1,.36,1.3-.07c-.52,0-1.1-.14-1-.23a17.1,17.1,0,0,1,5,.37l4.78-.26a6.24,6.24,0,0,1-1.54.25c2.55-.32.47.32,2.8,0-.31-.07.17-.18.23-.24a41.57,41.57,0,0,0,5.78.11l-.38.21c3.54,0,7.47-.1,11.45-.1-1.43-.1-1.1-.47.07-.5l.46.32c.76-.2-1.22-.12.33-.37,1.49,0,1,.37.15.48l1.8-.11c.11.09-.31.15-.42.27.74-.2,3.11.33,4.18,0l.1.09c4,0,5.78-.11,9-.12.07-.28,1.33-.22,2.3-.45,2.38.09,5,.31,7.89.29,2-.14.59-.24,1.5-.41.14.26,3,.23,1.52.42,3.45,0,4.4-.05,8.75-.26-.47-.11-1-.15-.73-.24.79,0,1.8.11,1.69.23l-.21,0c4.89-.39,11.28.75,15.17.21l-.22,0,4-.28c1.86,0-1.12.19.26.35,4.35-.43,6.88.06,10.46-.22,2.78.75,9.85-.06,13.59.43l-.21-.18c1-.18,1.17.1,1.88.14-.1-.14-1.05-.16-.45-.26,8.2-.21,16.93.26,25.34.43,3.07,0,1.74-.93,5.62-.5l-1.1.33c6.2-.4,12.69,0,18.76-.32a2.85,2.85,0,0,1-1,.17,15.34,15.34,0,0,0,4.76-.18c.95,0,.22.17.8.27,1.29.15,3.23-.3,3.92-.06.11,0-.36.07-.6.09.84-.11,3.91,0,3.11-.24,2.28.13,4.36-.13,6.18,0,1.18-.31,3.9.15,4.28-.29-.17.45,4,.36,5.43.15-.48.14,1.26.14.69.33,1.65,0,3.16-.09,2.87-.32,3,.54,6.09-.44,7.8.26,4.88-.25,9.41-.41,13.8-.52-.16.45-4.86,0-4.67.52,4.17-.18,6.58-.57,10.71-.46,1.07.06-.6.19-1,.27,4.17-.19,8.06,0,11.77-.21a2.72,2.72,0,0,1-.79.13c.73,0,1.7.06,1.62-.14l-.72,0c-1.16-.29,2.9-.62,3-.77-1.24.58,3.66.14,1.69.89.48,0,1.08-.14,1-.28.71,0,.94.12.22.28,2.61-.11,1.68-.33,4.06-.33,0,.1-.49.14-.74.26a19.15,19.15,0,0,1,4.41-.31c-.12.06.12.14-.48.14,3.44,0,5.86-.51,9.64-.33-1.11.43,1.28.14,1.48.52l2-.11-.81-.18c1.78,0,3.35-.27,4.88-.15l-1.32.16,3.33-.08-1.89-.14c1.8-.19-.19-.47,2.18-.37-.48,0,1.78,0,2.7.23h0a13.79,13.79,0,0,1,3.1-.15c.34.12-.28.41-.06.49.87-.31,4.17-.09,5.27-.42-.37.08-.39.28-.27.32l.73-.26c.82.08.94.12.81.28,2.48.05-.79-.47,2.15-.27a5.23,5.23,0,0,1-.6.1c3,.1,5.71-.16,8.42,0,.8.38-2.37.09-1.45.41,3.91-.07,8.1-.45,11.89-.36l-.71,0c.53-.53,2.82.26,4.74,0-.47,0-.62.29-.49.23,2.59.09,5.3-.13,9.23-.29l-.49.13c1.53.12,4,.07,5.68.13.49-.13,1.43-.11.86-.31,5.09.78,9.71-.41,14.23.23-.54,0-1.29.12-.86.12l3.85-.12c-.31-.23-.51-.14-1.32-.32A11.51,11.51,0,0,1,493,1.66c-1.73.16,0,.38.76.5-.12-.07.13-.14.07-.22,2,.41.34-.46,3.08-.18l-.15.12a27.87,27.87,0,0,1,3.09-.19c.45.27-1.1.12-1.17.34,1.56,0,3.07-.5,4.48-.24-.66.08-1.61.08-2.27.15a11.84,11.84,0,0,0,2.85.29h-.12l2.64.14-.67-.08c1.94-.7,4-.13,6.58-.59-2.55.44-.42.25-.61.56.67.08,1.68.17,1.39.26,1.24-.24,2.07.19,3.82-.16.08.09,1.33,0,1.05.25,1.61-.08-.38-.17-.25-.29,2.48-.34,5.84.4,9.41-.06,3.08-.18,3.65-.51,6.51-.68,1,.16-.79.36-.79.36a22.55,22.55,0,0,0,4.19,0c-.29.09,0,.16.46.27,1.18,0,.79-.35,2.34-.21a5.33,5.33,0,0,1-1.18.39c1.39-.09,2.76-.27,4.2-.36.38.17-.87.26-1.38.37A24.71,24.71,0,0,0,546,2l-1-.1c.59,0,.3.23-.13.28-1.39.21-2-.09-2.08-.19l1-.06c-1.05-.57-4.11.09-6.17.06l.86-.42-2.11.35c-.45-.11-.76-.34.26-.41-1.48-.2-1.31.15-2.58-.08-.14,0-.07,0,.06-.07l-1.45.12c.29-.08-.24-.29.65-.23-2.59-.24-4.17.31-5.15,0l.22,0c-3.59.14-.35.31-3,.66l-1.81-.75-.36.31c-.37,0-1.1,0-1-.16-1.37.21.24.13-.56.33-1.78-.28-4.92.13-5.32-.36-.64.24,1.71.18-.2.34-.54-.52-2.2.09-3.83-.15.5-.27,2-.12.42-.36-1,.45-3.18-.1-4.55,0-.06.37-3,.16-5.29.28.14-.13-4.34-.2-6.49-.33l.07-.07c-.42.37-2.63.3-4.24.38.06-.22.35-.31,1.22-.41H492a7.76,7.76,0,0,1-1.81.22l.38-.28a66.22,66.22,0,0,1-6.65.14c-.15.26,2.06.72-.68.89-.11-.14-.21-.38.51-.44a6.21,6.21,0,0,1-1.31.06l1.1-.23c-1.19-.1-.62.19-1.57.17,0-.2-.7-.14-.56-.3a9.19,9.19,0,0,0,1.19,0,14,14,0,0,1-2.78-.31c.09.12,0,.27-.78.3-2,0-.69-.24-1.87-.34-.49.13-1.77,0-1.81.29a1.75,1.75,0,0,1-.92-.22c-1,.13-4.87,0-3.7.35l.27,0h-.17c-3.42.3-7.1-.16-10.5,0v-.1c-2,.12-4.51.07-6,.28-.59,0-1.41-.18-1.15-.3a21,21,0,0,1-4,0c1.56-.18-.54-.16,1.59-.13a20.44,20.44,0,0,0-4.62,0c.73-.26-1.52-.32-2.47-.25l1.41.19c-1.08,0-2,0-3,0l.51-.33c-4.11-.41-7.42.68-10.55,0-1.09.23,2.23.16,1.26.43-1.9,0-3.87-.52-4.46-.52-2.59-.18-2.42.49-5.14.36.35.12.68.43-1.35.55-1.89-.05-2.33-.5-1.13-.6.45,0,.67,0,.65.07.62,0,1.42-.09.67-.22l-.25.12c-.94-.12-3.54-.11-2.93-.31-1.43.12-.61.2.45.26-2.43-.17-3.8,0-6.3-.12.4.07.76.2.37.2-3.67-.14-1.62.23-4.11.28-1.41-.18.51-.43-2-.28-1.53-.12-.33-.31.28-.41A33.49,33.49,0,0,1,402.6.23l1.2-.1c-.72.06-1.31.06-1.91.06l.69.23c-.7,0-1.3,0-1.29-.14-.73.16.56.4-.88.61-.94-.12-2.87.13-3.19-.19,2.95.11-.33-.31,2.17-.36a15.07,15.07,0,0,1-1.77,0c-.11,0,.1-.06.29-.08-2.83-.28-1.3.35-4.23.35.37-.18-.68-.34-1.16-.3,1.18,0,.56.29-.52.43a18.62,18.62,0,0,0-3,.09l1.12.06a10.67,10.67,0,0,1-2.63.21c-.11-.14,1.19-.09.73-.15-1.46.31-3.29-.33-5.32-.12-.94-.12-.09-.33-.92-.41-2.27.23-2.46-.25-4.85-.06.69.24.81.18-.88.42L380.15.6,377.63,1c1.19,0,2.5-.15,3.22-.11-1.21.19-1.08.13-.52.33-1.62-.36-3.21.21-5.09,0l.06-.59c-2.82-.27-5,.3-8.67.15l1.17.1c-.49.24-2.26,0-3.44.13.11-.2-.63-.27-1.14-.39.06.15-2.68,0-3,.38L358.57.66c-3-.11-3.37.56-6.22.5.86-.22-.43-.36,1.47-.51-.95,0-1.8,0-1.81.1-.56-.13-2.64.26-3.51.07a3.61,3.61,0,0,1-1.59.28c-.12,0,0-.1,0-.1s-1.67.14-.74.36c-2.92-.62-8.17,0-10.71-.49C333.39.94,330.89,1,329,1c.12-.06,0-.1.36-.08-2.59-.19-1.59.56-4.54.36-1.51-.32,1.56-.17.62-.29-.41-.65-3.56.08-5.54-.29l.48,0c-1.52-.22-3.71.24-6.19.2,0,0,.12-.06,0-.1a61.48,61.48,0,0,1-7.3.53c.75-.25,1.09-.13.63-.39-1.07,0,.32.41-1.82.49-.69-.14-2.23-.26-2.44-.54l2,0c-1-.35-2.61,0-3.67,0l.13-.15c-3.08,0-3.12.44-6.44.41l.34.12c-1.81.39-1.52-.22-3.33.07L291.8.86c-1.2.09-4.19.38-6.34.45,1.22-.29,3.73-.44,5.28-.61a31.65,31.65,0,0,0-4.65.22,8.09,8.09,0,0,1,1.55-.07,27.85,27.85,0,0,1-5.73.45c.42-.76-6.16-.19-7.87-.78C269.86.8,265.75.4,260.88.44c1.73.6-1.42,0-1.12.63a8.46,8.46,0,0,1-1.67,0L254.65.69c-.81-.17,1.08-.13,1-.27-2.49,0-1-.26-2.69-.42.34.22-.86.31-2.28.23l2,.28c-3.47.33-3-.51-6.5-.19l1.1-.19c-1.79.11-6.62,0-8.38.49-.31-.07-.73-.24.06-.29-4.29-.07-9.55.53-12.89.22l.33-.15a8.74,8.74,0,0,1-2.4.13c.05-.06.33-.14,0-.15a19,19,0,0,1-3.18.17l.9-.17c-4.18-.19-6.42.41-9.93.52,0-.44-3.28-.59-4.92-.66l0-.06c-4.87-.06-8.27.36-12.78.54-2.81-.48-9.49-.2-14-.47.68.08-.12.34-.92.39-1-.09-2.92.3-2.75-.1h.38c-.8-.4-3-.3-4.66-.31l-.28.53c-4.44-.77-11.62.28-14-.4-1.07.13-2.4.13-3.46.26l.06-.28c-3-.08-4.44-.11-8.11,0l.75-.2c-2.07,0-2.61.82-4.52.84L142,.51c-3.61,0-7.26-.36-10.82,0,.06-.06.16-.18.75-.2-1.7,0-6.57-.29-5.95.29,0-.37-3.72,0-5.67.13l.3-.27a15.86,15.86,0,0,1-4,.55c-.54,0-.47-.23.25-.15-1.81-.15-1.41.26-3.61.11L114,.81a8,8,0,0,0-2.75.28,10.77,10.77,0,0,1-3.81-.32,5.43,5.43,0,0,1-2.37.29c-.15-.1.25-.16.45-.18-3.12-.19-4.64.32-6.78.05,0-.1-.18-.14-.36-.17,2.48,0,4.47,0,4.28,0,0-.25-2-.3-.41-.65A39.59,39.59,0,0,1,96,.64a1.58,1.58,0,0,1-.26-.09l.2,0a8.11,8.11,0,0,0-1.23,0c-.62,0-1-.07-1.61-.07a14.73,14.73,0,0,0-3.3-.13c.09.28-1.22.24,0,.47-.15,0,.19,0,.86,0,.15,0,.32,0,.42,0L91,.78l2.48,0a8.1,8.1,0,0,1-2.71.11c-.51.18-1.08.36-1.39.45C88,.93,85.38.72,85,.47c-3.05.16-7.18.11-9.09.64A2.29,2.29,0,0,1,74.6.87,12.22,12.22,0,0,0,76,.75c-1.73.14-5.13.05-5.54.42C68.24,1,71.65.83,68.65.89l.4-.11c-5.9-.59-9.59.94-16.13.19a2.09,2.09,0,0,1,.77.13C46.23.76,38.32,1.41,31,.88a11.86,11.86,0,0,0-3.6.31l-.45-.3-2.19.34c-3.09.26-5.36-.74-9.27-.25l.5.2c-1.41,0-4.46.12-4.22-.12a1.69,1.69,0,0,1-1,.11L10.67,1l-3.46.27C4.53,1.17,7.63.66,3.72.63,2.27.69-.42,1.09.13,1.19s1.5.1,1.54.26L.34,1.53C.1,2-.92,2.47,2.34,2.8l2.28-.29.73.23H3.44A6,6,0,0,0,6,2.65a2.3,2.3,0,0,0,.95.25l2.24-.45c.27.18-1,.36.49.46,1.05-.2-1-.4.73-.54,1.09.21.77.38,2,.2.18.12-.09.2-.6.25a27.44,27.44,0,0,0,3.6-.31c1.13.27,3.84-.06,3.73.38a17.64,17.64,0,0,1,3-.37c-1.91.53,3.91,0,3.41.6,1.41-.47,5.1-.21,7.6-.47a2.29,2.29,0,0,1-.64.09A22.22,22.22,0,0,1,35.3,3c.18-.39,2.38-.48,3.56-.73,1.72.38-1,.46-.51.83-.08-.32,3-.32,2.41-.58,1.32.23,1.14.11,1.82.43.23-.49,1.23-.08,2.32-.38,1.91.24.49.46,2.59.31C48.49,3,46.62,3.21,46.62,3.21Zm49.89-.84h0l-1,0Zm4.2,0H98.89c-.15-.1,0-.2.43-.19C99.09,2.22,100.08,2.28,100.71,2.36ZM91.84.41a1.87,1.87,0,0,1,1,.08l-1.16,0a.3.3,0,0,0-.08,0A.58.58,0,0,1,91.84.41Z"/><path class="cls-1" d="M90.65.78l-.28,0,.4.07L91,.78Z"/><path class="cls-1" d="M470.7,1.2h-.09l.19,0Z"/><polygon class="cls-1" points="158.6 2.9 158.59 2.83 158.23 2.89 158.6 2.9"/><path class="cls-1" d="M493.79,2.16a1,1,0,0,0,.31.08A1.22,1.22,0,0,0,493.79,2.16Z"/><path class="cls-1" d="M503.77,2.23l1.41.1C504.57,2.27,504.12,2.24,503.77,2.23Z"/><path class="cls-1" d="M511.44,2.37a.54.54,0,0,0,.15-.12h0Z"/><path class="cls-1" d="M389.5,2.7h-.3C388.51,2.76,389,2.74,389.5,2.7Z"/><path class="cls-1" d="M425.79,2c-.39,0-.77.1-1.17.13C425.27,2.19,425.77,2.2,425.79,2Z"/><path class="cls-1" d="M349,3h0Z"/><path class="cls-1" d="M422.93,2.17a10.55,10.55,0,0,0,1.69,0A15.88,15.88,0,0,0,422.93,2.17Z"/><path class="cls-1" d="M544.68,2.49l.36,0s0,0,.05,0Z"/><path class="cls-1" d="M545.09,2.46l.41,0A1.36,1.36,0,0,0,545.09,2.46Z"/><path class="cls-1" d="M546.36,2.36l-.86.07A2.79,2.79,0,0,0,546.36,2.36Z"/><path class="cls-1" d="M534.52,2.36l-.11.11A.15.15,0,0,0,534.52,2.36Z"/><path class="cls-1" d="M531.44,2.39a25.71,25.71,0,0,0,2.87.16l.1-.08C533.92,2.62,532.14,2.22,531.44,2.39Z"/><path class="cls-1" d="M518.56,1.13l2.59.09c-.46-.11-1-.26.12-.29C518,.61,522,1.18,518.56,1.13Z"/><path class="cls-1" d="M510.54,1c1.39,0,0-.16.06-.22C509.72.86,509.51.88,510.54,1Z"/><path class="cls-1" d="M452.61,1l.14-.26C451.68.76,452.74.82,452.61,1Z"/><polygon class="cls-1" points="441.54 2.3 442.58 2.46 443.08 2.22 441.54 2.3"/><polygon class="cls-1" points="435 0.48 435.47 0.44 433.68 0.53 435 0.48"/><path class="cls-1" d="M337.71.57l.32.31C338.75.82,338.91.47,337.71.57Z"/><path class="cls-1" d="M295.71.89a5.85,5.85,0,0,0-2.37-.11C294.28.8,295.22.93,295.71.89Z"/><polygon class="cls-1" points="169.74 0.37 170.59 0.27 168.99 0.36 169.74 0.37"/></g></g></svg>