<svg xmlns="http://www.w3.org/2000/svg" viewBox="0 0 178.24 216.31"><defs><style>.cls-1{fill:#fff;stroke:#fff;stroke-miterlimit:10;}</style></defs><g id="Calque_2" data-name="Calque 2"><g id="Calque_9" data-name="Calque 9"><path class="cls-1" d="M176.89,146c-8.36-16.72-8.36-10.45-8.36-23,8.36-31.35,6.27-14.63,8.36-37.62C164.35-4.46,89.12.55,89.12.55S13.88-3.63,1.34,86.24c2.09,23,0,6.27,8.36,37.62,0,12.54,0,6.27-8.36,23-4.18,23,8.36,25.08,12.54,25.08s27.17-2.09,27.17,29.26c2.09,10.45,43.89,14.63,48.07,14.63s46-5,48.07-15.46c0-31.35,23-29.26,27.16-29.26S181.07,169,176.89,146ZM45.23,155.2c-37.62-12.54-16.72-41.79-4.18-43.88,16.72-4.18,29.26,4.18,33.44,6.27C84.55,122.62,80.76,161.47,45.23,155.2Zm58.52,33.44H74.49c-10.45,0,4.18-29.26,14.63-29.26S114.2,188.64,103.75,188.64ZM133,154.37c-35.53,6.27-39.33-32.58-29.26-37.62,4.18-2.09,16.72-10.45,33.44-6.27C149.73,112.57,170.62,141.83,133,154.37Z"/></g></g></svg>