<svg xmlns="http://www.w3.org/2000/svg" viewBox="0 0 224.36 223.35"><defs><style>.cls-1{fill:#fff;}</style></defs><g id="Calque_2" data-name="Calque 2"><g id="Calque_3" data-name="Calque 3"><path class="cls-1" d="M69.36,136.35l119-127,36-8-7,36-126,119,16,17s-11.5,18.5-32-2c1,1-39,31-39,31l5.5,5.5-11.5,15.5-29-27,16.5-10.5,5.5,4.5,33-39s-20-16-4-32Z"/><path class="cls-1" d="M155,135,36,8,0,0,7,36,133,155l-16,17s11.5,18.5,32-2c-1,1,39,31,39,31l-5.5,5.5L194,222l29-27-16.5-10.5L201,189l-33-39s20-16,4-32Z"/></g></g></svg>