# This file uses centimeters as units for non-parametric coordinates.

g default
v -1.465759 0.548157 2.867516
v 1.449829 0.548157 2.867516
v -1.565338 -4.554108 0.442024
v 1.549408 -4.554108 0.442024
v -0.778748 -13.919464 -6.442209
v 1.108322 -13.919495 -6.442207
v -0.000229 1.678314 2.835068
v 0.000305 -4.261475 -0.650063
v 1.665268 -9.714264 -2.212774
v 0.199310 -9.508606 -2.878796
v -1.341339 -9.714264 -2.212774
v -1.508026 -0.292633 1.092079
v 0.000000 0.000000 -0.000004
v 1.492096 -0.292633 1.092079
v -12.319824 -31.144775 -15.499504
v -8.510406 -21.410797 -9.879629
v -12.319824 -35.432617 -17.975124
v -6.259460 -30.798462 -17.327053
v -1.011154 -25.556854 -14.300858
v -3.516129 -40.769012 -22.317699
v -0.693130 -40.769012 -22.317699
v 12.181946 -33.782959 -17.022663
v 4.890793 -29.445892 -16.546188
v 12.181946 -30.656464 -15.217594
v 7.196854 -21.252014 -9.787903
v 4.656403 -29.902222 -16.091505
v -0.860107 -25.903595 -14.179661
v -6.147079 -31.187897 -16.833786
v -2.032440 -41.032379 -22.838867
v 2.184326 -35.150299 -19.442818
v -1.401871 -32.920074 -18.552025
v -4.931274 -35.841827 -19.842102
v 9.482452 -32.177185 -16.846245
v 10.703705 -31.243195 -16.535551
v 5.934052 -25.178223 -14.460007
v -0.485229 -19.707855 -11.530937
v -4.897903 -22.847260 -12.980673
v -9.577133 -30.742035 -16.752756
vt 0.100145 0.501695
vt 0.134710 0.501695
vt 0.100145 0.555783
vt 0.134710 0.555783
vt 0.108832 0.636477
vt 0.134710 0.636477
vt 0.117519 0.501695
vt 0.117519 0.555783
vt 0.134710 0.593758
vt 0.117519 0.593758
vt 0.100145 0.593758
vt 0.100145 0.524655
vt 0.117519 0.524655
vt 0.134710 0.524655
vt 0.403708 0.410056
vt 0.377430 0.389727
vt 0.411468 0.326273
vt 0.431419 0.328293
vt 0.387334 0.323828
vt 0.431419 0.292277
vt 0.289449 0.411390
vt 0.298635 0.369662
vt 0.345331 0.414778
vt 0.333739 0.469752
vt 0.253185 0.332395
vt 0.263939 0.323905
vt 0.349156 0.367856
vt 0.306224 0.335189
vt 0.307929 0.331164
vt 0.348058 0.363308
vt 0.386517 0.320365
vt 0.351999 0.306007
vt 0.377673 0.282908
vt 0.325911 0.288717
vt 0.356586 0.239310
vt 0.346843 0.239310
vt 0.367378 0.239310
vt 0.253185 0.306134
vt 0.272822 0.316891
vt 0.347466 0.469752
vn -0.601315 0.409057 -0.686362
vn -0.000376 0.415463 -0.909610
vn -0.005744 0.311577 -0.950204
vn -0.547086 0.249337 -0.799079
vn 0.017581 0.543131 -0.839464
vn -0.474734 0.429556 -0.768185
vn 0.605373 0.407806 -0.683533
vn 0.554286 0.265890 -0.788714
vn 0.379846 0.502191 -0.776866
vn -0.138605 0.661659 -0.736882
vn 0.230909 0.642385 -0.730768
vn -0.514950 0.754223 -0.407399
vn -0.000518 0.879872 -0.475211
vn 0.518965 0.752132 -0.406169
vn -0.334858 0.616262 -0.712805
vn -0.249211 0.580048 -0.775525
vn -0.286141 0.512465 -0.809631
vn -0.368098 0.525552 -0.767006
vn -0.026410 0.439845 -0.897686
vn -0.285875 0.394714 -0.873199
vn 0.316590 0.630640 -0.708565
vn 0.213050 0.553299 -0.805276
vn 0.016618 0.630862 -0.775717
vn 0.440959 0.586112 -0.679727
vn 0.337104 0.510309 -0.791167
vn -0.026989 0.423335 -0.905571
vn -0.009251 0.371110 -0.928543
vn 0.043254 0.465742 -0.883863
vn 0.015805 0.376201 -0.926403
vn -0.053145 0.484285 -0.873295
vn -0.003029 0.508913 -0.860812
vn -0.108476 0.487593 -0.866306
vn 0.097288 0.483882 -0.869709
vn -0.000236 0.448113 -0.893977
vn 0.107902 0.437940 -0.892505
vn -0.104367 0.452913 -0.885425
vn 0.326336 0.357748 -0.874941
vn 0.148637 0.371933 -0.916282
s 1
g ivy_single_4
f 12/12/1 13/13/2 8/8/3 3/3/4
f 3/3/4 8/8/3 10/10/5 11/11/6
f 13/13/2 14/14/7 4/4/8 8/8/3
f 10/10/5 8/8/3 4/4/8 9/9/9
f 5/5/10 10/10/5 9/9/9 6/6/11
f 11/11/6 10/10/5 5/5/10
f 1/1/12 7/7/13 13/13/2 12/12/1
f 7/7/13 2/2/14 14/14/7 13/13/2
f 16/15/15 37/16/16 38/17/17 15/18/18
f 15/18/18 38/17/17 18/19/19 17/20/20
f 25/21/21 35/22/22 36/23/23 6/24/11
f 24/25/24 34/26/25 35/22/22 25/21/21
f 19/27/26 23/28/27 26/29/28 27/30/29
f 19/27/26 27/30/29 28/31/30 18/19/19
f 28/31/30 27/30/29 31/32/31 32/33/32
f 31/32/31 27/30/29 26/29/28 30/34/33
f 29/35/34 31/32/31 30/34/33 21/36/35
f 32/33/32 31/32/31 29/35/34 20/37/36
f 22/38/37 33/39/38 34/26/25 24/25/24
f 34/26/25 33/39/38 23/28/27 35/22/22
f 36/23/23 35/22/22 23/28/27 19/27/26
f 37/16/16 36/23/23 19/27/26
f 38/17/17 37/16/16 19/27/26 18/19/19
f 5/40/10 6/24/11 36/23/23
f 5/40/10 36/23/23 37/16/16 16/15/15
