# This file uses centimeters as units for non-parametric coordinates.

g default
v -1.465530 -0.798004 -0.800934
v 1.450043 -0.798004 -0.800934
v -1.565109 -2.527405 -6.179142
v 1.549637 -2.527405 -6.179142
v -1.016403 -9.253693 -12.324121
v 1.199280 -9.253693 -12.324121
v 0.000000 0.000000 0.000004
v 0.000534 -1.531464 -6.714279
v 0.176300 -9.253693 -12.324121
v 1.665482 -4.770844 -7.999517
v 0.199539 -4.565216 -8.665478
v -1.341110 -4.770844 -7.999517
v -1.507797 -0.080933 -2.629852
v 0.000229 0.915009 -3.165009
v 1.492325 -0.080933 -2.629852
v -9.704285 -17.309631 -14.743168
v -9.704285 -21.416229 -17.114094
v -5.072876 -36.149261 -24.864094
v -5.923965 -28.166718 -19.111645
v -1.651352 -36.149261 -24.864094
v 7.956680 -22.842926 -19.436554
v 5.827194 -27.473145 -21.687508
v 7.956680 -18.339935 -16.836758
v 5.121979 -12.520020 -14.114437
v -4.785782 -13.079926 -13.759029
v -3.231079 -36.149261 -24.864120
v -0.075287 -27.033142 -21.814938
v 0.109451 -21.443207 -19.647732
v 0.109451 -17.123260 -17.153584
v 0.547592 -12.477661 -14.471470
v -0.545502 -9.535248 -8.567816
v 2.215851 -9.257843 -7.153708
v 3.776901 -19.283020 -13.887495
v 5.741165 -19.085693 -12.881580
v 1.323105 -9.135101 -8.846682
v 4.834274 -19.176819 -13.346020
v 3.876770 -14.459625 -9.121412
v 2.868423 -14.404114 -10.392229
v 1.211288 -14.727386 -10.486437
v -0.409393 -4.778046 -8.050993
v 0.647087 -4.548431 -8.228239
v 1.136650 -4.622742 -7.259253
v -2.282761 -28.145355 -19.452475
v -0.924484 -32.300507 -21.289623
v 7.708145 -46.774109 -25.106316
v 3.789734 -38.740875 -20.905243
v 10.741440 -46.469421 -23.552956
v 15.890732 -32.213287 -15.241594
v 15.340927 -37.076050 -17.904562
v 14.401382 -27.657043 -13.227089
v 10.255432 -22.038635 -12.477068
v 1.346237 -23.468475 -16.622652
v 9.340958 -46.610107 -24.270176
v 10.137299 -37.167236 -20.726454
v 8.937622 -31.524475 -19.083750
v 7.508774 -27.153412 -17.151079
v 6.360718 -22.413879 -14.873896
v 3.177818 -14.550568 -9.430916
v 2.186203 -14.102234 -10.209753
v 0.600418 -26.067932 -18.119148
v -1.509247 -26.314575 -17.488497
v 2.830803 -14.614746 -10.181841
v -0.535233 -26.200684 -17.779648
v -1.189133 -21.920013 -13.061178
v -0.006042 -21.551147 -14.109570
v 1.673615 -21.585358 -13.916990
v 9.033798 -33.101990 -23.181730
v 8.789825 -37.178375 -25.591896
v 3.721527 -52.320068 -32.196178
v 5.333923 -44.303741 -26.657692
v 0.463715 -52.700897 -31.222271
v -8.540405 -40.557465 -22.838129
v -6.666824 -44.917419 -25.757208
v -8.272903 -36.087585 -20.195349
v -5.410950 -29.993683 -18.197487
v 4.184021 -29.447968 -20.696005
v 1.967834 -52.525055 -31.671906
v -1.129974 -43.822906 -27.544451
v -1.277664 -38.292572 -25.226801
v -1.021042 -34.004364 -22.691387
v -1.162247 -29.441711 -19.840141
v -4.468422 -27.622284 -16.516991
v -2.512062 -27.944092 -17.506096
v -3.415306 -27.795502 -17.049431
v 0.695480 -22.021973 -13.502838
v 0.075958 -21.880585 -13.488314
v -0.344040 -21.850983 -12.977272
v -13.992680 -34.501801 -13.655209
v -15.461227 -38.745178 -15.179226
v -16.292377 -54.579681 -22.045959
v -13.662720 -46.113892 -17.692688
v -13.271305 -55.076630 -23.573433
v -1.067520 -42.907349 -24.917606
v -4.409138 -47.347870 -25.311981
v 0.542763 -38.254364 -23.246525
v -0.172554 -31.881134 -20.385017
v -8.808475 -30.965027 -15.569895
v -14.666126 -54.847168 -22.868195
v -9.639050 -46.067200 -22.850956
v -7.965027 -40.404785 -21.796009
v -6.420193 -35.940918 -20.192810
v -4.372047 -31.204224 -18.664421
v 0.906456 -11.559204 -8.150356
v 2.566383 -12.247009 -8.964634
v -5.725674 -19.166138 -13.761501
v -3.875790 -19.932678 -14.668997
v 1.494453 -11.730713 -9.209055
v -2.273918 -17.840454 -12.993202
v -3.200020 -17.394379 -13.008568
v -3.876213 -17.176544 -12.207165
v -15.106339 -23.545563 -12.003036
v -15.339798 -23.930939 -12.153404
v -14.582104 -35.591614 -18.326679
v -13.512760 -36.034729 -18.851242
v -2.046654 -30.242645 -19.116020
v -1.446487 -29.251892 -18.729427
v -12.642529 -27.267578 -16.997971
v -9.751740 -22.970184 -15.473915
v -5.136341 -25.253204 -17.749611
v -7.719330 -29.258698 -19.263805
v 0.398872 -25.467682 -18.146976
v 2.069313 -24.699463 -17.976177
v 1.864830 -28.610413 -19.030373
v 3.649376 -27.789673 -18.847878
v 4.583961 -34.100983 -21.781799
v 6.572731 -33.186340 -21.578392
v 0.960121 -24.441010 -18.219177
v 2.801888 -28.126740 -19.650021
v 5.276939 -30.928619 -19.853458
v 4.454689 -31.256042 -20.376530
v 3.554344 -31.720856 -20.029640
v 0.767967 -26.112610 -19.145233
v 1.672020 -25.644135 -19.768250
v 2.486855 -25.322113 -18.969429
v 1.462929 -43.976227 -23.515911
v 1.663658 -44.378723 -23.668621
v 12.910454 -50.841125 -26.198830
v 14.060066 -50.312408 -26.081268
v 16.707710 -38.284668 -22.418854
v 16.191658 -37.249847 -22.026329
v 7.701378 -43.940125 -25.955957
v 5.695946 -39.224213 -24.257286
v 10.916725 -37.198425 -23.680714
v 12.892113 -41.499512 -25.295479
vt 0.100145 0.501695
vt 0.134710 0.501695
vt 0.100145 0.555783
vt 0.134710 0.555783
vt 0.100145 0.636477
vt 0.134710 0.636477
vt 0.117519 0.501695
vt 0.117519 0.555783
vt 0.117519 0.636477
vt 0.134710 0.593758
vt 0.117519 0.593758
vt 0.100145 0.593758
vt 0.100145 0.524655
vt 0.117519 0.524655
vt 0.134710 0.524655
vt 0.583769 0.963096
vt 0.555234 0.936007
vt 0.588510 0.934975
vt 0.591210 0.963096
vt 0.591697 0.895954
vt 0.530467 0.889441
vt 0.530467 0.851618
vt 0.591697 0.859668
vt 0.593041 0.816570
vt 0.550104 0.814262
vt 0.604505 0.748050
vt 0.615997 0.748050
vt 0.643101 0.819261
vt 0.629395 0.748050
vt 0.663085 0.869053
vt 0.663085 0.903547
vt 0.627306 0.933773
vt 0.599887 0.963096
vt 0.100145 0.524655
vt 0.117519 0.524655
vt 0.117519 0.555783
vt 0.100145 0.555783
vt 0.117519 0.593758
vt 0.100145 0.593758
vt 0.134710 0.524655
vt 0.134710 0.555783
vt 0.134710 0.593758
vt 0.117519 0.636477
vt 0.134710 0.636477
vt 0.100145 0.636477
vt 0.583769 0.963096
vt 0.555234 0.936007
vt 0.588510 0.934975
vt 0.591210 0.963096
vt 0.591697 0.895954
vt 0.530467 0.889441
vt 0.530467 0.851618
vt 0.591697 0.859668
vt 0.593041 0.816570
vt 0.550104 0.814262
vt 0.604505 0.748050
vt 0.615997 0.748050
vt 0.643101 0.819261
vt 0.629395 0.748050
vt 0.663085 0.869053
vt 0.663085 0.903547
vt 0.627306 0.933773
vt 0.599887 0.963096
vt 0.100145 0.555783
vt 0.117519 0.555783
vt 0.100145 0.593758
vt 0.117519 0.593758
vt 0.134710 0.555783
vt 0.134710 0.593758
vt 0.117519 0.636477
vt 0.134710 0.636477
vt 0.100145 0.636477
vt 0.583769 0.963096
vt 0.591210 0.963096
vt 0.588510 0.934975
vt 0.555234 0.936007
vt 0.591697 0.895954
vt 0.591697 0.859668
vt 0.530467 0.851618
vt 0.530467 0.889441
vt 0.593041 0.816570
vt 0.615997 0.748050
vt 0.604505 0.748050
vt 0.550104 0.814262
vt 0.643101 0.819261
vt 0.629395 0.748050
vt 0.663085 0.869053
vt 0.663085 0.903547
vt 0.627306 0.933773
vt 0.599887 0.963096
vt 0.117519 0.593758
vt 0.100145 0.593758
vt 0.134710 0.593758
vt 0.117519 0.636477
vt 0.134710 0.636477
vt 0.100145 0.636477
vt 0.583769 0.963096
vt 0.555234 0.936007
vt 0.588510 0.934975
vt 0.591210 0.963096
vt 0.591697 0.895954
vt 0.530467 0.889441
vt 0.530467 0.851618
vt 0.591697 0.859668
vt 0.593041 0.816570
vt 0.550104 0.814262
vt 0.604505 0.748050
vt 0.615997 0.748050
vt 0.643101 0.819261
vt 0.629395 0.748050
vt 0.663085 0.869053
vt 0.663085 0.903547
vt 0.627306 0.933773
vt 0.599887 0.963096
vt 0.117519 0.555783
vt 0.100145 0.555783
vt 0.117519 0.593758
vt 0.100145 0.593758
vt 0.134710 0.555783
vt 0.134710 0.593758
vt 0.108832 0.636477
vt 0.134710 0.636477
vt 0.303273 0.647703
vt 0.367811 0.651198
vt 0.352253 0.715599
vt 0.327002 0.715599
vt 0.350425 0.495945
vt 0.371314 0.589293
vt 0.305017 0.590291
vt 0.335829 0.495946
vt 0.443407 0.622775
vt 0.443407 0.628230
vt 0.237259 0.627708
vt 0.237259 0.613682
vt 0.100145 0.524655
vt 0.117519 0.524655
vt 0.117519 0.555783
vt 0.100145 0.555783
vt 0.117519 0.593758
vt 0.100145 0.593758
vt 0.134710 0.524655
vt 0.134710 0.555783
vt 0.134710 0.593758
vt 0.108832 0.636477
vt 0.134710 0.636477
vt 0.100145 0.501695
vt 0.117519 0.501695
vt 0.134710 0.501695
vt 0.303273 0.647703
vt 0.367811 0.651198
vt 0.352253 0.715599
vt 0.327002 0.715599
vt 0.350425 0.495945
vt 0.371314 0.589293
vt 0.305017 0.590291
vt 0.335829 0.495946
vt 0.443407 0.622775
vt 0.443407 0.628230
vt 0.237259 0.627708
vt 0.237259 0.613682
vn -0.601315 0.780203 -0.172348
vn -0.000376 0.947196 -0.320654
vn -0.007569 0.744493 -0.667587
vn -0.545992 0.595406 -0.589393
vn 0.006884 0.626131 -0.779688
vn -0.347767 0.570455 -0.744070
vn 0.605374 0.777285 -0.171321
vn 0.551795 0.608344 -0.570473
vn 0.367059 0.584411 -0.723693
vn -0.033799 0.575786 -0.816902
vn 0.121828 0.576315 -0.808096
vn -0.168109 0.545886 -0.820822
vn -0.514949 0.813522 0.270204
vn -0.000518 0.949005 0.315259
vn 0.518965 0.811191 0.269525
vn 0.091472 0.481779 -0.871506
vn -0.046184 0.490914 -0.869983
vn -0.068798 0.490067 -0.868966
vn 0.105996 0.488738 -0.865968
vn 0.093926 0.443114 -0.891531
vn -0.114755 0.395450 -0.911291
vn -0.149192 0.334475 -0.930520
vn 0.061390 0.359773 -0.931018
vn 0.034502 0.311647 -0.949571
vn -0.212065 0.416898 -0.883869
vn -0.336685 0.305061 -0.890832
vn -0.353793 0.465336 -0.811353
vn -0.261992 0.384599 -0.885124
vn -0.212330 0.484350 -0.848717
vn -0.195412 0.477889 -0.856409
vn -0.175963 0.108704 -0.978377
vn 0.439439 0.186613 -0.878674
vn 0.399098 0.315526 -0.860909
vn -0.135328 0.214103 -0.967392
vn 0.354376 0.516966 -0.779207
vn -0.028231 0.412524 -0.910509
vn 0.876791 0.191418 -0.441132
vn 0.825050 0.319264 -0.466223
vn 0.691836 0.494375 -0.526266
vn 0.305835 0.547344 -0.779025
vn 0.439740 0.561979 -0.700577
vn 0.190542 0.505504 -0.841522
vn 0.448133 0.463371 -0.764502
vn 0.324794 0.460249 -0.826245
vn 0.304335 0.457421 -0.835552
vn 0.458011 0.471750 -0.753444
vn 0.462045 0.424535 -0.778643
vn 0.289254 0.357941 -0.887812
vn 0.271579 0.293626 -0.916531
vn 0.456818 0.337553 -0.823029
vn 0.444673 0.286719 -0.848562
vn 0.189009 0.371394 -0.909034
vn 0.089139 0.248757 -0.964455
vn 0.026940 0.409033 -0.912122
vn 0.147463 0.334760 -0.930694
vn 0.168199 0.439515 -0.882347
vn 0.187150 0.434370 -0.881078
vn 0.384734 0.385521 -0.838662
vn 0.199496 0.520996 -0.829919
vn -0.198346 0.586476 -0.785305
vn 0.027746 0.484314 -0.874454
vn -0.448698 0.556324 -0.699409
vn -0.386847 0.514501 -0.765270
vn -0.263044 0.577580 -0.772793
vn -0.408761 0.560764 -0.720040
vn -0.133106 0.562824 -0.815789
vn -0.257461 0.494721 -0.830040
vn -0.387998 0.470322 -0.792625
vn -0.235547 0.496391 -0.835532
vn -0.193885 0.407560 -0.892358
vn -0.391974 0.431659 -0.812420
vn -0.400980 0.475606 -0.782952
vn -0.160141 0.350839 -0.922641
vn -0.095650 0.439656 -0.893059
vn -0.338076 0.307749 -0.889379
vn -0.363469 0.352541 -0.862325
vn 0.032872 0.342398 -0.938980
vn 0.054935 0.503423 -0.862292
vn -0.045043 0.413115 -0.909564
vn -0.092472 0.506646 -0.857181
vn -0.110100 0.498361 -0.859950
vn -0.352185 0.519014 -0.778839
vn -0.261913 0.624473 -0.735822
vn -0.135304 0.586766 -0.798373
vn -0.243598 0.498000 -0.832260
vn -0.378704 0.648202 -0.660619
vn -0.449793 0.498659 -0.740963
vn -0.276237 0.390326 -0.878259
vn -0.396243 0.419451 -0.816733
vn -0.415820 0.421985 -0.805619
vn -0.260225 0.395532 -0.880816
vn -0.286839 0.350206 -0.891672
vn -0.484567 0.331901 -0.809343
vn -0.529423 0.275206 -0.802480
vn -0.341395 0.269523 -0.900448
vn -0.378098 0.224458 -0.898143
vn -0.555894 0.369426 -0.744652
vn -0.679398 0.276688 -0.679604
vn -0.643201 0.443712 -0.624029
vn -0.603519 0.344733 -0.718974
vn -0.533754 0.438856 -0.722850
vn -0.522953 0.429395 -0.736302
vn -0.478533 0.735761 -0.479232
vn -0.105513 0.625406 -0.773133
vn -0.118361 0.626001 -0.770787
vn -0.465749 0.739730 -0.485672
vn 0.291681 0.367147 -0.883247
vn 0.202903 0.426521 -0.881425
vn -0.196997 0.572695 -0.795746
vn -0.097244 0.527587 -0.843917
vn -0.038152 0.452474 -0.890961
vn -0.306440 0.567742 -0.764044
vn -0.409266 0.238247 -0.880761
vn -0.473556 0.365166 -0.801498
vn -0.139250 0.225632 -0.964210
vn -0.290701 0.188539 -0.938054
vn -0.574181 0.488782 -0.656817
vn -0.481363 0.595553 -0.643123
vn 0.113038 0.335811 -0.935122
vn 0.060792 0.195115 -0.978895
vn -0.592852 0.022782 -0.804989
vn -0.015283 0.247735 -0.968707
vn 0.027386 0.146532 -0.988827
vn -0.462507 -0.113769 -0.879286
vn -0.057705 0.390234 -0.918906
vn -0.478406 0.092997 -0.873200
vn 0.498775 0.524067 -0.690346
vn 0.525604 0.360746 -0.770456
vn 0.222397 0.496780 -0.838897
vn -0.137348 0.410266 -0.901564
vn -0.027878 0.456814 -0.889125
vn -0.696174 0.407456 -0.591034
vn -0.269199 0.725044 -0.633911
vn 0.239754 0.835883 -0.493779
vn 0.078586 0.454079 -0.887489
vn -0.210482 0.325160 -0.921937
vn 0.010458 0.045819 -0.998895
vn -0.149225 0.075121 -0.985946
vn 0.210281 0.239470 -0.947859
vn 0.137921 0.103876 -0.984981
vn -0.357298 0.064843 -0.931737
vn -0.384122 0.201030 -0.901131
vn 0.264283 0.485612 -0.833268
vn 0.351122 0.359441 -0.864590
s 1
g ivy_clump_1
f 13/13/1 14/14/2 8/8/3 3/3/4
f 3/3/4 8/8/3 11/11/5 12/12/6
f 14/14/2 15/15/7 4/4/8 8/8/3
f 11/11/5 8/8/3 4/4/8 10/10/9
f 9/9/10 11/11/5 10/10/9 6/6/11
f 12/12/6 11/11/5 9/9/10 5/5/12
f 1/1/13 7/7/14 14/14/2 13/13/1
f 7/7/14 2/2/15 15/15/7 14/14/2
f 6/16/11 24/17/16 30/18/17 9/19/10
f 29/20/18 23/21/19 21/22/20 28/23/21
f 30/18/17 24/17/16 23/21/19 29/20/18
f 27/24/22 22/25/23 20/26/24 26/27/25
f 28/23/21 21/22/20 22/25/23 27/24/22
f 19/28/26 27/24/22 26/27/25 18/29/27
f 17/30/28 28/23/21 27/24/22 19/28/26
f 16/31/29 29/20/18 28/23/21 17/30/28
f 25/32/30 30/18/17 29/20/18 16/31/29
f 9/19/10 30/18/17 25/32/30 5/33/12
s 2
f 40/34/31 41/35/32 35/36/33 31/37/34
f 31/37/34 35/36/33 38/38/35 39/39/36
f 41/35/32 42/40/37 32/41/38 35/36/33
f 38/38/35 35/36/33 32/41/38 37/42/39
f 36/43/40 38/38/35 37/42/39 34/44/41
f 39/39/36 38/38/35 36/43/40 33/45/42
f 34/46/41 51/47/43 57/48/44 36/49/40
f 56/50/45 50/51/46 48/52/47 55/53/48
f 57/48/44 51/47/43 50/51/46 56/50/45
f 54/54/49 49/55/50 47/56/51 53/57/52
f 55/53/48 48/52/47 49/55/50 54/54/49
f 46/58/53 54/54/49 53/57/52 45/59/54
f 44/60/55 55/53/48 54/54/49 46/58/53
f 43/61/56 56/50/45 55/53/48 44/60/55
f 52/62/57 57/48/44 56/50/45 43/61/56
f 36/49/40 57/48/44 52/62/57 33/63/42
s 3
f 58/64/58 66/66/59 65/67/60 62/65/61
f 65/67/60 64/69/62 59/68/63 62/65/61
f 63/70/64 61/71/65 64/69/62 65/67/60
f 66/66/59 60/72/66 63/70/64 65/67/60
f 61/73/65 63/74/64 81/75/67 75/76/68
f 80/77/69 79/78/70 72/79/71 74/80/72
f 81/75/67 80/77/69 74/80/72 75/76/68
f 78/81/73 77/82/74 71/83/75 73/84/76
f 79/78/70 78/81/73 73/84/76 72/79/71
f 70/85/77 69/86/78 77/82/74 78/81/73
f 68/87/79 70/85/77 78/81/73 79/78/70
f 67/88/80 68/87/79 79/78/70 80/77/69
f 76/89/81 67/88/80 80/77/69 81/75/67
f 63/74/64 60/90/66 76/89/81 81/75/67
s 6
f 84/94/82 86/91/83 85/93/84 83/95/85
f 87/92/86 86/91/83 84/94/82 82/96/87
f 83/97/85 96/98/88 102/99/89 84/100/82
f 101/101/90 95/102/91 93/103/92 100/104/93
f 102/99/89 96/98/88 95/102/91 101/101/90
f 99/105/94 94/106/95 92/107/96 98/108/97
f 100/104/93 93/103/92 94/106/95 99/105/94
f 91/109/98 99/105/94 98/108/97 90/110/99
f 89/111/100 100/104/93 99/105/94 91/109/98
f 88/112/101 101/101/90 100/104/93 89/111/100
f 97/113/102 102/99/89 101/101/90 88/112/101
f 84/100/82 102/99/89 97/113/102 82/114/87
s 7
f 103/116/103 107/115/104 109/117/105 110/118/106
f 109/117/105 107/115/104 104/119/107 108/120/108
f 105/121/109 109/117/105 108/120/108 106/122/110
f 110/118/106 109/117/105 105/121/109
f 119/123/111 118/124/112 105/125/109 106/126/110
f 113/127/113 117/128/114 120/129/115 114/130/116
f 120/129/115 117/128/114 118/124/112 119/123/111
f 112/131/117 117/128/114 113/127/113
f 112/131/117 111/132/118 118/124/112 117/128/114
f 105/125/109 118/124/112 111/132/118
f 116/133/119 119/123/111 106/126/110
f 120/129/115 119/123/111 116/133/119 115/134/120
f 115/134/120 114/130/116 120/129/115
s 9
f 132/135/121 133/136/122 128/137/123 123/138/124
f 123/138/124 128/137/123 130/139/125 131/140/126
f 133/136/122 134/141/127 124/142/128 128/137/123
f 130/139/125 128/137/123 124/142/128 129/143/129
f 125/144/130 130/139/125 129/143/129 126/145/131
f 131/140/126 130/139/125 125/144/130
f 121/146/132 127/147/133 133/136/122 132/135/121
f 127/147/133 122/148/134 134/141/127 133/136/122
f 143/149/135 142/150/136 125/151/130 126/152/131
f 137/153/137 141/154/138 144/155/139 138/156/140
f 144/155/139 141/154/138 142/150/136 143/149/135
f 136/157/141 141/154/138 137/153/137
f 136/157/141 135/158/142 142/150/136 141/154/138
f 125/151/130 142/150/136 135/158/142
f 140/159/143 143/149/135 126/152/131
f 144/155/139 143/149/135 140/159/143 139/160/144
f 139/160/144 138/156/140 144/155/139
