# This file uses centimeters as units for non-parametric coordinates.

g default
v -1.453041 -1.106232 -0.233624
v 1.437675 -1.106232 -0.233624
v -1.494026 -3.930634 -3.934494
v 1.478676 -3.930634 -3.934494
v -1.090309 -13.841339 -11.020933
v 1.797112 -13.841339 -11.020933
v -0.000008 0.000000 -0.000008
v 0.000221 -3.638000 -5.026608
v 0.411888 -13.733582 -11.207569
v 1.507301 -9.090790 -6.589352
v 0.195656 -8.885132 -7.255310
v -1.182808 -9.090790 -6.589352
v -1.536491 -1.538818 -1.818649
v 0.000435 -0.884918 -2.741028
v 1.521141 -1.538818 -1.818649
v 1.797112 -13.841370 -11.020874
v 13.790428 -21.402466 -13.746513
v 17.813377 -26.534119 -16.709312
v 18.108467 -28.994232 -18.129646
v 16.926445 -30.327148 -19.482327
v 13.020653 -27.693085 -19.659851
v 8.738319 -25.614838 -19.416573
v 3.844948 -21.822327 -17.226982
v 8.635399 -27.114288 -18.684021
v -1.090309 -13.841370 -11.020874
v -11.318550 -19.462677 -12.626648
v -15.594276 -24.538086 -15.556915
v -16.577980 -27.209045 -17.098999
v -15.126091 -28.000031 -18.341637
v -11.865715 -26.412720 -18.920662
v -5.136192 -21.867279 -17.252884
v -9.765800 -26.469177 -17.590317
v -1.271980 -44.042145 -26.762840
v 1.211479 -44.044617 -26.764256
v 0.411888 -13.733582 -11.207542
v -0.463707 -21.546356 -17.754723
v -0.141869 -26.929291 -20.992409
v 0.020042 -44.455200 -27.262882
v 4.994530 -36.671478 -23.785263
v -0.057137 -35.505402 -24.671841
v -5.535347 -35.648712 -23.194794
v -1.799530 -4.204926 -3.220474
v 0.908142 -3.295105 -2.636337
v 0.126846 -9.306030 -4.701492
v 3.019485 -8.334045 -4.077393
v 5.153900 -18.619110 -9.571543
v 6.906418 -18.030212 -9.193476
v -0.747299 -2.683655 -3.152603
v 1.764160 -8.654388 -5.491478
v 5.217880 -13.446411 -5.726500
v 3.960648 -13.778748 -6.697973
v 2.425674 -14.384644 -6.328924
v -1.171890 -5.196289 -4.137276
v 0.411880 -4.562592 -4.757156
v 1.614288 -4.260071 -3.536186
v 1.462570 -39.427307 -17.654568
v 0.907700 -28.463074 -13.146486
v 3.265427 -43.733429 -19.304138
v 7.437729 -37.398590 -18.262547
v 10.107956 -30.496857 -15.194527
v 13.991562 -46.476135 -20.810019
v 16.613281 -45.595184 -20.244413
v 25.326477 -34.430634 -13.760363
v 17.224243 -32.560699 -15.508181
v 24.011948 -31.290833 -12.557526
v 15.428146 -23.401917 -9.938379
v 17.023972 -33.017609 -15.038019
v 10.315933 -30.764587 -14.987696
v 7.531418 -37.680145 -17.697205
v 15.569870 -46.315887 -20.970095
v 17.012802 -39.092834 -17.862293
v 12.841019 -38.013397 -18.105499
v 10.695358 -42.007843 -19.554003
v 22.326675 -33.738312 -14.407484
v 23.123672 -32.442902 -14.023918
v 16.490524 -27.988403 -14.021692
v 8.284607 -24.521729 -13.424379
v 5.418427 -29.013947 -15.166338
v 4.201309 -38.321045 -18.383060
v 0.405411 -13.325226 -8.475536
v 2.983047 -13.343689 -9.837864
v -0.461929 -18.741730 -9.829987
v 2.291779 -18.761444 -11.285473
v -2.321823 -29.068237 -14.892223
v -0.653488 -29.080170 -15.774048
v 1.610229 -12.223145 -9.347267
v 0.397514 -18.632355 -11.555927
v 1.512711 -24.272217 -12.932701
v -0.105133 -24.163330 -12.857895
v -1.145386 -24.253174 -11.527767
v -0.396606 -14.431488 -9.887535
v 0.411880 -14.321716 -11.586529
v 2.255753 -14.450470 -11.289387
v -15.557938 -47.418671 -14.987621
v -10.244247 -36.953735 -13.228394
v -16.415085 -52.039124 -16.546677
v -11.068504 -47.399048 -19.463367
v -5.380768 -41.784058 -20.009979
v -10.282104 -58.041382 -23.702141
v -7.786331 -58.059235 -25.021294
v 5.576332 -50.416626 -27.396141
v -0.940353 -46.012177 -24.181950
v 6.201332 -47.047638 -26.259354
v 3.674042 -36.882050 -20.510357
v -0.906677 -46.390778 -23.611481
v -5.167915 -42.108704 -19.926113
v -10.714867 -47.707764 -19.030670
v -9.193748 -58.391907 -24.813393
v -4.289940 -52.080231 -24.645065
v -7.198112 -49.716003 -22.504715
v -10.718948 -52.780396 -21.571465
v 3.163589 -48.785919 -26.206100
v 4.324265 -47.822723 -26.636688
v 0.660355 -41.478760 -23.447433
v -4.027298 -35.579041 -18.658829
v -8.388252 -38.877625 -17.421692
v -13.739784 -47.233002 -17.419678
v -0.653015 -20.453491 -14.276367
v 2.096375 -19.729736 -14.799221
v 0.936783 -27.052368 -14.824055
v 3.764145 -26.308105 -15.361786
v 3.414520 -38.105988 -19.327505
v 6.160767 -37.383087 -19.849768
v 0.387680 -19.097626 -14.960678
v 2.154526 -26.708679 -16.206146
v 4.791794 -37.681488 -19.802902
v 4.994110 -31.822693 -16.685638
v 3.614685 -32.144409 -17.132790
v 2.435532 -32.496216 -16.199062
v -0.601288 -21.731110 -15.311413
v 0.657059 -21.376740 -16.701168
v 2.306839 -20.965576 -15.864479
v 6.160767 -37.383087 -19.849762
v 19.456726 -42.149384 -22.839504
v 24.443970 -46.722656 -25.186611
v 25.281219 -49.324036 -26.016336
v 24.395096 -51.230652 -26.779930
v 19.899536 -49.813629 -26.863821
v 15.252335 -48.890259 -26.346828
v 9.740189 -45.991180 -24.264912
v 15.667587 -50.104706 -25.275274
v 3.414536 -38.105988 -19.327438
v -4.863388 -46.326416 -17.685644
v -7.781784 -52.916168 -18.513927
v -8.113098 -56.066986 -19.178883
v -6.638779 -56.780945 -20.441620
v -4.059662 -54.651978 -21.958347
v 1.208359 -48.288635 -22.654575
v -1.901352 -53.810822 -21.054634
v 10.258804 -70.525024 -27.207287
v 12.621399 -69.905945 -27.657238
v 4.791794 -37.681488 -19.802868
v 5.505005 -46.959778 -24.054501
v 7.014816 -52.768799 -25.935390
v 11.552673 -70.723053 -27.821026
v 14.412323 -61.294128 -27.234951
v 9.174103 -61.722076 -27.442585
v 4.165894 -62.818237 -25.007568
v 2.289665 -30.196747 -13.296616
v 4.872093 -30.549194 -14.603302
v 1.205811 -35.725494 -13.725327
v 3.964630 -36.102020 -15.121246
v -1.052429 -46.678589 -16.989151
v 0.619019 -46.906677 -17.834908
v 3.544235 -29.307678 -14.326912
v 2.078972 -35.945068 -15.433762
v 2.966743 -41.776764 -15.821381
v 1.354424 -41.592194 -15.786652
v 0.303688 -41.413330 -14.473892
v 1.450485 -31.493622 -14.510986
v 2.272636 -31.706238 -16.193619
v 4.107803 -31.856293 -15.855545
v -15.038895 -64.235016 -14.144440
v -9.305153 -53.844238 -14.115097
v -16.078316 -69.015015 -14.909424
v -10.526833 -65.154724 -18.501373
v -4.607605 -59.945892 -19.918411
v -10.158936 -76.384796 -20.866562
v -7.658493 -76.726044 -22.131729
v 6.023674 -70.137726 -25.596191
v -0.322762 -64.994720 -23.257324
v 6.781586 -66.652374 -25.038361
v 4.645836 -55.565857 -21.126305
v -0.308144 -65.272064 -22.630630
v -4.408897 -60.259827 -19.778076
v -10.188797 -65.399414 -18.018143
v -9.079704 -76.962097 -21.888474
v -3.918869 -70.914551 -22.728912
v -6.738571 -68.107056 -21.056946
v -10.389053 -70.825378 -19.663223
v 3.673973 -68.233551 -24.730240
v 4.876144 -67.404602 -25.302887
v 1.460701 -60.470093 -23.280762
v -3.005234 -53.660706 -19.620346
v -7.506569 -56.524475 -17.898155
v -13.200615 -64.537598 -16.549515
vt 0.102949 0.518141
vt 0.129903 0.518141
vt 0.102949 0.560319
vt 0.129903 0.560319
vt 0.102949 0.623246
vt 0.129903 0.623246
vt 0.116497 0.518141
vt 0.116497 0.560319
vt 0.116497 0.623246
vt 0.129903 0.589933
vt 0.116497 0.589933
vt 0.102949 0.589933
vt 0.102949 0.529009
vt 0.116497 0.529009
vt 0.129903 0.529009
vt 0.280782 0.888201
vt 0.244031 0.935361
vt 0.214767 0.892256
vt 0.249631 0.874224
vt 0.277800 0.865553
vt 0.316378 0.920057
vt 0.318028 0.992908
vt 0.212620 0.871592
vt 0.221219 0.858275
vt 0.418665 0.883554
vt 0.430662 0.884978
vt 0.381710 0.919679
vt 0.340814 0.992908
vt 0.347720 0.919876
vt 0.365525 0.992908
vt 0.457785 0.909022
vt 0.454379 0.877085
vt 0.464941 0.886588
vt 0.426682 0.951654
vt 0.345379 0.874189
vt 0.344763 0.806779
vt 0.384613 0.811248
vt 0.308015 0.802657
vt 0.344201 0.745383
vt 0.335535 0.745373
vt 0.353600 0.745394
vt 0.100145 0.524655
vt 0.117519 0.524655
vt 0.117519 0.555783
vt 0.100145 0.555783
vt 0.117519 0.593758
vt 0.100145 0.593758
vt 0.134710 0.524655
vt 0.134710 0.555783
vt 0.134710 0.593758
vt 0.108832 0.636477
vt 0.134710 0.636477
vt 0.100145 0.501695
vt 0.117519 0.501695
vt 0.134710 0.501695
vt 0.403708 0.410056
vt 0.377430 0.389727
vt 0.411468 0.326273
vt 0.431419 0.328293
vt 0.387334 0.323828
vt 0.431419 0.292277
vt 0.289449 0.411390
vt 0.298635 0.369662
vt 0.345331 0.414778
vt 0.333739 0.469752
vt 0.253185 0.332395
vt 0.263939 0.323905
vt 0.349156 0.367856
vt 0.306224 0.335189
vt 0.307929 0.331164
vt 0.348058 0.363308
vt 0.386517 0.320365
vt 0.351999 0.306007
vt 0.377673 0.282908
vt 0.325911 0.288717
vt 0.356586 0.239310
vt 0.346843 0.239310
vt 0.367378 0.239310
vt 0.253185 0.306134
vt 0.272822 0.316891
vt 0.347466 0.469752
vt 0.100145 0.524655
vt 0.117519 0.524655
vt 0.117519 0.555783
vt 0.100145 0.555783
vt 0.117519 0.593758
vt 0.100145 0.593758
vt 0.134710 0.524655
vt 0.134710 0.555783
vt 0.134710 0.593758
vt 0.108832 0.636477
vt 0.134710 0.636477
vt 0.100145 0.501695
vt 0.117519 0.501695
vt 0.134710 0.501695
vt 0.403708 0.410056
vt 0.377430 0.389727
vt 0.411468 0.326273
vt 0.431419 0.328293
vt 0.387334 0.323828
vt 0.431419 0.292277
vt 0.289449 0.411390
vt 0.298635 0.369662
vt 0.345331 0.414778
vt 0.333739 0.469752
vt 0.253185 0.332395
vt 0.263939 0.323905
vt 0.349156 0.367856
vt 0.306224 0.335189
vt 0.307929 0.331164
vt 0.348058 0.363308
vt 0.386517 0.320365
vt 0.351999 0.306007
vt 0.377673 0.282908
vt 0.325911 0.288717
vt 0.356586 0.239310
vt 0.346843 0.239310
vt 0.367378 0.239310
vt 0.253185 0.306134
vt 0.272822 0.316891
vt 0.347466 0.469752
vt 0.102949 0.529009
vt 0.116497 0.529009
vt 0.116497 0.560319
vt 0.102949 0.560319
vt 0.116497 0.589933
vt 0.102949 0.589933
vt 0.129903 0.529009
vt 0.129903 0.560319
vt 0.129903 0.589933
vt 0.116497 0.623246
vt 0.129903 0.623246
vt 0.102949 0.623246
vt 0.102949 0.518141
vt 0.116497 0.518141
vt 0.129903 0.518141
vt 0.280782 0.888201
vt 0.244031 0.935361
vt 0.214767 0.892256
vt 0.249631 0.874224
vt 0.277800 0.865553
vt 0.316378 0.920057
vt 0.318028 0.992908
vt 0.212620 0.871592
vt 0.221219 0.858275
vt 0.418665 0.883554
vt 0.430662 0.884978
vt 0.381710 0.919679
vt 0.340814 0.992908
vt 0.347720 0.919876
vt 0.365525 0.992908
vt 0.457785 0.909022
vt 0.454379 0.877085
vt 0.464941 0.886588
vt 0.426682 0.951654
vt 0.345379 0.874189
vt 0.344763 0.806779
vt 0.384613 0.811248
vt 0.308015 0.802657
vt 0.344201 0.745383
vt 0.335535 0.745373
vt 0.353600 0.745394
vt 0.100145 0.524655
vt 0.117519 0.524655
vt 0.117519 0.555783
vt 0.100145 0.555783
vt 0.117519 0.593758
vt 0.100145 0.593758
vt 0.134710 0.524655
vt 0.134710 0.555783
vt 0.134710 0.593758
vt 0.108832 0.636477
vt 0.134710 0.636477
vt 0.100145 0.501695
vt 0.117519 0.501695
vt 0.134710 0.501695
vt 0.403708 0.410056
vt 0.377430 0.389727
vt 0.411468 0.326273
vt 0.431419 0.328293
vt 0.387334 0.323828
vt 0.431419 0.292277
vt 0.289449 0.411390
vt 0.298635 0.369662
vt 0.345331 0.414778
vt 0.333739 0.469752
vt 0.253185 0.332395
vt 0.263939 0.323905
vt 0.349156 0.367856
vt 0.306224 0.335189
vt 0.307929 0.331164
vt 0.348058 0.363308
vt 0.386517 0.320365
vt 0.351999 0.306007
vt 0.377673 0.282908
vt 0.325911 0.288717
vt 0.356586 0.239310
vt 0.346843 0.239310
vt 0.367378 0.239310
vt 0.253185 0.306134
vt 0.272822 0.316891
vt 0.347466 0.469752
vn -0.574592 0.674906 -0.462976
vn -0.000149 0.779201 -0.626774
vn -0.007189 0.497715 -0.867311
vn -0.558306 0.428720 -0.710277
vn 0.002830 0.558082 -0.829781
vn -0.431069 0.473340 -0.768199
vn 0.578681 0.672680 -0.461117
vn 0.563590 0.441552 -0.698139
vn 0.440764 0.495412 -0.748528
vn 0.006535 0.659739 -0.751466
vn 0.298742 0.636670 -0.710918
vn -0.283199 0.625712 -0.726831
vn -0.532825 0.812311 -0.237167
vn -0.000597 0.959957 -0.280145
vn 0.536870 0.809912 -0.236247
vn 0.206606 0.621881 -0.755366
vn 0.241926 0.647384 -0.722749
vn 0.297428 0.610204 -0.734294
vn 0.288997 0.623485 -0.726462
vn 0.201490 0.390769 -0.898166
vn 0.208126 0.601095 -0.771601
vn 0.188721 0.641741 -0.743339
vn 0.363766 0.492820 -0.790445
vn 0.363766 0.492820 -0.790445
vn -0.191242 0.328079 -0.925089
vn -0.270124 0.623785 -0.733434
vn -0.235374 0.568384 -0.788378
vn 0.006394 0.643213 -0.765660
vn -0.018457 0.540017 -0.841452
vn -0.172936 0.656156 -0.734542
vn -0.295072 0.642404 -0.707283
vn -0.380585 0.547812 -0.745022
vn -0.380585 0.547812 -0.745022
vn -0.273092 0.661584 -0.698375
vn -0.023711 0.419690 -0.907358
vn -0.015791 0.366570 -0.930256
vn -0.273129 0.369966 -0.887990
vn 0.242751 0.357831 -0.901681
vn -0.026226 0.273134 -0.961618
vn 0.239290 0.264471 -0.934235
vn -0.260608 0.264515 -0.928502
vn -0.440655 0.147643 -0.885452
vn 0.105986 0.337901 -0.935195
vn 0.107161 0.259923 -0.959665
vn -0.388820 0.055415 -0.919646
vn 0.068077 0.431347 -0.899614
vn -0.374616 0.177851 -0.909963
vn 0.585334 0.479870 -0.653536
vn 0.602513 0.386620 -0.698214
vn 0.400771 0.512223 -0.759612
vn -0.135117 0.505177 -0.852373
vn 0.211962 0.602921 -0.769128
vn -0.482416 0.389071 -0.784792
vn -0.076331 0.635398 -0.768403
vn 0.406312 0.739335 -0.536931
vn -0.310494 0.403564 -0.860657
vn -0.205573 0.389585 -0.897755
vn -0.212643 0.310701 -0.926417
vn -0.302775 0.301905 -0.903980
vn 0.070301 0.314038 -0.946804
vn -0.163958 0.192984 -0.967406
vn 0.289437 0.620871 -0.728523
vn 0.238449 0.505489 -0.829231
vn 0.027105 0.520504 -0.853429
vn 0.410422 0.620623 -0.668118
vn 0.362281 0.505066 -0.783365
vn 0.076305 0.297445 -0.951685
vn 0.112990 0.251272 -0.961299
vn 0.124385 0.361662 -0.923974
vn 0.134322 0.264121 -0.955090
vn 0.027104 0.350186 -0.936288
vn 0.063707 0.390382 -0.918446
vn -0.026913 0.336773 -0.941201
vn 0.166043 0.397127 -0.902619
vn 0.091390 0.330398 -0.939407
vn 0.194308 0.354688 -0.914571
vn -0.008737 0.303323 -0.952848
vn 0.415383 0.348944 -0.840057
vn 0.256412 0.302590 -0.917983
vn -0.876499 0.301184 -0.375550
vn -0.448885 0.269005 -0.852138
vn -0.465440 0.160109 -0.870477
vn -0.869963 0.125547 -0.476867
vn -0.409149 0.405911 -0.817210
vn -0.803800 0.307918 -0.509011
vn 0.191716 0.292750 -0.936772
vn 0.107416 0.136536 -0.984794
vn -0.057192 0.372910 -0.926103
vn -0.507745 0.539930 -0.671320
vn -0.176949 0.519502 -0.835947
vn -0.694293 0.684970 -0.220848
vn -0.279264 0.795294 -0.538070
vn 0.220502 0.676548 -0.702610
vn -0.667059 0.500073 -0.552232
vn -0.617916 0.454007 -0.641917
vn -0.661803 0.382178 -0.644947
vn -0.715425 0.402250 -0.571281
vn -0.468035 0.295113 -0.832978
vn -0.683065 0.255974 -0.684032
vn -0.090137 0.510808 -0.854957
vn -0.221208 0.420031 -0.880137
vn -0.386405 0.502488 -0.773432
vn 0.036147 0.470518 -0.881650
vn -0.102122 0.378972 -0.919756
vn -0.471084 0.277583 -0.837274
vn -0.462522 0.222307 -0.858285
vn -0.401791 0.322402 -0.857101
vn -0.439721 0.227511 -0.868841
vn -0.483370 0.342966 -0.805437
vn -0.434946 0.368921 -0.821413
vn -0.529281 0.347675 -0.773941
vn -0.348695 0.342180 -0.872540
vn -0.443741 0.303692 -0.843128
vn -0.346777 0.293186 -0.890948
vn -0.532166 0.310422 -0.787679
vn -0.140148 0.215308 -0.966437
vn -0.317324 0.224021 -0.921477
vn -0.741616 -0.071328 -0.667022
vn -0.197174 0.040407 -0.979535
vn -0.191385 -0.002729 -0.981511
vn -0.692657 -0.155940 -0.704208
vn -0.248923 0.289113 -0.924365
vn -0.630428 0.118866 -0.767093
vn 0.409068 0.231296 -0.882704
vn 0.395796 0.147854 -0.906358
vn 0.194579 0.363071 -0.911218
vn -0.266259 0.406013 -0.874219
vn 0.022774 0.468982 -0.882914
vn -0.529338 0.308700 -0.790256
vn -0.758038 0.357336 -0.545610
vn -0.297501 0.579854 -0.758461
vn 0.260085 0.623821 -0.737023
vn -0.065455 0.419898 -0.905208
vn -0.035685 0.461422 -0.886463
vn 0.026595 0.437626 -0.898764
vn 0.015589 0.450003 -0.892891
vn -0.019057 0.164702 -0.986159
vn -0.059769 0.396505 -0.916085
vn -0.086899 0.437174 -0.895169
vn 0.117506 0.329799 -0.936710
vn 0.117506 0.329799 -0.936710
vn -0.377390 0.000768 -0.926054
vn -0.517047 0.308375 -0.798478
vn -0.473955 0.250480 -0.844172
vn -0.263168 0.386721 -0.883849
vn -0.265217 0.263793 -0.927401
vn -0.434088 0.362438 -0.824746
vn -0.543310 0.326633 -0.773385
vn -0.601401 0.207027 -0.771658
vn -0.601401 0.207027 -0.771658
vn -0.526980 0.352396 -0.773375
vn -0.242603 0.132614 -0.961019
vn -0.222207 0.078982 -0.971795
vn -0.463342 0.029389 -0.885692
vn 0.029325 0.143502 -0.989216
vn -0.208534 -0.018997 -0.977831
vn 0.049474 0.047008 -0.997669
vn -0.425352 -0.076516 -0.901788
vn -0.861040 0.267886 -0.432258
vn -0.432405 0.138216 -0.891023
vn -0.453359 0.028538 -0.890871
vn -0.861231 0.077473 -0.502275
vn -0.387212 0.277368 -0.879281
vn -0.787359 0.248952 -0.563993
vn 0.209100 0.121634 -0.970300
vn 0.118670 -0.036973 -0.992245
vn -0.036315 0.212322 -0.976525
vn -0.480994 0.438035 -0.759454
vn -0.150386 0.376757 -0.914023
vn -0.663927 0.664765 -0.342475
vn -0.242882 0.702965 -0.668467
vn 0.252440 0.538147 -0.804159
vn -0.642509 0.425366 -0.637374
vn -0.594807 0.362821 -0.717333
vn -0.641624 0.293332 -0.708714
vn -0.694789 0.327742 -0.640198
vn -0.450553 0.167937 -0.876812
vn -0.667886 0.163276 -0.726133
vn -0.063898 0.361499 -0.930181
vn -0.198485 0.273078 -0.941293
vn -0.360724 0.378985 -0.852202
vn 0.060755 0.312250 -0.948055
vn -0.080982 0.221166 -0.971868
vn -0.454305 0.150068 -0.878115
vn -0.447933 0.091736 -0.889349
vn -0.383103 0.188074 -0.904356
vn -0.424871 0.094158 -0.900344
vn -0.464047 0.220347 -0.857967
vn -0.414500 0.241262 -0.877487
vn -0.509901 0.232169 -0.828310
vn -0.329142 0.202804 -0.922245
vn -0.425865 0.173697 -0.887957
vn -0.329152 0.151359 -0.932067
vn -0.514250 0.193270 -0.835580
vn -0.125503 0.053617 -0.990643
vn -0.302430 0.076899 -0.950065
s 1
g ivy_clump_2
f 13/13/1 14/14/2 8/8/3 3/3/4
f 3/3/4 8/8/3 11/11/5 12/12/6
f 14/14/2 15/15/7 4/4/8 8/8/3
f 11/11/5 8/8/3 4/4/8 10/10/9
f 9/9/10 11/11/5 10/10/9 6/6/11
f 12/12/6 11/11/5 9/9/10 5/5/12
f 1/1/13 7/7/14 14/14/2 13/13/1
f 7/7/14 2/2/15 15/15/7 14/14/2
s 2
f 22/16/16 17/17/17 18/18/18 21/19/19
f 22/16/16 24/20/20 23/21/21
f 16/22/22 17/17/17 22/16/16 23/21/21
f 21/19/19 18/18/18 19/23/23 20/24/24
f 32/25/25 30/26/26 31/27/27
f 35/28/28 36/29/29 31/27/27 25/30/30
f 27/31/31 30/26/26 29/32/32 28/33/33
f 26/34/34 31/27/27 30/26/26 27/31/31
f 25/30/30 31/27/27 26/34/34
f 32/25/25 37/35/35 40/36/36 41/37/37
f 31/27/27 36/29/29 37/35/35 32/25/25
f 16/22/22 23/21/21 36/29/29 35/28/28
f 37/35/35 36/29/29 23/21/21 24/20/20
f 40/36/36 37/35/35 24/20/20 39/38/38
f 38/39/39 40/36/36 39/38/38 34/40/40
f 41/37/37 40/36/36 38/39/39 33/41/41
s 5
f 53/42/42 54/43/43 49/44/44 44/45/45
f 44/45/45 49/44/44 51/46/46 52/47/47
f 54/43/43 55/48/48 45/49/49 49/44/44
f 51/46/46 49/44/44 45/49/49 50/50/50
f 46/51/51 51/46/46 50/50/50 47/52/52
f 52/47/47 51/46/46 46/51/51
f 42/53/53 48/54/54 54/43/43 53/42/42
f 48/54/54 43/55/55 55/48/48 54/43/43
f 57/56/56 78/57/57 79/58/58 56/59/59
f 56/59/59 79/58/58 59/60/60 58/61/61
f 66/62/62 76/63/63 77/64/64 47/65/52
f 65/66/65 75/67/66 76/63/63 66/62/62
f 60/68/67 64/69/68 67/70/69 68/71/70
f 60/68/67 68/71/70 69/72/71 59/60/60
f 69/72/71 68/71/70 72/73/72 73/74/73
f 72/73/72 68/71/70 67/70/69 71/75/74
f 70/76/75 72/73/72 71/75/74 62/77/76
f 73/74/73 72/73/72 70/76/75 61/78/77
f 63/79/78 74/80/79 75/67/66 65/66/65
f 75/67/66 74/80/79 64/69/68 76/63/63
f 77/64/64 76/63/63 64/69/68 60/68/67
f 78/57/57 77/64/64 60/68/67
f 79/58/58 78/57/57 60/68/67 59/60/60
f 46/81/51 47/65/52 77/64/64
f 46/81/51 77/64/64 78/57/57 57/56/56
s 8
f 91/82/80 92/83/81 87/84/82 82/85/83
f 82/85/83 87/84/82 89/86/84 90/87/85
f 92/83/81 93/88/86 83/89/87 87/84/82
f 89/86/84 87/84/82 83/89/87 88/90/88
f 84/91/89 89/86/84 88/90/88 85/92/90
f 90/87/85 89/86/84 84/91/89
f 80/93/91 86/94/92 92/83/81 91/82/80
f 86/94/92 81/95/93 93/88/86 92/83/81
f 95/96/94 116/97/95 117/98/96 94/99/97
f 94/99/97 117/98/96 97/100/98 96/101/99
f 104/102/100 114/103/101 115/104/102 85/105/90
f 103/106/103 113/107/104 114/103/101 104/102/100
f 98/108/105 102/109/106 105/110/107 106/111/108
f 98/108/105 106/111/108 107/112/109 97/100/98
f 107/112/109 106/111/108 110/113/110 111/114/111
f 110/113/110 106/111/108 105/110/107 109/115/112
f 108/116/113 110/113/110 109/115/112 100/117/114
f 111/114/111 110/113/110 108/116/113 99/118/115
f 101/119/116 112/120/117 113/107/104 103/106/103
f 113/107/104 112/120/117 102/109/106 114/103/101
f 115/104/102 114/103/101 102/109/106 98/108/105
f 116/97/95 115/104/102 98/108/105
f 117/98/96 116/97/95 98/108/105 97/100/98
f 84/121/89 85/105/90 115/104/102
f 84/121/89 115/104/102 116/97/95 95/96/94
s 11
f 130/122/118 131/123/119 125/124/120 120/125/121
f 120/125/121 125/124/120 128/126/122 129/127/123
f 131/123/119 132/128/124 121/129/125 125/124/120
f 128/126/122 125/124/120 121/129/125 127/130/126
f 126/131/127 128/126/122 127/130/126 123/132/128
f 129/127/123 128/126/122 126/131/127 122/133/129
f 118/134/130 124/135/131 131/123/119 130/122/118
f 124/135/131 119/136/132 132/128/124 131/123/119
s 12
f 139/137/133 134/138/134 135/139/135 138/140/136
f 139/137/133 141/141/137 140/142/138
f 133/143/139 134/138/134 139/137/133 140/142/138
f 138/140/136 135/139/135 136/144/140 137/145/141
f 149/146/142 147/147/143 148/148/144
f 152/149/145 153/150/146 148/148/144 142/151/147
f 144/152/148 147/147/143 146/153/149 145/154/150
f 143/155/151 148/148/144 147/147/143 144/152/148
f 142/151/147 148/148/144 143/155/151
f 149/146/142 154/156/152 157/157/153 158/158/154
f 148/148/144 153/150/146 154/156/152 149/146/142
f 133/143/139 140/142/138 153/150/146 152/149/145
f 154/156/152 153/150/146 140/142/138 141/141/137
f 157/157/153 154/156/152 141/141/137 156/159/155
f 155/160/156 157/157/153 156/159/155 151/161/157
f 158/158/154 157/157/153 155/160/156 150/162/158
s 15
f 170/163/159 171/164/160 166/165/161 161/166/162
f 161/166/162 166/165/161 168/167/163 169/168/164
f 171/164/160 172/169/165 162/170/166 166/165/161
f 168/167/163 166/165/161 162/170/166 167/171/167
f 163/172/168 168/167/163 167/171/167 164/173/169
f 169/168/164 168/167/163 163/172/168
f 159/174/170 165/175/171 171/164/160 170/163/159
f 165/175/171 160/176/172 172/169/165 171/164/160
f 174/177/173 195/178/174 196/179/175 173/180/176
f 173/180/176 196/179/175 176/181/177 175/182/178
f 183/183/179 193/184/180 194/185/181 164/186/169
f 182/187/182 192/188/183 193/184/180 183/183/179
f 177/189/184 181/190/185 184/191/186 185/192/187
f 177/189/184 185/192/187 186/193/188 176/181/177
f 186/193/188 185/192/187 189/194/189 190/195/190
f 189/194/189 185/192/187 184/191/186 188/196/191
f 187/197/192 189/194/189 188/196/191 179/198/193
f 190/195/190 189/194/189 187/197/192 178/199/194
f 180/200/195 191/201/196 192/188/183 182/187/182
f 192/188/183 191/201/196 181/190/185 193/184/180
f 194/185/181 193/184/180 181/190/185 177/189/184
f 195/178/174 194/185/181 177/189/184
f 196/179/175 195/178/174 177/189/184 176/181/177
f 163/202/168 164/186/169 194/185/181
f 163/202/168 194/185/181 195/178/174 174/177/173
