# This file uses centimeters as units for non-parametric coordinates.

g default
v -1.465759 0.548157 2.867516
v 1.449829 0.548157 2.867516
v -1.565338 -4.554108 0.442055
v 1.549408 -4.554108 0.442055
v -1.016632 -14.197083 -6.537409
v 1.199051 -14.197083 -6.537409
v -0.000229 1.678314 2.835068
v 0.000305 -4.261475 -0.650063
v 0.176071 -14.197083 -6.537409
v 1.665268 -9.714264 -2.212774
v 0.199310 -9.508606 -2.878796
v -1.341339 -9.714264 -2.212774
v -1.508026 -0.292633 1.092079
v 0.000000 0.000000 -0.000004
v 1.492096 -0.292633 1.092079
v -9.704514 -22.253052 -8.956425
v -9.704514 -26.359619 -11.327351
v -5.073090 -41.092651 -19.077351
v -5.924194 -33.110107 -13.324917
v -1.651581 -41.092651 -19.077351
v 7.956451 -27.786346 -13.649811
v 5.826965 -32.416534 -15.900764
v 7.956451 -23.283356 -11.050014
v 5.121765 -17.463440 -8.327694
v -4.786011 -18.023315 -7.972286
v -3.231293 -41.092651 -19.077347
v -0.075516 -31.976563 -16.028194
v 0.109222 -26.386627 -13.860989
v 0.109222 -22.066650 -11.366840
v 0.547363 -17.421082 -8.684727
vt 0.100145 0.501695
vt 0.134710 0.501695
vt 0.100145 0.555783
vt 0.134710 0.555783
vt 0.100145 0.636477
vt 0.134710 0.636477
vt 0.117519 0.501695
vt 0.117519 0.555783
vt 0.117519 0.636477
vt 0.134710 0.593758
vt 0.117519 0.593758
vt 0.100145 0.593758
vt 0.100145 0.524655
vt 0.117519 0.524655
vt 0.134710 0.524655
vt 0.583769 0.963096
vt 0.555234 0.936007
vt 0.588510 0.934975
vt 0.591210 0.963096
vt 0.591697 0.895954
vt 0.530467 0.889441
vt 0.530467 0.851618
vt 0.591697 0.859668
vt 0.593041 0.816570
vt 0.550104 0.814262
vt 0.604505 0.748050
vt 0.615997 0.748050
vt 0.643101 0.819261
vt 0.629395 0.748050
vt 0.663085 0.869053
vt 0.663085 0.903547
vt 0.627306 0.933773
vt 0.599887 0.963096
vn -0.601318 0.409054 -0.686361
vn -0.000376 0.415461 -0.909611
vn -0.005743 0.311577 -0.950204
vn -0.547092 0.249335 -0.799076
vn 0.006442 0.542330 -0.840141
vn -0.401677 0.472364 -0.784556
vn 0.605376 0.407803 -0.683532
vn 0.554291 0.265889 -0.788710
vn 0.418452 0.480823 -0.770524
vn -0.033798 0.575781 -0.816905
vn 0.121836 0.576309 -0.808099
vn -0.168115 0.545880 -0.820824
vn -0.514950 0.754223 -0.407399
vn -0.000518 0.879872 -0.475211
vn 0.518965 0.752132 -0.406169
vn 0.091473 0.481779 -0.871506
vn -0.046184 0.490912 -0.869984
vn -0.068798 0.490067 -0.868966
vn 0.105997 0.488738 -0.865968
vn 0.093926 0.443114 -0.891531
vn -0.114755 0.395450 -0.911290
vn -0.149191 0.334476 -0.930520
vn 0.061388 0.359774 -0.931018
vn 0.034498 0.311649 -0.949571
vn -0.212063 0.416897 -0.883870
vn -0.336681 0.305061 -0.890833
vn -0.353788 0.465334 -0.811356
vn -0.261991 0.384600 -0.885123
vn -0.212330 0.484350 -0.848717
vn -0.195412 0.477888 -0.856410
s 1
g ivy_single_2
f 13/13/1 14/14/2 8/8/3 3/3/4
f 3/3/4 8/8/3 11/11/5 12/12/6
f 14/14/2 15/15/7 4/4/8 8/8/3
f 11/11/5 8/8/3 4/4/8 10/10/9
f 9/9/10 11/11/5 10/10/9 6/6/11
f 12/12/6 11/11/5 9/9/10 5/5/12
f 1/1/13 7/7/14 14/14/2 13/13/1
f 7/7/14 2/2/15 15/15/7 14/14/2
f 6/16/11 24/17/16 30/18/17 9/19/10
f 29/20/18 23/21/19 21/22/20 28/23/21
f 30/18/17 24/17/16 23/21/19 29/20/18
f 27/24/22 22/25/23 20/26/24 26/27/25
f 28/23/21 21/22/20 22/25/23 27/24/22
f 19/28/26 27/24/22 26/27/25 18/29/27
f 17/30/28 28/23/21 27/24/22 19/28/26
f 16/31/29 29/20/18 28/23/21 17/30/28
f 25/32/30 30/18/17 29/20/18 16/31/29
f 9/19/10 30/18/17 25/32/30 5/33/12
