# This file uses centimeters as units for non-parametric coordinates.

g default
v -2.885750 17.227997 -31.576372
v -4.842190 15.415197 -14.245371
v -0.833641 20.415646 -35.537819
v -4.839600 17.687477 -21.601269
v 4.039854 15.415197 -14.245371
v 1.309521 17.385994 -31.772682
v 3.278145 17.694679 -21.367817
v -2.885750 9.403318 -6.370685
v 3.535433 9.460772 -6.444967
v -0.734156 17.090408 -31.852953
v -0.676323 16.609402 -21.448177
v -0.286934 14.385521 -14.578706
v 0.407427 8.998383 -6.744883
v 0.000000 -0.000003 0.000000
v 1.628674 17.034325 -30.085875
v -0.724779 16.610729 -30.166128
v -3.202507 16.900791 -29.959209
vt 0.776341 0.234247
vt 0.769541 0.327210
vt 0.738907 0.326762
vt 0.733967 0.234247
vt 0.773531 0.437211
vt 0.741427 0.164648
vt 0.780154 0.163534
vt 0.760706 0.060627
vt 0.780721 0.061830
vt 0.801792 0.063095
vt 0.781695 0.013299
vt 0.820927 0.162361
vt 0.820952 0.234247
vt 0.801792 0.327682
vt 0.757580 0.077491
vt 0.780629 0.078318
vt 0.804894 0.079188
vn 0.000104 0.886912 0.461939
vn -0.005321 0.752629 0.658424
vn -0.197303 0.745634 0.636476
vn -0.229423 0.858141 0.459302
vn 0.010373 0.599445 0.800349
vn -0.245544 0.953238 0.176199
vn -0.003276 0.986846 0.161633
vn -0.226567 0.973929 0.011390
vn -0.016606 0.999767 0.013828
vn 0.126156 0.885618 0.446951
vn -0.008419 0.860868 0.508758
vn 0.004419 0.742458 0.669878
vn 0.220260 0.964254 0.147305
vn 0.194454 0.980909 -0.002224
vn 0.216881 0.879915 0.422745
vn 0.190429 0.758445 0.623296
vn -0.153796 0.873342 0.462191
s 1
g fern_leaf_2
f 12/1/1 13/2/2 9/3/3 5/4/4
f 9/3/3 13/2/2 14/5/5
f 12/1/1 5/4/4 7/6/6 11/7/7
f 11/7/7 7/6/6 15/15/8 16/16/9
f 1/10/10 10/9/11 3/11/12
f 4/12/13 11/7/7 16/16/9 17/17/14
f 2/13/15 12/1/1 11/7/7 4/12/13
f 2/13/15 8/14/16 13/2/2 12/1/1
f 3/11/12 10/9/11 6/8/17
f 14/5/5 13/2/2 8/14/16
f 16/16/9 15/15/8 6/8/17 10/9/11
f 17/17/14 16/16/9 10/9/11 1/10/10
