# This file uses centimeters as units for non-parametric coordinates.

g default
v 11.072723 36.916798 21.733334
v -0.201599 5.775990 11.054533
v 13.684464 6.064487 0.606045
v -0.848358 0.178169 6.414979
v 3.350418 -2.246365 0.480010
v 5.983658 -2.752968 -1.286255
v 11.354843 -0.449894 -0.701843
v 22.162430 27.232452 9.602570
v 36.139740 33.396503 22.790707
v 34.447128 26.918476 20.669857
v 33.300934 35.264099 26.487762
v 15.797958 37.012867 14.467251
v 5.777786 11.034798 4.421479
v 23.322693 42.001595 25.016418
v 26.733795 41.926804 19.458282
v 28.958786 31.799393 15.569916
v 17.355423 16.792767 5.389036
v 10.047333 24.729794 9.628353
v 4.411407 22.854645 16.290833
v -17.029266 39.240406 12.078030
v -11.654846 5.903481 -1.652771
v 3.417450 7.525307 6.972351
v -7.645187 -0.059742 -3.924013
v -0.536499 -2.246365 -2.341522
v 2.123947 -2.485798 -0.606842
v 3.701904 0.612446 4.490387
v -1.512436 30.408512 17.735653
v -8.130798 39.357346 35.580505
v -6.848251 32.521484 33.362427
v -12.646912 41.044273 34.380646
v -8.489578 39.562511 13.554958
v -3.202835 11.595161 1.089386
v -15.223114 46.258724 24.473873
v -8.770859 46.328209 25.420868
v -4.321167 36.299053 26.196865
v 0.467102 19.047598 11.941069
v -6.306870 26.189342 6.696804
v -14.650497 23.925167 4.193455
v -17.264801 36.981686 -17.528629
v -2.974747 3.972420 -13.422882
v -9.055191 8.667370 2.743193
v -0.110489 -1.389801 -9.658261
v -0.536469 -2.246365 -2.341584
v -1.821213 -1.931000 0.561800
v -6.586075 1.696098 2.835909
v -20.384583 31.177441 -1.082554
v -39.027283 39.860249 -5.016392
v -36.657700 33.153793 -3.901337
v -38.563568 40.691383 -9.704773
v -17.346832 38.871620 -8.896149
v -4.299271 11.266575 -4.837160
v -29.181274 44.932453 -13.982059
v -29.077194 46.178337 -7.481445
v -29.164841 36.994843 -2.673462
v -14.390182 19.896816 0.284056
v -10.277695 25.565273 -7.438572
v -9.158463 21.720280 -15.983280
v 7.750076 33.507431 -24.374878
v 8.962143 2.931107 -8.705930
v -8.306564 7.689228 -8.781010
v 6.455688 -1.769051 -4.557403
v -0.536469 -2.246368 -2.341553
v -3.706573 -1.947048 -2.520691
v -7.521378 1.103928 -6.258026
v -8.736313 28.243908 -21.307621
v -11.669128 33.911964 -40.325283
v -11.874893 27.637726 -37.540375
v -7.120850 34.527718 -41.574799
v -0.348404 35.900860 -21.445774
v 0.469833 10.530464 -7.097229
v 0.210373 39.890903 -34.449497
v -5.829376 41.540859 -32.084286
v -10.361298 32.653496 -30.218048
v -7.893753 17.956951 -14.929417
v 0.789246 23.757065 -13.978485
v 9.172516 19.571571 -15.856476
v 23.033035 33.373905 -2.801609
v 8.622757 3.979691 4.354342
v 2.971649 6.108253 -12.056426
v 3.873184 -0.843098 3.494871
v -0.536469 -2.246368 -2.341551
v -1.418411 -2.438316 -5.393220
v 0.845383 -0.193687 -10.303529
v 14.667038 25.808163 -17.163731
v 31.641556 29.889927 -26.368717
v 28.939804 23.763870 -25.470490
v 34.329193 31.118713 -22.517090
v 17.586411 34.709877 -9.521790
v 4.296341 10.371979 -3.315062
v 30.043503 38.003223 -13.405155
v 25.810883 38.875580 -18.353516
v 22.538712 29.432644 -21.760502
v 8.919098 16.050472 -13.980930
v 10.907074 23.208836 -5.650425
v 15.454727 20.190331 1.734253
v -6.650696 21.876789 24.226868
v -9.048203 2.595181 8.884156
v 8.328400 2.773811 9.100403
v -6.724686 -0.870850 4.816620
v 0.225861 -2.372063 2.685061
v 3.389542 -2.685738 2.896303
v 7.283768 -1.259731 6.641480
v 9.540695 15.880482 21.402588
v 12.544113 19.697109 40.383423
v 12.500519 15.686076 37.670258
v 8.037704 20.853477 41.574799
v 1.530060 21.936272 21.363434
v -0.261658 5.851303 7.288269
v 1.038956 25.025166 34.311981
v 7.135712 24.978859 31.997314
v 11.273209 18.708218 30.279419
v 8.310928 9.416492 15.129730
v -0.064392 14.330900 14.018919
v -8.597046 13.169853 15.847993
v -22.993103 23.315506 -0.589905
v -10.347672 2.674118 -8.173521
v -3.688843 3.678314 7.864776
v -5.785873 -1.018158 -7.520753
v -1.126358 -2.372059 -1.923707
v -0.080704 -2.520313 1.075254
v -1.946854 -0.601955 6.074126
v -14.168884 17.847019 13.371277
v -30.313248 23.387913 23.451019
v -27.942520 19.155319 22.479187
v -33.154541 24.432415 19.741272
v -17.136429 23.514950 5.798161
v -5.333603 6.198265 -0.837585
v -29.139175 27.661076 10.325466
v -24.610870 27.704094 15.018311
v -21.563095 21.494293 18.351959
v -9.060745 10.812626 9.994535
v -11.217438 15.234615 1.703770
v -16.291672 13.832695 -5.376892
v -5.085571 21.916965 -24.168064
v 3.716049 1.478455 -12.184937
v -10.976578 4.385452 -3.105225
v 3.682434 -1.841698 -7.454710
v -1.126297 -2.372059 -1.923769
v -3.917572 -2.176792 -0.410829
v -9.078873 0.069016 -1.522858
v -17.605896 18.323120 -13.057312
v -29.957779 23.699299 -27.564396
v -28.763672 19.546829 -25.233673
v -26.725464 24.213913 -30.991947
v -10.426193 23.087162 -17.385380
v -2.579453 5.994812 -6.198668
v -16.685150 26.839882 -28.643585
v -20.575562 27.611301 -23.434605
v -23.583328 21.925110 -19.682556
v -13.696396 11.338444 -8.312161
v -5.721649 14.848206 -11.911436
v 0.386307 12.467484 -17.990692
v 18.898224 19.765793 -14.299225
v 10.281586 0.833702 -1.156250
v -3.341049 3.779808 -11.769316
v 5.762329 -2.076519 0.595582
v -1.126312 -2.372063 -1.923706
v -3.526031 -2.186729 -4.002931
v -4.261459 -0.297646 -9.292509
v 3.974380 16.506752 -21.947021
v 13.275589 20.016273 -38.792236
v 11.410706 16.131416 -36.713654
v 17.639267 20.397530 -37.001556
v 10.697998 21.247742 -16.930115
v 2.576630 5.539032 -5.072937
v 19.087448 23.718277 -26.881287
v 12.861404 24.739891 -28.700378
v 8.133759 19.237053 -29.992924
v 0.743286 10.137321 -16.383602
v 7.034882 13.728611 -10.324368
v 14.818130 11.137058 -6.687443
v 17.810532 19.683115 12.116549
v 2.031235 1.482960 8.973783
v 7.587631 2.800911 -7.469270
v -1.202896 -1.503193 5.390840
v -1.126312 -2.372063 -1.923704
v 0.040619 -2.490913 -4.878173
v 4.833374 -1.101097 -7.381254
v 19.966049 14.998600 -4.364201
v 39.027283 17.525921 -1.276217
v 36.339859 13.732822 -2.216402
v 38.800690 18.286758 3.414978
v 17.606461 20.510315 3.468689
v 3.293915 5.440903 0.259246
v 29.839752 22.549473 8.008053
v 29.513733 23.089615 1.504608
v 29.005936 17.242786 -3.191898
v 13.471298 8.956882 -5.357761
v 9.953674 13.389160 2.450898
v 9.040085 11.520176 11.075315
vt 0.655947 0.120577
vt 0.736904 0.115566
vt 0.708835 0.192357
vt 0.655947 0.216393
vt 0.456978 0.140640
vt 0.555230 0.130733
vt 0.555230 0.225431
vt 0.456978 0.234247
vt 0.321544 0.134721
vt 0.335744 0.070936
vt 0.456978 0.043649
vt 0.555230 0.032612
vt 0.335655 0.203578
vt 0.191858 0.129054
vt 0.219482 0.174211
vt 0.219656 0.097064
vt 0.655947 0.021297
vt 0.698393 0.033418
vt 0.737366 0.079748
vt 0.655947 0.120577
vt 0.736904 0.115566
vt 0.708835 0.192357
vt 0.655947 0.216393
vt 0.456978 0.140640
vt 0.555230 0.130733
vt 0.555230 0.225431
vt 0.456978 0.234247
vt 0.321544 0.134721
vt 0.335744 0.070936
vt 0.456978 0.043649
vt 0.555230 0.032612
vt 0.335655 0.203578
vt 0.191858 0.129054
vt 0.219482 0.174211
vt 0.219656 0.097064
vt 0.655947 0.021297
vt 0.698393 0.033418
vt 0.737366 0.079748
vt 0.655947 0.120577
vt 0.736904 0.115566
vt 0.708835 0.192357
vt 0.655947 0.216393
vt 0.456978 0.140640
vt 0.555230 0.130733
vt 0.555230 0.225431
vt 0.456978 0.234247
vt 0.321544 0.134721
vt 0.335744 0.070936
vt 0.456978 0.043649
vt 0.555230 0.032612
vt 0.335655 0.203578
vt 0.191858 0.129054
vt 0.219482 0.174211
vt 0.219656 0.097064
vt 0.655947 0.021297
vt 0.698393 0.033418
vt 0.737366 0.079748
vt 0.655947 0.120577
vt 0.736904 0.115566
vt 0.708835 0.192357
vt 0.655947 0.216393
vt 0.456978 0.140640
vt 0.555230 0.130733
vt 0.555230 0.225431
vt 0.456978 0.234247
vt 0.321544 0.134721
vt 0.335744 0.070936
vt 0.456978 0.043649
vt 0.555230 0.032612
vt 0.335655 0.203578
vt 0.191858 0.129054
vt 0.219482 0.174211
vt 0.219656 0.097064
vt 0.655947 0.021297
vt 0.698393 0.033418
vt 0.737366 0.079748
vt 0.655947 0.120577
vt 0.736904 0.115566
vt 0.708835 0.192357
vt 0.655947 0.216393
vt 0.456978 0.140640
vt 0.555230 0.130733
vt 0.555230 0.225431
vt 0.456978 0.234247
vt 0.321544 0.134721
vt 0.335744 0.070936
vt 0.456978 0.043649
vt 0.555230 0.032612
vt 0.335655 0.203578
vt 0.191858 0.129054
vt 0.219482 0.174211
vt 0.219656 0.097064
vt 0.655947 0.021297
vt 0.698393 0.033418
vt 0.737366 0.079748
vt 0.655947 0.120577
vt 0.736904 0.115566
vt 0.708835 0.192357
vt 0.655947 0.216393
vt 0.456978 0.140640
vt 0.555230 0.130733
vt 0.555230 0.225431
vt 0.456978 0.234247
vt 0.321544 0.134721
vt 0.335744 0.070936
vt 0.456978 0.043649
vt 0.555230 0.032612
vt 0.335655 0.203578
vt 0.191858 0.129054
vt 0.219482 0.174211
vt 0.219656 0.097064
vt 0.655947 0.021297
vt 0.698393 0.033418
vt 0.737366 0.079748
vt 0.655947 0.120577
vt 0.736904 0.115566
vt 0.708835 0.192357
vt 0.655947 0.216393
vt 0.456978 0.140640
vt 0.555230 0.130733
vt 0.555230 0.225431
vt 0.456978 0.234247
vt 0.321544 0.134721
vt 0.335744 0.070936
vt 0.456978 0.043649
vt 0.555230 0.032612
vt 0.335655 0.203578
vt 0.191858 0.129054
vt 0.219482 0.174211
vt 0.219656 0.097064
vt 0.655947 0.021297
vt 0.698393 0.033418
vt 0.737366 0.079748
vt 0.655947 0.120577
vt 0.736904 0.115566
vt 0.708835 0.192357
vt 0.655947 0.216393
vt 0.456978 0.140640
vt 0.555230 0.130733
vt 0.555230 0.225431
vt 0.456978 0.234247
vt 0.321544 0.134721
vt 0.335744 0.070936
vt 0.456978 0.043649
vt 0.555230 0.032612
vt 0.335655 0.203578
vt 0.191858 0.129054
vt 0.219482 0.174211
vt 0.219656 0.097064
vt 0.655947 0.021297
vt 0.698393 0.033418
vt 0.737366 0.079748
vt 0.655947 0.120577
vt 0.736904 0.115566
vt 0.708835 0.192357
vt 0.655947 0.216393
vt 0.456978 0.140640
vt 0.555230 0.130733
vt 0.555230 0.225431
vt 0.456978 0.234247
vt 0.321544 0.134721
vt 0.335744 0.070936
vt 0.456978 0.043649
vt 0.555230 0.032612
vt 0.335655 0.203578
vt 0.191858 0.129054
vt 0.219482 0.174211
vt 0.219656 0.097064
vt 0.655947 0.021297
vt 0.698393 0.033418
vt 0.737366 0.079748
vt 0.655947 0.120577
vt 0.736904 0.115566
vt 0.708835 0.192357
vt 0.655947 0.216393
vt 0.456978 0.140640
vt 0.555230 0.130733
vt 0.555230 0.225431
vt 0.456978 0.234247
vt 0.321544 0.134721
vt 0.335744 0.070936
vt 0.456978 0.043649
vt 0.555230 0.032612
vt 0.335655 0.203578
vt 0.191858 0.129054
vt 0.219482 0.174211
vt 0.219656 0.097064
vt 0.655947 0.021297
vt 0.698393 0.033418
vt 0.737366 0.079748
vn -0.535123 0.420484 -0.732692
vn -0.693394 0.361933 -0.623065
vn -0.761684 0.366803 -0.534127
vn -0.776151 0.379644 -0.503448
vn -0.272890 0.676358 -0.684157
vn -0.485743 0.470956 -0.736379
vn -0.760955 0.444347 -0.472761
vn -0.597086 0.705585 -0.381626
vn 0.277498 0.825045 -0.492235
vn 0.422044 0.412095 -0.807500
vn 0.041394 0.437710 -0.898163
vn -0.113912 0.408256 -0.905732
vn -0.053713 0.995112 -0.082869
vn 0.717452 0.498696 -0.486380
vn 0.569808 0.792190 0.218526
vn 0.650006 0.276934 -0.707672
vn -0.142509 0.377447 -0.915000
vn -0.158088 0.337235 -0.928052
vn -0.236424 0.338933 -0.910619
vn 0.441879 0.382661 -0.811365
vn 0.283622 0.325390 -0.902042
vn 0.183471 0.328597 -0.926479
vn 0.151547 0.340057 -0.928114
vn 0.505222 0.630831 -0.588900
vn 0.465728 0.432163 -0.772226
vn 0.128552 0.399071 -0.907864
vn 0.109049 0.642543 -0.758451
vn 0.558222 0.827652 -0.058142
vn 0.908825 0.417170 -0.002547
vn 0.825093 0.419442 -0.378536
vn 0.768575 0.385599 -0.510495
vn 0.054342 0.971097 -0.232416
vn 0.741437 0.534373 0.405855
vn 0.025288 0.856267 0.515914
vn 0.916404 0.287680 0.278287
vn 0.765957 0.356343 -0.535097
vn 0.773408 0.316076 -0.549488
vn 0.720132 0.315018 -0.618202
vn 0.891330 0.389807 0.231475
vn 0.943749 0.324831 0.061832
vn 0.945935 0.323252 -0.026732
vn 0.941272 0.332558 -0.058420
vn 0.686697 0.660320 0.304014
vn 0.856180 0.446119 0.260641
vn 0.918364 0.385445 -0.089665
vn 0.779636 0.613629 -0.125007
vn 0.172963 0.884680 0.432926
vn 0.167422 0.468753 0.867318
vn 0.534916 0.460611 0.708309
vn 0.657802 0.416688 0.627429
vn 0.255504 0.954005 -0.156820
vn -0.298420 0.613884 0.730816
vn -0.491647 0.869469 -0.048031
vn -0.126166 0.330527 0.935326
vn 0.679639 0.387864 0.622618
vn 0.693242 0.342679 0.634024
vn 0.757200 0.337431 0.559275
vn 0.106590 0.434578 0.894305
vn 0.291345 0.362569 0.885247
vn 0.376248 0.359449 0.853952
vn 0.405636 0.368799 0.836329
vn -0.036429 0.726187 0.686532
vn 0.065830 0.495842 0.865914
vn 0.429404 0.423826 0.797486
vn 0.418362 0.662765 0.621061
vn -0.353790 0.914778 0.194972
vn -0.777723 0.490651 0.392950
vn -0.497036 0.505033 0.705619
vn -0.369140 0.460203 0.807433
vn 0.240810 0.970267 0.024353
vn -0.784977 0.608656 -0.115543
vn -0.119107 0.806194 -0.579539
vn -0.926604 0.339286 0.162143
vn -0.355551 0.429333 0.830215
vn -0.360232 0.381181 0.851431
vn -0.268682 0.377258 0.886276
vn -0.827007 0.457117 0.327267
vn -0.764839 0.388911 0.513585
vn -0.701233 0.389172 0.597342
vn -0.674068 0.400681 0.620554
vn -0.666419 0.740071 0.090446
vn -0.811561 0.514949 0.276037
vn -0.630861 0.463448 0.622278
vn -0.459197 0.724919 0.513450
vn -0.285460 0.874778 -0.391505
vn -0.599056 0.452930 -0.660293
vn -0.814271 0.490094 -0.311080
vn -0.876852 0.455580 -0.153552
vn 0.064766 0.994872 0.077686
vn -0.158129 0.538062 -0.827940
vn 0.491683 0.764103 -0.417605
vn -0.442233 0.305566 -0.843243
vn -0.896645 0.423571 -0.128899
vn -0.917864 0.378592 -0.119134
vn -0.924675 0.379369 -0.032496
vn 0.016505 0.595577 -0.803129
vn -0.158829 0.531771 -0.831861
vn -0.250661 0.537132 -0.805394
vn -0.280624 0.554982 -0.783100
vn 0.148016 0.821032 -0.551360
vn 0.048404 0.650964 -0.757564
vn -0.271280 0.629467 -0.728134
vn -0.178104 0.849724 -0.496235
vn 0.392298 0.905137 -0.163797
vn 0.728956 0.593135 -0.341781
vn 0.521873 0.624628 -0.580937
vn 0.415014 0.584641 -0.697107
vn 0.002568 0.997824 -0.065884
vn 0.680890 0.726896 0.089505
vn 0.223955 0.902581 0.367684
vn 0.893478 0.421993 -0.153685
vn 0.401943 0.557188 -0.726625
vn 0.406435 0.500773 -0.764223
vn 0.347024 0.502799 -0.791686
vn 0.761583 0.552625 -0.338521
vn 0.714988 0.486016 -0.502575
vn 0.656694 0.489868 -0.573396
vn 0.626091 0.506954 -0.592459
vn 0.601701 0.786859 -0.137145
vn 0.736145 0.609307 -0.294678
vn 0.583626 0.580196 -0.568115
vn 0.425092 0.805599 -0.412683
vn 0.356177 0.905912 0.229046
vn 0.637868 0.596538 0.487100
vn 0.769151 0.606559 0.201228
vn 0.826945 0.558787 0.062599
vn 0.119708 0.987883 -0.098775
vn 0.227177 0.757956 0.611468
vn -0.200026 0.936787 0.287089
vn 0.521641 0.436477 0.733061
vn 0.846474 0.530823 0.041325
vn 0.879921 0.473829 0.035023
vn 0.880520 0.472898 -0.032456
vn 0.505972 0.561737 0.654556
vn 0.652722 0.485086 0.581932
vn 0.707886 0.483051 0.515324
vn 0.721923 0.497547 0.480909
vn 0.294842 0.805454 0.514114
vn 0.459964 0.622114 0.633567
vn 0.697736 0.567559 0.437082
vn 0.539485 0.790310 0.290458
vn -0.101214 0.940376 0.324728
vn -0.339236 0.651788 0.678301
vn -0.028403 0.651134 0.758431
vn 0.118201 0.594606 0.795282
vn 0.194315 0.980668 0.023058
vn -0.517408 0.815128 0.260488
vn -0.241701 0.943333 -0.227385
vn -0.619274 0.492316 0.611658
vn 0.140685 0.566603 0.811892
vn 0.147872 0.507583 0.848819
vn 0.217918 0.502770 0.836501
vn -0.406704 0.611888 0.678370
vn -0.287327 0.532148 0.796405
vn -0.203891 0.528232 0.824257
vn -0.164819 0.542043 0.824029
vn -0.332812 0.850905 0.406445
vn -0.399769 0.672632 0.622696
vn -0.127698 0.611750 0.780676
vn -0.031274 0.828631 0.558921
vn -0.286270 0.956850 -0.049874
vn -0.724699 0.676144 -0.132816
vn -0.693437 0.693882 0.194094
vn -0.680380 0.641445 0.354445
vn 0.109333 0.987541 0.113173
vn -0.377264 0.808095 -0.452388
vn 0.181735 0.910416 -0.371639
vn -0.764726 0.503346 -0.402290
vn -0.689692 0.613773 0.384196
vn -0.725186 0.554259 0.408538
vn -0.689534 0.550858 0.470211
vn -0.742875 0.635113 -0.211585
vn -0.824455 0.563334 -0.054118
vn -0.825078 0.563624 0.039683
vn -0.811410 0.579426 0.076682
vn -0.443936 0.862194 -0.244012
vn -0.685019 0.692753 -0.225480
vn -0.752721 0.651923 0.091690
vn -0.489923 0.866812 0.092806
vn 0.011464 0.935300 -0.353671
vn -0.068680 0.639396 -0.765804
vn -0.366013 0.677914 -0.637548
vn -0.517495 0.636309 -0.572110
vn -0.006429 0.997913 0.064245
vn 0.340222 0.755141 -0.560367
vn 0.462759 0.886221 -0.021581
vn 0.154140 0.460163 -0.874352
vn -0.551295 0.609150 -0.570096
vn -0.589292 0.551202 -0.590688
vn -0.634886 0.552194 -0.540371
s 1
g fern_01
f 13/1/1 5/2/2 4/3/3 2/4/4
f 12/5/5 18/6/6 19/7/7 1/8/8
f 15/9/9 16/10/10 8/11/11 12/5/5
f 8/11/11 17/12/12 18/6/6 12/5/5
f 15/9/9 12/5/5 1/8/8 14/13/13
f 9/14/14 15/9/9 14/13/13 11/15/15
f 9/14/14 10/16/16 16/10/10 15/9/9
f 3/17/17 7/18/18 6/19/19 13/1/1
f 13/1/1 6/19/19 5/2/2
f 17/12/12 3/17/17 13/1/1 18/6/6
f 19/7/7 18/6/6 13/1/1 2/4/4
s 4
f 32/20/20 24/21/21 23/22/22 21/23/23
f 31/24/24 37/25/25 38/26/26 20/27/27
f 34/28/28 35/29/29 27/30/30 31/24/24
f 27/30/30 36/31/31 37/25/25 31/24/24
f 34/28/28 31/24/24 20/27/27 33/32/32
f 28/33/33 34/28/28 33/32/32 30/34/34
f 28/33/33 29/35/35 35/29/29 34/28/28
f 22/36/36 26/37/37 25/38/38 32/20/20
f 32/20/20 25/38/38 24/21/21
f 36/31/31 22/36/36 32/20/20 37/25/25
f 38/26/26 37/25/25 32/20/20 21/23/23
s 7
f 51/39/39 43/40/40 42/41/41 40/42/42
f 50/43/43 56/44/44 57/45/45 39/46/46
f 53/47/47 54/48/48 46/49/49 50/43/43
f 46/49/49 55/50/50 56/44/44 50/43/43
f 53/47/47 50/43/43 39/46/46 52/51/51
f 47/52/52 53/47/47 52/51/51 49/53/53
f 47/52/52 48/54/54 54/48/48 53/47/47
f 41/55/55 45/56/56 44/57/57 51/39/39
f 51/39/39 44/57/57 43/40/40
f 55/50/50 41/55/55 51/39/39 56/44/44
f 57/45/45 56/44/44 51/39/39 40/42/42
s 10
f 70/58/58 62/59/59 61/60/60 59/61/61
f 69/62/62 75/63/63 76/64/64 58/65/65
f 72/66/66 73/67/67 65/68/68 69/62/62
f 65/68/68 74/69/69 75/63/63 69/62/62
f 72/66/66 69/62/62 58/65/65 71/70/70
f 66/71/71 72/66/66 71/70/70 68/72/72
f 66/71/71 67/73/73 73/67/67 72/66/66
f 60/74/74 64/75/75 63/76/76 70/58/58
f 70/58/58 63/76/76 62/59/59
f 74/69/69 60/74/74 70/58/58 75/63/63
f 76/64/64 75/63/63 70/58/58 59/61/61
s 13
f 89/77/77 81/78/78 80/79/79 78/80/80
f 88/81/81 94/82/82 95/83/83 77/84/84
f 91/85/85 92/86/86 84/87/87 88/81/81
f 84/87/87 93/88/88 94/82/82 88/81/81
f 91/85/85 88/81/81 77/84/84 90/89/89
f 85/90/90 91/85/85 90/89/89 87/91/91
f 85/90/90 86/92/92 92/86/86 91/85/85
f 79/93/93 83/94/94 82/95/95 89/77/77
f 89/77/77 82/95/95 81/78/78
f 93/88/88 79/93/93 89/77/77 94/82/82
f 95/83/83 94/82/82 89/77/77 78/80/80
s 16
f 108/96/96 100/97/97 99/98/98 97/99/99
f 107/100/100 113/101/101 114/102/102 96/103/103
f 110/104/104 111/105/105 103/106/106 107/100/100
f 103/106/106 112/107/107 113/101/101 107/100/100
f 110/104/104 107/100/100 96/103/103 109/108/108
f 104/109/109 110/104/104 109/108/108 106/110/110
f 104/109/109 105/111/111 111/105/105 110/104/104
f 98/112/112 102/113/113 101/114/114 108/96/96
f 108/96/96 101/114/114 100/97/97
f 112/107/107 98/112/112 108/96/96 113/101/101
f 114/102/102 113/101/101 108/96/96 97/99/99
s 19
f 127/115/115 119/116/116 118/117/117 116/118/118
f 126/119/119 132/120/120 133/121/121 115/122/122
f 129/123/123 130/124/124 122/125/125 126/119/119
f 122/125/125 131/126/126 132/120/120 126/119/119
f 129/123/123 126/119/119 115/122/122 128/127/127
f 123/128/128 129/123/123 128/127/127 125/129/129
f 123/128/128 124/130/130 130/124/124 129/123/123
f 117/131/131 121/132/132 120/133/133 127/115/115
f 127/115/115 120/133/133 119/116/116
f 131/126/126 117/131/131 127/115/115 132/120/120
f 133/121/121 132/120/120 127/115/115 116/118/118
s 22
f 146/134/134 138/135/135 137/136/136 135/137/137
f 145/138/138 151/139/139 152/140/140 134/141/141
f 148/142/142 149/143/143 141/144/144 145/138/138
f 141/144/144 150/145/145 151/139/139 145/138/138
f 148/142/142 145/138/138 134/141/141 147/146/146
f 142/147/147 148/142/142 147/146/146 144/148/148
f 142/147/147 143/149/149 149/143/143 148/142/142
f 136/150/150 140/151/151 139/152/152 146/134/134
f 146/134/134 139/152/152 138/135/135
f 150/145/145 136/150/150 146/134/134 151/139/139
f 152/140/140 151/139/139 146/134/134 135/137/137
s 25
f 165/153/153 157/154/154 156/155/155 154/156/156
f 164/157/157 170/158/158 171/159/159 153/160/160
f 167/161/161 168/162/162 160/163/163 164/157/157
f 160/163/163 169/164/164 170/158/158 164/157/157
f 167/161/161 164/157/157 153/160/160 166/165/165
f 161/166/166 167/161/161 166/165/165 163/167/167
f 161/166/166 162/168/168 168/162/162 167/161/161
f 155/169/169 159/170/170 158/171/171 165/153/153
f 165/153/153 158/171/171 157/154/154
f 169/164/164 155/169/169 165/153/153 170/158/158
f 171/159/159 170/158/158 165/153/153 154/156/156
s 28
f 184/172/172 176/173/173 175/174/174 173/175/175
f 183/176/176 189/177/177 190/178/178 172/179/179
f 186/180/180 187/181/181 179/182/182 183/176/176
f 179/182/182 188/183/183 189/177/177 183/176/176
f 186/180/180 183/176/176 172/179/179 185/184/184
f 180/185/185 186/180/180 185/184/184 182/186/186
f 180/185/185 181/187/187 187/181/181 186/180/180
f 174/188/188 178/189/189 177/190/190 184/172/172
f 184/172/172 177/190/190 176/173/173
f 188/183/183 174/188/188 184/172/172 189/177/177
f 190/178/178 189/177/177 184/172/172 173/175/175
