# This file uses centimeters as units for non-parametric coordinates.

g default
v -1.438141 15.340271 1.787048
v 6.543579 26.232651 27.968872
v -0.480865 15.927246 -3.333130
v 15.547333 31.257431 -24.557251
v 20.691101 40.237946 32.219482
v 29.572418 45.517639 -20.300293
v 88.139648 63.189896 2.814209
v 87.069153 58.030258 35.043945
v 106.037079 55.273987 22.524841
v 8.717621 30.407845 2.543816
v 23.311188 45.007950 6.440186
v 88.376923 63.130310 20.296936
v 50.008026 54.781174 33.961670
v 51.855560 59.653885 13.276611
v 55.056061 59.268463 -9.244568
v -3.522552 15.480904 -1.193489
v -29.361053 20.580231 12.005371
v 1.635040 15.784485 -0.307556
v 23.516205 23.169312 19.917664
v -32.996735 26.590622 31.110962
v 19.863007 29.461945 39.028748
v -0.054962 18.110016 100.275085
v -32.205902 12.673401 98.462769
v -18.553589 2.231628 113.585449
v -3.921906 24.367889 14.668579
v -7.187195 30.724457 34.423340
v -17.490509 17.242249 101.251770
v -33.247498 26.396210 63.881645
v -12.569794 30.761047 66.781433
v 10.103577 29.897308 68.444641
v -2.499176 15.516815 -2.850098
v -26.313965 28.347458 -14.514954
v 0.596222 15.748039 1.373955
v 5.939697 29.715485 28.183342
v -38.249847 42.790665 -6.559082
v -5.901550 44.411911 36.056030
v -61.748077 64.397079 63.596191
v -84.716400 61.540512 40.556580
v -88.795654 58.126450 62.823486
v -9.099823 30.721634 4.632507
v -21.048401 45.738144 13.179565
v -74.602509 65.589462 51.804199
v -58.728516 57.774567 14.180481
v -44.688629 61.179092 29.875000
v -30.560394 59.224503 47.599792
v 0.959320 14.742355 -2.264038
v 8.573364 12.385849 -30.624390
v -2.914490 16.534172 0.779167
v -30.376495 30.236481 1.462585
v -2.128876 17.397453 -47.198860
v -41.014191 35.513321 -15.185852
v -76.311401 19.881531 -67.972778
v -55.649750 5.377907 -88.691597
v -77.714935 -0.441116 -86.854248
v -8.795654 23.389236 -14.945374
v -20.146271 28.849434 -31.758064
v -66.142700 14.039391 -80.941032
v -26.426636 17.662964 -69.189148
v -40.830353 27.849930 -57.197998
v -56.645172 33.586662 -41.882210
v 0.275726 15.826927 1.525200
v 25.394745 25.924744 13.140198
v -2.220612 15.433243 -3.067261
v -1.021912 21.266632 -33.182251
v 41.458374 34.128983 3.705261
v 15.010223 29.751869 -42.624214
v 76.564453 27.146759 -64.555923
v 95.591583 26.449974 -38.022713
v 100.760254 15.502022 -57.453072
v 11.379303 26.082100 -8.588448
v 27.665192 34.630768 -18.737732
v 88.062958 28.995789 -51.514709
v 67.101654 36.963066 -16.504036
v 56.068878 38.424141 -34.702095
v 43.722687 34.325783 -53.366768
v -1.713135 -1.391739 2.418705
v 2.791626 -1.391739 2.418705
v -2.848602 16.476448 1.253046
v 1.656158 16.476448 1.253046
v -2.848602 16.476448 -3.251715
v 1.656158 16.476448 -3.251715
v -1.713135 -1.391739 -2.086056
v 2.791626 -1.391739 -2.086056
vt 0.231172 0.000000
vt 0.404051 0.136791
vt 0.191593 0.000000
vt 0.000000 0.127293
vt 0.404051 0.290316
vt 0.000000 0.281524
vt 0.074775 0.781184
vt 0.318312 0.820293
vt 0.202158 0.950274
vt 0.210010 0.132230
vt 0.206279 0.286013
vt 0.203436 0.801846
vt 0.364179 0.536775
vt 0.204957 0.525894
vt 0.034773 0.513885
vt 0.074775 0.781184
vt 0.203436 0.801846
vt 0.202158 0.950274
vt 0.000000 0.281524
vt 0.206279 0.286013
vt 0.204957 0.525894
vt 0.034773 0.513885
vt 0.000000 0.127293
vt 0.210010 0.132230
vt 0.191593 0.000000
vt 0.231172 0.000000
vt 0.404051 0.136791
vt 0.404051 0.290316
vt 0.364179 0.536775
vt 0.318312 0.820293
vt 0.074775 0.781184
vt 0.203436 0.801846
vt 0.202158 0.950274
vt 0.000000 0.281524
vt 0.206279 0.286013
vt 0.204957 0.525894
vt 0.034773 0.513885
vt 0.000000 0.127293
vt 0.210010 0.132230
vt 0.191593 0.000000
vt 0.231172 0.000000
vt 0.404051 0.136791
vt 0.404051 0.290316
vt 0.364179 0.536775
vt 0.318312 0.820293
vt 0.074775 0.781184
vt 0.203436 0.801846
vt 0.202158 0.950274
vt 0.000000 0.281524
vt 0.206279 0.286013
vt 0.204957 0.525894
vt 0.034773 0.513885
vt 0.000000 0.127293
vt 0.210010 0.132230
vt 0.191593 0.000000
vt 0.231172 0.000000
vt 0.404051 0.136791
vt 0.404051 0.290316
vt 0.364179 0.536775
vt 0.318312 0.820293
vt 0.074775 0.781184
vt 0.203436 0.801846
vt 0.202158 0.950274
vt 0.000000 0.281524
vt 0.206279 0.286013
vt 0.204957 0.525894
vt 0.034773 0.513885
vt 0.000000 0.127293
vt 0.210010 0.132230
vt 0.191593 0.000000
vt 0.231172 0.000000
vt 0.404051 0.136791
vt 0.404051 0.290316
vt 0.364179 0.536775
vt 0.318312 0.820293
vt 0.198099 0.712685
vt 0.211135 0.712685
vt 0.211135 0.725722
vt 0.198099 0.725722
vt 0.211135 0.738759
vt 0.198099 0.738759
vt 0.211135 0.751796
vt 0.198099 0.751796
vt 0.198068 0.712685
vt 0.211105 0.712685
vt 0.211105 0.725722
vt 0.198068 0.725722
vt 0.198129 0.712685
vt 0.211166 0.712685
vt 0.211166 0.725722
vt 0.198129 0.725722
vn -0.058408 0.998186 -0.014635
vn -0.015696 0.990402 0.137321
vn 0.383194 0.908560 0.166376
vn -0.556164 0.823331 -0.113172
vn -0.563590 0.826033 -0.005913
vn -0.296400 0.952362 0.071787
vn -0.309722 0.949145 -0.056538
vn -0.699452 0.698119 -0.152961
vn -0.735863 0.674509 -0.059526
vn -0.801097 0.575550 -0.164273
vn -0.829156 0.559010 -0.002927
vn -0.731455 0.680021 0.050446
vn -0.576063 0.810797 0.103723
vn -0.316704 0.928451 0.194105
vn -0.063027 0.960421 0.271328
vn -0.004687 0.918512 0.395365
vn -0.153734 0.886291 0.436868
vn -0.158039 0.633527 0.757408
vn 0.067254 0.988992 -0.131800
vn -0.040284 0.990383 -0.132356
vn -0.104179 0.980553 0.166321
vn 0.023179 0.988839 0.147176
vn 0.100557 0.942849 -0.317687
vn 0.005534 0.934260 -0.356549
vn 0.107835 0.879280 -0.463937
vn -0.054597 0.870519 -0.489097
vn -0.104064 0.932757 -0.345160
vn -0.150207 0.977910 -0.145363
vn -0.227082 0.963319 0.143004
vn -0.289792 0.875253 0.387237
vn 0.110830 0.993810 0.007594
vn -0.029193 0.997419 -0.065592
vn -0.328576 0.922690 0.201694
vn 0.512918 0.806358 -0.294453
vn 0.440327 0.816626 -0.373141
vn 0.208445 0.951404 -0.226675
vn 0.310512 0.938867 -0.148700
vn 0.632442 0.676900 -0.376594
vn 0.588160 0.659588 -0.467987
vn 0.702919 0.552619 -0.447793
vn 0.604052 0.547308 -0.579288
vn 0.505659 0.672994 -0.539803
vn 0.368388 0.809111 -0.457853
vn 0.132145 0.936048 -0.326115
vn -0.095819 0.976518 -0.192953
vn -0.104512 0.884355 -0.454966
vn -0.047340 0.811198 -0.582852
vn -0.334930 0.573084 -0.747928
vn 0.256945 0.964146 -0.066342
vn 0.325939 0.934464 -0.143319
vn 0.141972 0.911406 -0.386242
vn 0.077041 0.955752 -0.283907
vn 0.364900 0.926598 0.090911
vn 0.452453 0.890358 0.050486
vn 0.456299 0.865498 0.206650
vn 0.576418 0.809877 0.108819
vn 0.513266 0.857502 -0.035338
vn 0.402900 0.890622 -0.210865
vn 0.233889 0.859099 -0.455241
vn 0.073800 0.760609 -0.645002
vn 0.158890 0.941009 -0.298757
vn 0.287021 0.935421 -0.206416
vn 0.580242 0.716448 -0.387325
vn -0.305972 0.951544 -0.030732
vn -0.241274 0.968987 0.053391
vn 0.031213 0.996122 -0.082263
vn -0.062428 0.983437 -0.170157
vn -0.463033 0.884175 0.061927
vn -0.434059 0.886424 0.160762
vn -0.570617 0.807168 0.151249
vn -0.490000 0.820604 0.294125
vn -0.358354 0.902416 0.239226
vn -0.182519 0.972003 0.147976
vn 0.090631 0.995458 0.029159
vn 0.332973 0.940429 -0.068720
vn -0.677630 0.004913 0.735386
vn 0.703799 0.090689 0.704587
vn 0.684316 0.253749 0.683610
vn -0.724295 0.172862 0.667469
vn 0.667686 0.170758 -0.724594
vn -0.703557 0.094375 -0.704345
vn 0.735363 0.002521 -0.677669
vn -0.704556 -0.090688 -0.703830
s 1
g fern_02
f 7/7/1 12/12/2 9/9/3
f 6/6/4 11/11/5 14/14/6 15/15/7
f 4/4/8 10/10/9 11/11/5 6/6/4
f 10/10/9 3/3/10 1/1/11
f 10/10/9 1/1/11 2/2/12
f 4/4/8 3/3/10 10/10/9
f 11/11/5 10/10/9 2/2/12 5/5/13
f 14/14/6 11/11/5 5/5/13 13/13/14
f 9/9/3 12/12/2 8/8/15
f 12/12/2 14/14/6 13/13/14 8/8/15
f 15/15/7 14/14/6 12/12/2 7/7/1
s 3
f 22/16/16 27/17/17 24/18/18
f 21/19/19 26/20/20 29/21/21 30/22/22
f 19/23/23 25/24/24 26/20/20 21/19/19
f 25/24/24 18/25/25 16/26/26
f 25/24/24 16/26/26 17/27/27
f 19/23/23 18/25/25 25/24/24
f 26/20/20 25/24/24 17/27/27 20/28/28
f 29/21/21 26/20/20 20/28/28 28/29/29
f 24/18/18 27/17/17 23/30/30
f 27/17/17 29/21/21 28/29/29 23/30/30
f 30/22/22 29/21/21 27/17/17 22/16/16
s 5
f 37/31/31 42/32/32 39/33/33
f 36/34/34 41/35/35 44/36/36 45/37/37
f 34/38/38 40/39/39 41/35/35 36/34/34
f 40/39/39 33/40/40 31/41/41
f 40/39/39 31/41/41 32/42/42
f 34/38/38 33/40/40 40/39/39
f 41/35/35 40/39/39 32/42/42 35/43/43
f 44/36/36 41/35/35 35/43/43 43/44/44
f 39/33/33 42/32/32 38/45/45
f 42/32/32 44/36/36 43/44/44 38/45/45
f 45/37/37 44/36/36 42/32/32 37/31/31
s 7
f 52/46/46 57/47/47 54/48/48
f 51/49/49 56/50/50 59/51/51 60/52/52
f 49/53/53 55/54/54 56/50/50 51/49/49
f 55/54/54 48/55/55 46/56/56
f 55/54/54 46/56/56 47/57/57
f 49/53/53 48/55/55 55/54/54
f 56/50/50 55/54/54 47/57/57 50/58/58
f 59/51/51 56/50/50 50/58/58 58/59/59
f 54/48/48 57/47/47 53/60/60
f 57/47/47 59/51/51 58/59/59 53/60/60
f 60/52/52 59/51/51 57/47/47 52/46/46
s 9
f 67/61/61 72/62/62 69/63/63
f 66/64/64 71/65/65 74/66/66 75/67/67
f 64/68/68 70/69/69 71/65/65 66/64/64
f 70/69/69 63/70/70 61/71/71
f 70/69/69 61/71/71 62/72/72
f 64/68/68 63/70/70 70/69/69
f 71/65/65 70/69/69 62/72/72 65/73/73
f 74/66/66 71/65/65 65/73/73 73/74/74
f 69/63/63 72/62/62 68/75/75
f 72/62/62 74/66/66 73/74/74 68/75/75
f 75/67/67 74/66/66 72/62/62 67/61/61
s 11
f 76/76/76 77/77/77 79/78/78 78/79/79
f 78/79/79 79/78/78 81/80/80 80/81/81
f 80/81/81 81/80/80 83/82/82 82/83/83
f 77/84/77 83/85/82 81/86/80 79/87/78
f 82/88/83 76/89/76 78/90/79 80/91/81
