# This file uses centimeters as units for non-parametric coordinates.

g default
v 7.189987 17.693359 10.201874
v 5.707596 22.142811 19.090086
v 7.003357 10.714371 6.103026
v -3.147003 17.693359 10.201874
v -2.468185 9.991570 5.599913
v -1.773071 -0.644440 2.010988
v 5.136658 -0.517082 2.075472
v -0.771362 22.141220 19.088196
v 0.554169 -0.583527 -0.245361
v 2.061798 10.994530 4.578981
v 1.796921 18.611084 8.865877
v 2.327362 22.719143 18.443632
v 3.134644 23.184246 27.104801
v -8.039047 17.693359 8.022614
v -16.998352 22.142811 9.120115
v -3.955460 10.714371 6.862792
v -11.074417 17.693359 -1.858704
v -6.255768 9.991570 -2.338930
v -2.868774 -0.644440 -3.045897
v -0.901428 -0.517082 3.578157
v -18.899017 22.141220 2.926208
v 0.505966 -0.583527 -0.272125
v -3.949646 10.994530 1.691561
v -8.345581 18.611084 2.474947
v -17.372955 22.719143 5.699064
v -25.448807 23.184246 8.860958
v -6.479980 17.693359 -9.752869
v -6.364410 22.142815 -18.706301
v -5.705276 10.714371 -5.444825
v 3.711273 17.693359 -11.482483
v 3.716919 9.991570 -6.533602
v 3.868546 -0.644440 -3.119658
v -2.954559 -0.517082 -2.027067
v 0.023529 22.141220 -19.788513
v 0.541229 -0.583527 -0.309937
v -0.578384 10.994530 -4.769102
v -0.939407 18.611084 -9.338102
v -2.923660 22.719147 -18.634554
v -4.975037 23.184242 -27.104763
v 8.172852 17.693359 -7.586273
v 16.937683 22.142815 -9.392458
v 4.315521 10.714371 -5.959962
v 12.330338 17.693359 1.877838
v 7.664291 9.991570 2.914122
v 4.309494 -0.644440 4.325624
v 1.589478 -0.517082 -2.026548
v 19.541733 22.141220 -3.459839
v 0.574768 -0.583527 -0.255859
v 4.907639 10.994530 -0.822721
v 9.118744 18.611084 -2.111235
v 17.705322 22.719147 -6.037661
v 25.448792 23.184242 -9.983402
v 1.178848 8.517109 13.951114
v -4.572083 9.784477 19.393402
v 3.770874 5.659271 11.249209
v -8.858139 8.517105 8.176974
v -6.556946 5.148544 4.554593
v -2.539688 -0.561867 0.858947
v 3.417511 -0.492516 4.360472
v -10.187088 9.783607 16.160952
v 0.309494 -0.528702 2.533602
v -0.801102 5.857239 6.337461
v -3.311417 9.076904 9.641357
v -7.179718 10.098309 17.147490
v -10.009659 8.389717 23.226107
v -12.390884 8.517105 3.328280
v -19.281967 9.784477 -0.571075
v -9.046951 5.659271 5.012698
v -9.818542 8.517105 -7.961759
v -5.680130 5.148544 -6.825656
v -0.967789 -0.561867 -4.070710
v -2.565628 -0.492516 2.652037
v -17.840820 9.783607 -6.887724
v -1.732010 -0.528702 -0.855405
v -5.694260 5.857239 -0.800052
v -9.589630 9.076904 -2.229553
v -17.900742 10.098312 -3.723238
v -24.542374 8.389717 -4.643461
v -0.947845 8.517105 -13.060391
v 3.811386 9.784477 -19.388245
v -3.051224 5.659271 -9.962888
v 9.913788 8.517105 -9.047086
v 8.251129 5.148544 -5.090732
v 4.908905 -0.561867 -0.775025
v -1.550186 -0.492516 -3.230379
v 9.888107 9.783607 -17.140928
v 1.819687 -0.528702 -1.949369
v 2.278137 5.857239 -5.885409
v 4.200256 9.076904 -9.562744
v 6.758057 10.098312 -17.610323
v 8.530975 8.389717 -24.076719
v 12.069473 8.517105 -2.771726
v 19.365189 9.784477 0.304749
v 8.553253 5.659271 -4.058164
v 10.819748 8.517105 8.740024
v 6.577713 5.148544 8.090055
v 1.578461 -0.561867 5.898406
v 2.388321 -0.492516 -0.963991
v 18.664032 9.783607 6.745668
v 1.965805 -0.528702 2.616305
v 5.895096 5.857239 2.103208
v 9.929626 9.076904 3.072754
v 18.357681 10.098312 3.595457
v 25.061188 8.389717 3.741640
vt 0.900726 0.354991
vt 0.933830 0.354978
vt 0.928168 0.437211
vt 0.878485 0.234247
vt 0.869676 0.162584
vt 0.932474 0.156117
vt 0.937649 0.234247
vt 0.906318 0.020209
vt 0.941623 0.019388
vt 0.990042 0.150190
vt 0.973987 0.018636
vt 0.991886 0.234247
vt 0.964177 0.354965
vt 0.900726 0.354991
vt 0.933830 0.354978
vt 0.928168 0.437211
vt 0.878485 0.234247
vt 0.869676 0.162584
vt 0.932474 0.156117
vt 0.937649 0.234247
vt 0.906318 0.020209
vt 0.941623 0.019388
vt 0.990042 0.150190
vt 0.973987 0.018636
vt 0.991886 0.234247
vt 0.964177 0.354965
vt 0.900726 0.354991
vt 0.933830 0.354978
vt 0.928168 0.437211
vt 0.878485 0.234247
vt 0.869676 0.162584
vt 0.932474 0.156117
vt 0.937649 0.234247
vt 0.906318 0.020209
vt 0.941623 0.019388
vt 0.990042 0.150190
vt 0.973987 0.018636
vt 0.991886 0.234247
vt 0.964177 0.354965
vt 0.900726 0.354991
vt 0.933830 0.354978
vt 0.928168 0.437211
vt 0.878485 0.234247
vt 0.869676 0.162584
vt 0.932474 0.156117
vt 0.937649 0.234247
vt 0.906318 0.020209
vt 0.941623 0.019388
vt 0.990042 0.150190
vt 0.973987 0.018636
vt 0.991886 0.234247
vt 0.964177 0.354965
vt 0.900726 0.354991
vt 0.933830 0.354978
vt 0.928168 0.437211
vt 0.878485 0.234247
vt 0.869676 0.162584
vt 0.932474 0.156117
vt 0.937649 0.234247
vt 0.906318 0.020209
vt 0.941623 0.019388
vt 0.990042 0.150190
vt 0.973987 0.018636
vt 0.991886 0.234247
vt 0.964177 0.354965
vt 0.900726 0.354991
vt 0.933830 0.354978
vt 0.928168 0.437211
vt 0.878485 0.234247
vt 0.869676 0.162584
vt 0.932474 0.156117
vt 0.937649 0.234247
vt 0.906318 0.020209
vt 0.941623 0.019388
vt 0.990042 0.150190
vt 0.973987 0.018636
vt 0.991886 0.234247
vt 0.964177 0.354965
vt 0.900726 0.354991
vt 0.933830 0.354978
vt 0.928168 0.437211
vt 0.878485 0.234247
vt 0.869676 0.162584
vt 0.932474 0.156117
vt 0.937649 0.234247
vt 0.906318 0.020209
vt 0.941623 0.019388
vt 0.990042 0.150190
vt 0.973987 0.018636
vt 0.991886 0.234247
vt 0.964177 0.354965
vt 0.900726 0.354991
vt 0.933830 0.354978
vt 0.928168 0.437211
vt 0.878485 0.234247
vt 0.869676 0.162584
vt 0.932474 0.156117
vt 0.937649 0.234247
vt 0.906318 0.020209
vt 0.941623 0.019388
vt 0.990042 0.150190
vt 0.973987 0.018636
vt 0.991886 0.234247
vt 0.964177 0.354965
vn 0.229929 0.915694 -0.329603
vn 0.003025 0.944261 -0.329184
vn 0.010334 0.998456 -0.054580
vn 0.275247 0.716306 -0.641206
vn 0.328279 0.381843 -0.863961
vn 0.033425 0.408024 -0.912359
vn -0.009214 0.734964 -0.678044
vn 0.363876 0.289715 -0.885245
vn -0.001434 0.337193 -0.941435
vn -0.379492 0.397137 -0.835624
vn -0.448223 0.330905 -0.830421
vn -0.294786 0.710445 -0.639037
vn -0.246676 0.918637 -0.308638
vn 0.381265 0.916216 0.123226
vn 0.315473 0.944229 -0.094387
vn 0.054874 0.998471 -0.006716
vn 0.688056 0.721730 0.075397
vn 0.914641 0.393443 0.092927
vn 0.877879 0.413319 -0.241859
vn 0.640909 0.738522 -0.209334
vn 0.948397 0.276552 0.155117
vn 0.901960 0.330720 -0.277657
vn 0.705581 0.389738 -0.591828
vn 0.700748 0.323821 -0.635683
vn 0.521869 0.712873 -0.468471
vn 0.224258 0.917942 -0.327246
vn -0.171576 0.915800 0.363143
vn 0.053141 0.943698 0.326512
vn -0.000285 0.998492 0.054896
vn -0.163773 0.723319 0.670811
vn -0.203309 0.398193 0.894488
vn 0.130817 0.414691 0.900510
vn 0.122663 0.740508 0.660758
vn -0.263433 0.274651 0.924754
vn 0.154570 0.320100 0.934689
vn 0.484801 0.389886 0.782916
vn 0.520534 0.311543 0.794975
vn 0.396461 0.715065 0.575761
vn 0.296093 0.917186 0.266646
vn -0.391985 0.916608 -0.078602
vn -0.303964 0.943222 0.133931
vn -0.053110 0.998498 0.013468
vn -0.696509 0.717524 0.005865
vn -0.912553 0.408763 0.012645
vn -0.838476 0.406322 0.363127
vn -0.618021 0.734082 0.281380
vn -0.956807 0.282831 -0.067283
vn -0.872549 0.317592 0.371206
vn -0.697628 0.371709 0.612492
vn -0.730788 0.307193 0.609574
vn -0.469710 0.707119 0.528542
vn -0.191270 0.915029 0.355160
vn 0.120982 0.992648 0.003756
vn 0.028348 0.998547 -0.045828
vn -0.121375 0.968860 0.215822
vn 0.319409 0.921796 -0.219704
vn 0.512579 0.699489 -0.497975
vn 0.383418 0.675559 -0.629770
vn 0.180541 0.922294 -0.341728
vn 0.553205 0.559653 -0.617051
vn 0.406028 0.581256 -0.705183
vn 0.175643 0.682249 -0.709708
vn 0.258190 0.585758 -0.768261
vn 0.015876 0.918715 -0.394602
vn -0.074232 0.992075 -0.101380
vn 0.031934 0.992648 0.116752
vn 0.052133 0.998547 0.013642
vn -0.241949 0.968859 -0.052650
vn 0.303810 0.921796 0.240814
vn 0.626536 0.699490 0.343753
vn 0.714594 0.675560 0.181589
vn 0.379677 0.922295 0.072237
vn 0.752295 0.559654 0.347620
vn 0.793323 0.581255 0.181057
vn 0.729998 0.682248 -0.040497
vn 0.810209 0.585756 0.021218
vn 0.381868 0.918715 -0.100695
vn 0.075112 0.992074 -0.100729
vn -0.119906 0.992647 0.016541
vn -0.020281 0.998547 0.049926
vn 0.083551 0.968859 -0.233091
vn -0.278144 0.921796 0.270052
vn -0.422027 0.699488 0.576723
vn -0.272638 0.675559 0.685046
vn -0.120816 0.922295 0.367118
vn -0.442154 0.559655 0.700918
vn -0.282310 0.581256 0.763180
vn -0.054421 0.682248 0.729092
vn -0.126008 0.585757 0.800631
vn 0.050373 0.918715 0.391695
vn 0.090149 0.992075 0.087529
vn -0.045220 0.992648 -0.112277
vn -0.053361 0.998547 -0.007523
vn 0.246413 0.968860 0.024323
vn -0.329616 0.921796 -0.204073
vn -0.662079 0.699489 -0.269009
vn -0.730797 0.675560 -0.097752
vn -0.385482 0.922295 -0.027855
vn -0.787440 0.559655 -0.258312
vn -0.808936 0.581256 -0.088121
vn -0.720420 0.682249 0.124625
vn -0.807229 0.585757 0.072597
vn -0.367665 0.918715 0.144170
vn -0.062962 0.992075 0.108738
s 1
g fern_04
f 2/1/1 12/2/2 13/3/3
f 1/4/4 3/5/5 10/6/6 11/7/7
f 12/2/2 2/1/1 1/4/4 11/7/7
f 10/6/6 3/5/5 7/8/8 9/9/9
f 5/10/10 10/6/6 9/9/9 6/11/11
f 11/7/7 10/6/6 5/10/10 4/12/12
f 8/13/13 12/2/2 11/7/7 4/12/12
f 13/3/3 12/2/2 8/13/13
s 3
f 15/14/14 25/15/15 26/16/16
f 14/17/17 16/18/18 23/19/19 24/20/20
f 25/15/15 15/14/14 14/17/17 24/20/20
f 23/19/19 16/18/18 20/21/21 22/22/22
f 18/23/23 23/19/19 22/22/22 19/24/24
f 24/20/20 23/19/19 18/23/23 17/25/25
f 21/26/26 25/15/15 24/20/20 17/25/25
f 26/16/16 25/15/15 21/26/26
s 5
f 28/27/27 38/28/28 39/29/29
f 27/30/30 29/31/31 36/32/32 37/33/33
f 38/28/28 28/27/27 27/30/30 37/33/33
f 36/32/32 29/31/31 33/34/34 35/35/35
f 31/36/36 36/32/32 35/35/35 32/37/37
f 37/33/33 36/32/32 31/36/36 30/38/38
f 34/39/39 38/28/28 37/33/33 30/38/38
f 39/29/29 38/28/28 34/39/39
s 7
f 41/40/40 51/41/41 52/42/42
f 40/43/43 42/44/44 49/45/45 50/46/46
f 51/41/41 41/40/40 40/43/43 50/46/46
f 49/45/45 42/44/44 46/47/47 48/48/48
f 44/49/49 49/45/45 48/48/48 45/50/50
f 50/46/46 49/45/45 44/49/49 43/51/51
f 47/52/52 51/41/41 50/46/46 43/51/51
f 52/42/42 51/41/41 47/52/52
s 9
f 54/53/53 64/54/54 65/55/55
f 53/56/56 55/57/57 62/58/58 63/59/59
f 64/54/54 54/53/53 53/56/56 63/59/59
f 62/58/58 55/57/57 59/60/60 61/61/61
f 57/62/62 62/58/58 61/61/61 58/63/63
f 63/59/59 62/58/58 57/62/62 56/64/64
f 60/65/65 64/54/54 63/59/59 56/64/64
f 65/55/55 64/54/54 60/65/65
s 11
f 67/66/66 77/67/67 78/68/68
f 66/69/69 68/70/70 75/71/71 76/72/72
f 77/67/67 67/66/66 66/69/69 76/72/72
f 75/71/71 68/70/70 72/73/73 74/74/74
f 70/75/75 75/71/71 74/74/74 71/76/76
f 76/72/72 75/71/71 70/75/75 69/77/77
f 73/78/78 77/67/67 76/72/72 69/77/77
f 78/68/68 77/67/67 73/78/78
s 13
f 80/79/79 90/80/80 91/81/81
f 79/82/82 81/83/83 88/84/84 89/85/85
f 90/80/80 80/79/79 79/82/82 89/85/85
f 88/84/84 81/83/83 85/86/86 87/87/87
f 83/88/88 88/84/84 87/87/87 84/89/89
f 89/85/85 88/84/84 83/88/88 82/90/90
f 86/91/91 90/80/80 89/85/85 82/90/90
f 91/81/81 90/80/80 86/91/91
s 15
f 93/92/92 103/93/93 104/94/94
f 92/95/95 94/96/96 101/97/97 102/98/98
f 103/93/93 93/92/92 92/95/95 102/98/98
f 101/97/97 94/96/96 98/99/99 100/100/100
f 96/101/101 101/97/97 100/100/100 97/102/102
f 102/98/98 101/97/97 96/101/101 95/103/103
f 99/104/104 103/93/93 102/98/98 95/103/103
f 104/94/94 103/93/93 99/104/104
