# This file uses centimeters as units for non-parametric coordinates.

g default
v -4.650124 -0.801208 4.650161
v 4.650131 -0.801208 4.650161
v -4.650124 -0.801208 -4.650132
v 4.650131 -0.801208 -4.650132
v 0.000000 0.000000 -4.650136
v 0.000000 0.000000 4.650156
v -4.650124 0.000000 0.000010
v 4.650131 0.000000 0.000010
v 0.000000 -1.394928 0.000011
vn -0.167400 0.971573 0.167399
vn -0.000000 0.997713 -0.067590
vn 0.067591 0.997713 0.000000
vn 0.167400 0.971573 0.167399
vn -0.067591 0.997713 0.000000
vn -0.000000 0.997713 0.067590
vn 0.167400 0.971573 -0.167400
vn -0.167401 0.971573 -0.167400
vn -0.000000 1.000000 -0.000000
s 1
g flower_single_4
f 1//1 6//2 7//3
f 6//2 2//4 8//5
f 5//6 8//5 4//7
f 7//3 5//6 3//8
f 7//3 6//2 9//9
f 7//3 9//9 5//6
f 9//9 8//5 5//6
f 6//2 8//5 9//9
