# This file uses centimeters as units for non-parametric coordinates.

g default
v -4.232727 9.976913 4.147335
v 5.067535 9.976913 4.147335
v -4.232727 9.976913 -5.152958
v 5.067535 9.976913 -5.152958
v 0.417389 10.778107 -5.152950
v 0.417389 10.778107 4.147343
v -4.232727 10.778107 -0.502804
v 5.067535 10.778107 -0.502804
v 0.417389 9.383194 -0.502800
v -8.094849 8.959549 -7.308628
v 0.238770 9.145325 -3.184200
v -4.094635 6.296982 -15.271305
v 4.238983 6.482773 -11.146843
v 0.160187 7.157379 -13.421513
v -3.840027 9.819946 -5.458839
v -6.006744 8.395767 -11.502384
v 2.326874 8.581558 -7.377922
v -1.993164 7.152405 -9.070309
v 10.181427 7.843155 3.073433
v 15.657806 5.261230 -3.986141
v 2.734253 7.166779 -2.456234
v 8.210632 4.584869 -9.515839
v 5.560455 6.643326 -6.198456
v 13.007599 7.319687 -0.668789
v 6.545868 8.272461 0.096165
v 12.022247 5.690552 -6.963406
v 9.130798 5.645264 -3.063786
v -15.657806 5.927002 -1.430729
v -12.791382 5.229660 7.389278
v -6.814758 6.448303 -4.263401
v -3.948364 5.750961 4.556606
v -5.405853 6.897308 0.217564
v -14.248871 6.376022 3.050240
v -11.260559 6.985336 -2.776066
v -8.394165 6.287994 6.043900
v -9.785065 5.247864 1.510376
v -3.041534 9.274185 6.633797
v -2.988403 5.826553 15.271271
v 6.056549 7.502808 5.870811
v 6.109650 4.055176 14.508266
v 6.249207 6.507294 10.479218
v -2.848877 8.278671 11.242218
v 1.673615 9.116791 6.541996
v 1.726715 5.669174 15.179455
v 1.410980 6.124985 10.356392
v -12.075409 3.370514 4.376774
v -8.587982 2.063705 12.898819
v -3.601166 5.582718 1.248135
v -0.113770 4.275909 9.770199
v -1.994232 5.699326 5.683201
v -10.468445 3.487137 8.811829
v -7.975037 5.246628 2.986546
v -4.487610 3.939835 11.508541
v -5.993225 3.252594 6.944519
v -1.392670 8.788513 4.862022
v 7.211761 8.103729 8.324585
v 2.057434 8.494980 -3.769650
v 10.661896 7.810211 -0.307095
v 6.423859 8.951233 -2.039894
v 2.973724 9.244751 6.591732
v 0.396576 9.440369 0.544682
v 9.001007 8.755600 4.007236
v 4.587067 7.707535 2.278599
v -0.337860 9.281738 -0.805851
v 1.235687 9.281738 -0.805851
v -0.337860 -0.766174 -0.502808
v 1.235687 -0.766174 -0.502808
v -2.748444 7.054504 -9.070347
v -1.174896 7.054504 -9.070347
v -2.748444 -0.766174 -3.284485
v -1.174896 -0.766174 -3.284485
v -9.785065 5.175491 2.203091
v -9.785065 5.175507 0.646328
v -6.172516 -0.691422 3.377136
v -6.003967 -0.847168 1.820404
v 8.400543 5.544128 -3.757969
v 9.743500 5.544098 -3.005222
v 6.039032 -0.810394 0.247925
v 7.311401 -0.718231 1.169189
v 2.440308 6.104584 10.019238
v 0.945923 6.104568 10.509823
v 0.777435 -0.789734 5.062439
v -0.716919 -0.740662 5.552994
v -6.225189 3.135101 7.744308
v -7.613617 3.135117 7.040253
v -3.544281 -0.691422 5.379150
v -4.856476 -0.847168 4.524780
v 3.696045 7.802826 2.336239
v 5.057861 7.317963 1.714565
v 0.132416 -0.193329 1.851284
v 1.494202 -0.678192 1.229610
vt 0.463083 0.528706
vt 0.696867 0.528706
vt 0.463083 0.762490
vt 0.930651 0.528706
vt 0.930651 0.762490
vt 0.696867 0.996275
vt 0.930651 0.996275
vt 0.463083 0.996275
vt 0.696867 0.762490
vt 0.463083 0.528706
vt 0.696867 0.528706
vt 0.463083 0.762490
vt 0.930651 0.528706
vt 0.930651 0.762490
vt 0.696867 0.996275
vt 0.930651 0.996275
vt 0.463083 0.996275
vt 0.696867 0.762490
vt 0.463083 0.528706
vt 0.696867 0.528706
vt 0.463083 0.762490
vt 0.930651 0.528706
vt 0.930651 0.762490
vt 0.696867 0.996275
vt 0.930651 0.996275
vt 0.463083 0.996275
vt 0.696867 0.762490
vt 0.463083 0.528706
vt 0.696867 0.528706
vt 0.463083 0.762490
vt 0.930651 0.528706
vt 0.930651 0.762490
vt 0.696867 0.996275
vt 0.930651 0.996275
vt 0.463083 0.996275
vt 0.696867 0.762490
vt 0.463083 0.528706
vt 0.696867 0.528706
vt 0.463083 0.762490
vt 0.930651 0.528706
vt 0.930651 0.762490
vt 0.696867 0.996275
vt 0.930651 0.996275
vt 0.463083 0.996275
vt 0.696867 0.762490
vt 0.463083 0.528706
vt 0.696867 0.528706
vt 0.463083 0.762490
vt 0.930651 0.528706
vt 0.930651 0.762490
vt 0.696867 0.996275
vt 0.930651 0.996275
vt 0.463083 0.996275
vt 0.696867 0.762490
vt 0.463083 0.528706
vt 0.696867 0.528706
vt 0.463083 0.762490
vt 0.930651 0.528706
vt 0.930651 0.762490
vt 0.696867 0.996275
vt 0.930651 0.996275
vt 0.463083 0.996275
vt 0.696867 0.762490
vt 0.991801 0.984488
vt 0.961904 0.974575
vt 0.960252 0.671124
vt 0.991801 0.671124
vt 0.991044 0.982439
vt 0.956466 0.975830
vt 0.961423 0.666168
vt 0.996000 0.666168
vt 0.994407 0.961930
vt 0.963243 0.976262
vt 0.958522 0.768466
vt 0.993006 0.773267
vt 0.994069 0.979448
vt 0.961577 0.972237
vt 0.960555 0.720957
vt 0.992931 0.729856
vt 0.962816 0.772670
vt 0.993104 0.778395
vt 0.990158 0.965078
vt 0.963176 0.975872
vt 0.954927 0.756357
vt 0.993669 0.756488
vt 0.994374 0.971565
vt 0.957087 0.976649
vt 0.956708 0.676081
vt 0.991228 0.671485
vt 0.990263 0.985716
vt 0.954092 0.973790
vn -0.167398 0.971574 0.167397
vn -0.000000 0.997713 -0.067590
vn 0.067592 0.997713 0.000000
vn 0.167397 0.971574 0.167397
vn -0.067590 0.997713 0.000000
vn -0.000000 0.997713 0.067589
vn 0.167396 0.971574 -0.167396
vn -0.167397 0.971574 -0.167396
vn -0.000000 1.000000 -0.000000
vn -0.115267 0.975285 -0.188503
vn 0.138682 0.936393 -0.322391
vn 0.170174 0.957095 -0.234543
vn 0.184737 0.981973 -0.040025
vn 0.049041 0.954394 -0.294493
vn 0.080536 0.975095 -0.206648
vn 0.328738 0.886124 -0.326672
vn 0.028735 0.879436 -0.475150
vn 0.109859 0.957935 -0.265126
vn 0.142210 0.989351 -0.030994
vn 0.055486 0.950829 -0.304706
vn 0.149409 0.936980 -0.315826
vn 0.339353 0.896406 -0.285124
vn 0.069809 0.974509 -0.213212
vn 0.163730 0.960660 -0.224332
vn 0.071265 0.872058 -0.484186
vn -0.125881 0.965003 -0.230050
vn 0.109860 0.957935 -0.265125
vn -0.240219 0.970476 -0.021716
vn 0.034017 0.997120 0.067781
vn -0.009418 0.988264 0.152468
vn -0.137033 0.945372 0.295794
vn -0.051082 0.998400 0.024267
vn -0.094517 0.989543 0.108954
vn 0.181304 0.964139 0.193819
vn 0.078117 0.989242 -0.123686
vn -0.030319 0.995609 0.088569
vn 0.036696 0.977111 0.209542
vn 0.272950 0.894060 0.355183
vn 0.207215 0.881878 0.423502
vn 0.038606 0.853000 0.520481
vn 0.206444 0.931989 0.297955
vn 0.140710 0.919806 0.366274
vn 0.366130 0.789231 0.493015
vn 0.364214 0.913344 0.182076
vn 0.207305 0.909012 0.361555
vn -0.381141 0.917465 0.113974
vn -0.108714 0.974961 0.193993
vn -0.144955 0.949386 0.278665
vn -0.255599 0.870421 0.420757
vn -0.195646 0.968381 0.154796
vn -0.231889 0.942806 0.239467
vn 0.049462 0.950058 0.308127
vn -0.076081 0.997101 0.001350
vn -0.170691 0.961081 0.217226
vn -0.139163 0.986060 0.091207
vn 0.104979 0.992373 -0.064613
vn 0.142437 0.989530 0.023285
vn 0.170584 0.961409 0.215857
vn 0.017368 0.999483 -0.027043
vn 0.054828 0.996640 0.060851
vn 0.294788 0.950842 -0.094871
vn -0.014968 0.975493 -0.219519
vn 0.080086 0.996786 -0.001885
vn 0.000000 -0.030146 -0.999546
vn 0.000000 -0.030146 -0.999546
vn 0.000000 -0.030146 -0.999546
vn 0.000000 -0.030146 -0.999546
vn 0.000000 -0.594747 -0.803913
vn 0.000000 -0.594747 -0.803913
vn 0.000000 -0.594747 -0.803913
vn 0.000000 -0.594747 -0.803913
vn -0.847321 -0.530730 -0.019323
vn -0.847321 -0.530730 -0.019323
vn -0.847321 -0.530730 -0.019323
vn -0.847321 -0.530730 -0.019323
vn 0.446155 -0.600031 -0.664010
vn 0.446155 -0.600031 -0.664010
vn 0.446155 -0.600031 -0.664010
vn 0.446155 -0.600031 -0.664010
vn 0.239224 -0.605552 0.758998
vn 0.239224 -0.605552 0.758998
vn 0.239223 -0.605552 0.758998
vn 0.239223 -0.605552 0.758998
vn -0.347128 -0.658864 0.667383
vn -0.347128 -0.658864 0.667383
vn -0.347128 -0.658864 0.667383
vn -0.347128 -0.658864 0.667383
vn -0.343676 0.208696 -0.915605
vn -0.343676 0.208696 -0.915605
vn -0.343676 0.208696 -0.915605
vn -0.343676 0.208696 -0.915605
s 1
g flower_clump_1
f 1/1/1 6/2/2 7/3/3
f 6/2/2 2/4/4 8/5/5
f 5/6/6 8/5/5 4/7/7
f 7/3/3 5/6/6 3/8/8
f 7/3/3 6/2/2 9/9/9
f 7/3/3 9/9/9 5/6/6
f 9/9/9 8/5/5 5/6/6
f 6/2/2 8/5/5 9/9/9
s 5
f 10/10/10 15/11/11 16/12/12
f 15/11/11 11/13/13 17/14/14
f 14/15/15 17/14/14 13/16/16
f 16/12/12 14/15/15 12/17/17
f 16/12/12 15/11/11 18/18/18
f 16/12/12 18/18/18 14/15/15
f 18/18/18 17/14/14 14/15/15
f 15/11/11 17/14/14 18/18/18
s 9
f 19/19/19 24/20/20 25/21/21
f 24/20/20 20/22/22 26/23/23
f 23/24/24 26/23/23 22/25/25
f 25/21/21 23/24/24 21/26/26
f 25/21/21 24/20/20 27/27/27
f 25/21/21 27/27/27 23/24/24
f 27/27/27 26/23/23 23/24/24
f 24/20/20 26/23/23 27/27/27
s 13
f 28/28/28 33/29/29 34/30/30
f 33/29/29 29/31/31 35/32/32
f 32/33/33 35/32/32 31/34/34
f 34/30/30 32/33/33 30/35/35
f 34/30/30 33/29/29 36/36/36
f 34/30/30 36/36/36 32/33/33
f 36/36/36 35/32/32 32/33/33
f 33/29/29 35/32/32 36/36/36
s 17
f 37/37/37 42/38/38 43/39/39
f 42/38/38 38/40/40 44/41/41
f 41/42/42 44/41/41 40/43/43
f 43/39/39 41/42/42 39/44/44
f 43/39/39 42/38/38 45/45/45
f 43/39/39 45/45/45 41/42/42
f 45/45/45 44/41/41 41/42/42
f 42/38/38 44/41/41 45/45/45
s 21
f 46/46/46 51/47/47 52/48/48
f 51/47/47 47/49/49 53/50/50
f 50/51/51 53/50/50 49/52/52
f 52/48/48 50/51/51 48/53/53
f 52/48/48 51/47/47 54/54/54
f 52/48/48 54/54/54 50/51/51
f 54/54/54 53/50/50 50/51/51
f 51/47/47 53/50/50 54/54/54
s 25
f 55/55/55 60/56/56 61/57/57
f 60/56/56 56/58/58 62/59/59
f 59/60/60 62/59/59 58/61/61
f 61/57/57 59/60/60 57/62/62
f 61/57/57 60/56/56 63/63/63
f 61/57/57 63/63/63 59/60/60
f 63/63/63 62/59/59 59/60/60
f 60/56/56 62/59/59 63/63/63
s off
f 64/64/64 65/65/65 67/66/66 66/67/67
f 68/68/68 69/69/69 71/70/70 70/71/71
f 72/72/72 73/73/73 75/74/74 74/75/75
f 76/76/76 77/77/77 79/78/78 78/79/79
f 80/80/80 81/81/81 83/82/82 82/83/83
f 84/84/84 85/85/85 87/86/86 86/87/87
f 88/88/88 89/89/89 91/90/90 90/91/91
