# This file uses centimeters as units for non-parametric coordinates.

g default
v -6.712433 -0.396912 5.777122
v 2.754883 -0.396912 6.453055
v 0.428650 -0.396912 -6.453073
v -6.712433 -0.396912 -3.793038
v 6.712463 -0.396912 -0.255166
v 3.205963 -0.396912 -3.713723
v -0.832520 0.396912 0.150707
vt 1.000000 0.450697
vt 0.928518 0.455800
vt 0.946082 0.358354
vt 1.000000 0.378438
vt 0.898636 0.405150
vt 0.925112 0.379037
vt 0.955604 0.408215
vn -0.062699 0.996020 -0.063355
vn 0.009110 0.999924 -0.008355
vn 0.057998 0.996983 -0.051595
vn 0.000953 0.992874 -0.119169
vn 0.057993 0.996710 0.056620
vn 0.104881 0.994474 0.004653
vn -0.070293 0.995276 0.066962
s 1
g flower_single_5
f 4/4/1 7/7/2 6/6/3 3/3/4
f 7/7/2 2/2/5 5/5/6 6/6/3
f 7/7/2 4/4/1 1/1/7
f 2/2/5 7/7/2 1/1/7
